{"glyphs":{"0":{"ha":690,"x_min":59,"x_max":630,"o":"m 173 355 q 216 163 173 233 q 345 93 259 93 q 473 163 431 93 q 514 355 514 232 q 473 548 514 478 q 345 617 431 617 q 216 544 255 617 q 173 355 173 473 m 59 355 q 132 621 59 524 q 345 717 205 717 q 558 621 485 717 q 630 355 630 525 q 558 88 630 185 q 345 -9 485 -9 q 130 92 202 -9 q 59 355 59 189 z "},"1":{"ha":382,"x_min":29,"x_max":284,"o":"m 29 700 l 284 700 l 284 0 l 172 0 l 172 596 l 29 596 l 29 700 z "},"2":{"ha":590,"x_min":50,"x_max":537,"o":"m 271 314 q 374 430 347 391 q 402 510 402 470 q 370 582 402 553 q 289 611 338 611 q 146 523 200 611 l 50 578 q 155 684 99 650 q 296 717 212 717 q 451 660 387 717 q 515 510 515 603 q 488 407 515 457 q 384 281 460 358 l 219 113 l 537 113 l 537 0 l 59 0 l 59 100 l 271 314 z "},"3":{"ha":580,"x_min":39,"x_max":523,"o":"m 77 596 l 77 700 l 487 700 l 487 609 l 318 420 q 467 360 412 417 q 523 221 523 304 q 450 53 523 115 q 262 -9 378 -9 q 39 64 149 -9 l 89 159 q 269 99 175 99 q 371 128 332 99 q 410 210 410 158 q 365 296 410 265 q 243 328 321 328 q 169 316 206 328 l 169 407 l 331 596 l 77 596 z "},"4":{"ha":573,"x_min":37,"x_max":534,"o":"m 338 284 l 338 412 l 450 412 l 450 284 l 534 284 l 534 176 l 450 176 l 450 0 l 338 0 l 338 176 l 37 176 l 37 281 l 295 700 l 424 700 l 170 284 l 338 284 z "},"5":{"ha":580,"x_min":50,"x_max":533,"o":"m 487 702 l 487 594 l 192 594 l 192 422 q 292 447 236 447 q 463 386 394 447 q 533 226 533 325 q 458 59 533 126 q 276 -9 384 -9 q 50 86 135 -9 l 113 172 q 122 164 115 170 q 136 153 130 158 q 195 122 153 139 q 282 106 238 106 q 376 137 336 106 q 415 223 415 169 q 372 311 415 279 q 262 344 329 344 q 135 311 196 344 l 84 365 l 84 702 l 487 702 z "},"6":{"ha":621,"x_min":60,"x_max":570,"o":"m 172 374 q 349 451 243 451 q 507 388 444 451 q 570 222 570 325 q 502 56 570 120 q 329 -9 434 -9 q 193 24 249 -9 q 110 111 137 56 q 72 221 83 166 q 60 336 60 275 q 146 631 60 541 q 339 713 226 713 q 544 643 452 713 l 485 556 q 423 592 461 577 q 355 607 385 607 q 172 374 175 607 m 192 226 q 231 134 192 172 q 329 96 271 96 q 428 130 389 96 q 467 219 467 165 q 430 310 467 273 q 334 347 392 347 q 232 313 272 347 q 192 226 192 279 z "},"7":{"ha":567,"x_min":46,"x_max":540,"o":"m 46 500 l 46 700 l 540 700 l 540 596 l 242 0 l 112 0 l 402 593 l 153 593 l 153 500 l 46 500 z "},"8":{"ha":637,"x_min":57,"x_max":580,"o":"m 319 714 q 488 662 421 714 q 554 528 554 609 q 480 385 554 447 q 580 205 580 321 q 508 52 580 113 q 319 -9 435 -9 q 130 52 203 -9 q 57 205 57 113 q 159 385 57 321 q 83 528 83 448 q 150 662 83 610 q 319 714 221 714 m 319 95 q 419 126 375 95 q 462 209 462 158 q 420 293 462 262 q 319 324 378 324 q 217 293 259 324 q 175 209 175 262 q 221 125 175 152 q 319 95 268 95 m 319 412 q 408 443 371 412 q 445 518 445 474 q 408 592 445 561 q 319 623 371 623 q 230 592 268 623 q 192 518 192 561 q 231 442 192 474 q 319 412 269 412 z "},"9":{"ha":620,"x_min":52,"x_max":561,"o":"m 450 332 q 374 278 422 301 q 272 255 326 255 q 115 318 178 255 q 52 484 52 381 q 119 650 52 587 q 292 713 186 713 q 428 681 372 713 q 511 593 484 649 q 550 485 538 538 q 561 369 561 431 q 475 74 561 165 q 284 -9 397 -9 q 77 63 170 -9 l 136 150 q 198 114 160 129 q 266 99 236 99 q 450 332 447 99 m 430 480 q 391 572 430 534 q 294 610 352 610 q 197 576 235 610 q 159 487 159 541 q 194 395 159 431 q 289 359 229 359 q 389 393 349 359 q 430 480 430 427 z "},"A":{"ha":743,"x_min":0,"x_max":743,"o":"m 196 159 l 126 0 l 0 0 l 309 700 l 435 700 l 743 0 l 617 0 l 547 159 l 196 159 m 500 269 l 372 557 l 245 269 l 500 269 z "},"ఆ":{"ha":859,"x_min":43,"x_max":835,"o":"m 670 392 q 620 412 643 392 q 600 460 600 432 q 620 503 600 485 q 670 521 640 521 q 720 503 700 521 q 739 460 739 485 q 720 412 739 431 q 670 392 697 392 m 269 399 q 215 417 236 399 q 192 460 192 435 q 215 510 192 488 q 269 530 238 530 q 319 510 296 530 q 338 460 338 490 q 319 417 338 435 q 269 399 298 399 m 478 0 q 737 57 640 0 q 835 209 835 116 q 820 285 835 252 q 782 338 808 316 q 815 392 805 361 q 825 460 825 421 q 777 566 825 523 q 660 609 730 609 q 556 567 601 609 q 513 470 513 527 q 534 387 513 424 q 591 331 556 349 l 374 331 l 374 243 l 609 243 q 670 252 641 243 q 713 278 696 263 q 739 252 727 272 q 749 216 749 238 q 667 116 749 155 q 451 79 584 79 q 226 150 319 79 q 130 322 130 221 q 133 357 130 336 q 140 374 135 368 q 190 329 152 345 q 278 314 229 314 q 384 358 341 314 q 427 470 427 402 q 384 574 427 531 q 278 617 341 617 q 107 544 172 617 q 43 348 43 471 q 162 95 43 192 q 478 0 281 0 z "},"ా":{"ha":865,"x_min":-355,"x_max":826,"o":"m 653 209 q 603 229 626 209 q 583 278 583 249 q 603 328 583 305 q 653 348 626 348 q 703 328 680 348 q 723 278 723 305 q 703 229 723 249 q 653 209 680 209 m 497 278 q 541 166 497 210 q 653 122 586 122 q 776 180 726 122 q 826 322 826 239 q 755 524 826 440 q 583 609 683 609 l -355 609 l -355 521 l 583 521 q 676 491 640 521 q 713 417 713 461 q 644 435 684 435 q 540 388 583 435 q 497 278 497 344 z "},"Æ":{"ha":1042,"x_min":-11,"x_max":988,"o":"m 977 700 l 977 590 l 603 590 l 603 398 l 938 398 l 938 295 l 603 295 l 603 110 l 988 110 l 988 0 l 473 0 l 473 159 l 219 159 l 135 0 l -11 0 l 355 700 l 977 700 m 473 272 l 473 590 l 444 590 l 276 272 l 473 272 z "},"ఐ":{"ha":833,"x_min":43,"x_max":809,"o":"m 581 0 q 743 90 676 0 q 809 305 809 178 q 737 520 809 428 q 566 609 666 609 q 470 591 513 609 q 408 538 430 573 q 348 591 389 573 q 252 609 306 609 q 116 558 170 609 q 62 435 62 510 l 147 435 q 178 495 147 473 q 252 521 209 521 q 328 498 301 521 q 357 435 357 474 l 444 435 q 474 498 444 475 q 557 521 505 521 q 673 458 623 521 q 722 305 722 395 q 680 150 722 216 q 581 87 639 87 q 495 120 533 87 q 460 200 460 155 l 460 262 l 374 262 l 374 209 q 336 123 374 160 q 243 87 299 87 q 163 119 196 87 q 130 192 130 149 q 150 242 130 219 q 200 262 173 262 q 223 251 215 262 q 235 226 235 239 l 322 226 q 285 312 322 275 q 192 348 248 348 q 86 302 132 348 q 43 192 43 258 q 97 56 43 115 q 226 0 152 0 q 345 21 294 0 q 417 79 397 43 q 485 21 444 40 q 581 0 530 0 z "},"ై":{"ha":773,"x_min":89,"x_max":689,"o":"m 245 -295 q 190 -278 212 -295 q 168 -235 168 -259 q 188 -179 168 -203 q 238 -156 209 -156 q 286 -179 268 -156 q 305 -235 305 -202 q 288 -278 305 -258 q 245 -295 269 -295 m 689 -295 l 359 -295 q 372 -268 365 -289 q 375 -216 375 -239 q 332 -125 375 -163 q 229 -87 288 -87 q 130 -129 172 -87 q 89 -225 89 -168 q 132 -324 89 -284 q 238 -365 178 -365 l 689 -365 l 689 -295 m 541 521 q 627 563 590 521 q 663 660 663 603 q 627 759 663 719 q 541 800 590 800 l 89 800 l 89 713 l 524 713 q 561 699 547 713 q 576 660 576 683 q 561 623 576 637 q 524 609 547 609 l 193 609 l 193 521 l 541 521 z "},"ఔ":{"ha":1145,"x_min":43,"x_max":1121,"o":"m 946 348 q 896 371 918 348 q 878 427 878 394 q 896 477 878 457 q 946 495 916 495 q 997 477 977 495 q 1017 427 1017 454 q 997 371 1017 395 q 946 348 975 348 m 243 0 q 365 21 308 0 q 444 79 421 44 q 520 21 471 40 q 634 0 568 0 q 772 54 714 0 q 825 192 825 107 q 818 252 825 223 q 800 295 813 281 l 703 295 q 730 256 722 279 q 739 209 739 232 q 703 123 739 159 q 617 87 667 87 q 531 123 567 87 q 495 209 495 159 l 495 262 l 408 262 l 408 209 q 367 123 408 160 q 269 87 326 87 q 172 119 212 87 q 130 192 130 149 q 159 266 130 233 q 235 314 186 301 q 335 371 294 329 q 374 452 374 412 q 359 528 374 498 q 322 574 345 560 q 348 600 338 587 q 357 627 357 616 q 351 644 357 637 q 338 660 348 654 l 861 660 q 952 634 914 660 q 999 566 994 607 q 975 573 992 571 q 938 574 965 574 q 835 534 876 574 q 792 435 792 493 q 842 319 792 367 q 965 271 892 271 q 1075 324 1031 271 q 1121 452 1121 378 q 1045 663 1121 577 q 861 749 971 749 l 62 749 l 62 660 l 235 660 q 255 653 243 660 q 262 636 262 646 q 249 616 262 624 q 216 609 232 609 q 106 567 152 609 q 62 470 62 527 l 62 435 l 147 435 l 147 452 q 170 501 147 483 q 226 521 195 521 q 269 507 251 521 q 286 470 286 493 q 263 417 286 440 q 200 384 236 392 q 87 315 130 365 q 43 200 43 265 q 102 59 43 117 q 243 0 160 0 z "},"Á":{"ha":743,"x_min":0,"x_max":743,"o":"m 196 159 l 126 0 l 0 0 l 309 700 l 435 700 l 743 0 l 617 0 l 547 159 l 196 159 m 500 269 l 372 557 l 245 269 l 500 269 m 427 760 l 324 760 l 430 905 l 548 856 l 427 760 z "},"Â":{"ha":732,"x_min":0,"x_max":732,"o":"m 422 700 l 732 0 l 601 0 l 530 159 l 195 159 l 126 0 l 0 0 l 309 700 l 422 700 m 483 269 l 362 538 l 243 269 l 483 269 m 309 893 l 414 893 l 537 759 l 440 759 l 362 815 l 285 759 l 188 759 l 309 893 z "},"Ä":{"ha":732,"x_min":0,"x_max":732,"o":"m 422 700 l 732 0 l 601 0 l 530 159 l 195 159 l 126 0 l 0 0 l 309 700 l 422 700 m 483 269 l 362 538 l 243 269 l 483 269 m 212 818 q 229 860 212 842 q 272 878 246 878 q 317 861 299 878 q 335 818 335 843 q 317 773 335 792 q 272 755 299 755 q 229 773 246 755 q 212 818 212 792 m 397 818 q 415 860 397 842 q 460 878 434 878 q 502 861 484 878 q 520 818 520 843 q 501 773 520 792 q 458 755 483 755 q 415 773 434 755 q 397 818 397 792 z "},"À":{"ha":732,"x_min":0,"x_max":732,"o":"m 422 700 l 732 0 l 601 0 l 530 159 l 195 159 l 126 0 l 0 0 l 309 700 l 422 700 m 483 269 l 362 538 l 243 269 l 483 269 m 421 759 l 319 759 l 196 855 l 315 903 l 421 759 z "},"॒":{"ha":0,"x_min":173,"x_max":749,"o":"m 173 -739 l 749 -739 l 749 -609 l 173 -609 l 173 -739 z "},"ం":{"ha":759,"x_min":43,"x_max":722,"o":"m 384 87 q 205 150 281 87 q 130 305 130 215 q 205 464 130 398 q 384 530 279 530 q 563 464 488 530 q 636 305 636 398 q 563 150 636 212 q 384 87 490 87 m 384 0 q 623 90 521 0 q 722 305 722 178 q 623 520 722 432 q 384 609 524 609 q 143 520 243 609 q 43 305 43 430 q 143 90 43 180 q 384 0 245 0 z "},"ఁ":{"ha":411,"x_min":47,"x_max":395,"o":"m 395 0 l 395 87 l 334 87 q 195 150 253 87 q 135 305 135 215 q 190 458 135 397 q 326 521 246 521 l 361 521 l 361 609 l 299 609 q 120 520 193 609 q 47 305 47 432 q 120 90 47 178 q 299 0 196 0 l 395 0 z "},"Å":{"ha":732,"x_min":0,"x_max":732,"o":"m 475 767 q 428 687 475 720 l 732 0 l 601 0 l 530 159 l 195 159 l 126 0 l 0 0 l 302 689 q 258 767 258 720 q 290 846 258 813 q 365 878 322 878 q 442 846 410 878 q 475 767 475 813 m 483 269 l 362 538 l 243 269 l 483 269 m 421 773 q 406 813 421 798 q 367 829 391 829 q 326 813 342 829 q 311 773 311 798 q 326 733 311 749 q 367 717 342 717 q 406 733 391 717 q 421 773 421 749 z "},"Ã":{"ha":732,"x_min":0,"x_max":732,"o":"m 422 700 l 732 0 l 601 0 l 530 159 l 195 159 l 126 0 l 0 0 l 309 700 l 422 700 m 483 269 l 362 538 l 243 269 l 483 269 m 367 780 q 306 803 316 803 q 272 759 275 803 l 199 759 q 223 853 199 818 q 288 889 246 889 q 362 866 312 889 q 427 842 414 842 q 457 886 457 842 l 531 886 q 440 756 530 756 q 367 780 411 756 z "},"ౌ":{"ha":865,"x_min":-241,"x_max":826,"o":"m 653 348 q 603 371 624 348 q 583 427 583 395 q 603 477 583 454 q 653 495 623 495 q 703 477 683 495 q 723 427 723 454 q 703 371 723 395 q 653 348 682 348 m 497 427 q 541 315 497 359 q 653 271 586 271 q 776 324 725 271 q 826 452 826 378 q 752 663 826 578 q 567 749 676 749 l -241 749 l -241 660 l 159 660 q 179 653 168 660 q 186 636 186 646 q 175 616 186 624 q 150 609 163 609 l -149 609 l -149 521 l 150 521 q 243 551 203 521 q 281 627 281 584 q 275 644 281 637 q 262 660 272 654 l 567 660 q 670 631 626 660 q 713 566 713 606 q 689 573 706 571 q 644 574 676 574 q 540 531 583 574 q 497 427 497 487 z "},"ఽ":{"ha":1017,"x_min":43,"x_max":992,"o":"m 992 107 l 275 107 q 175 135 219 107 q 135 190 135 158 q 168 265 137 236 q 246 294 193 291 q 473 357 381 298 q 566 510 566 420 q 485 699 566 627 q 279 775 399 775 q 123 719 186 775 q 60 583 60 664 q 110 485 60 528 q 229 441 163 441 q 354 493 309 441 q 407 613 407 541 l 395 669 q 462 600 440 640 q 487 520 487 563 q 420 420 487 461 q 253 381 357 381 q 106 325 173 381 q 43 192 43 271 q 109 44 44 106 q 263 -19 176 -19 l 988 -19 q 992 -17 991 -19 l 992 107 m 331 609 q 302 544 331 573 q 236 515 273 515 q 172 544 200 515 q 145 609 145 571 q 172 676 145 644 q 236 704 198 704 q 302 676 276 704 q 331 609 331 647 z "},"B":{"ha":707,"x_min":97,"x_max":656,"o":"m 97 0 l 97 700 l 369 700 q 570 637 517 700 q 617 515 617 584 q 566 392 617 432 q 514 364 548 379 q 618 305 580 349 q 656 195 656 261 q 596 56 656 112 q 404 0 537 0 l 97 0 m 216 410 l 365 410 q 494 497 494 410 q 463 569 494 547 q 367 591 432 591 l 216 591 l 216 410 m 216 109 l 401 109 q 503 131 470 109 q 536 208 536 153 q 387 301 536 301 l 216 301 l 216 109 z "},"బ":{"ha":849,"x_min":43,"x_max":825,"o":"m 109 56 q 269 0 175 0 q 372 21 322 0 q 444 79 421 44 q 513 21 471 40 q 609 0 558 0 q 763 86 702 0 q 825 295 825 170 q 757 517 825 427 q 591 609 689 609 l 521 609 l 521 521 l 591 521 q 696 458 653 521 q 739 305 739 397 q 702 147 739 206 q 600 87 663 87 q 527 119 558 87 q 495 192 495 150 l 495 262 l 408 262 l 408 216 q 367 126 408 163 q 269 87 326 87 q 172 119 212 87 q 130 192 130 149 q 163 265 130 229 q 243 314 195 301 q 338 372 304 331 q 374 470 374 417 q 328 567 374 525 q 216 609 279 609 q 106 567 152 609 q 62 470 62 527 l 62 435 l 147 435 l 147 460 q 166 510 147 490 q 216 530 189 530 q 266 513 245 530 q 286 470 286 493 q 259 408 286 435 q 192 374 233 381 q 84 312 125 362 q 43 192 43 261 q 109 56 43 113 z "},"భ":{"ha":869,"x_min":43,"x_max":845,"o":"m 610 609 l 587 609 l 587 670 q 601 700 587 687 q 639 713 616 713 l 845 713 l 845 800 l 606 800 q 530 770 560 800 q 500 696 500 740 l 500 609 l 427 609 l 427 521 l 581 521 q 693 458 647 521 q 739 305 739 395 q 702 147 739 206 q 600 87 663 87 q 527 119 558 87 q 495 192 495 150 l 495 262 l 408 262 l 408 216 q 367 126 408 163 q 269 87 326 87 q 172 119 212 87 q 130 192 130 149 q 163 265 130 229 q 243 314 195 301 q 338 372 304 331 q 374 470 374 417 q 328 567 374 525 q 216 609 279 609 q 106 567 152 609 q 62 470 62 527 l 62 435 l 147 435 l 147 460 q 166 510 147 490 q 216 530 189 530 q 266 513 245 530 q 286 470 286 493 q 259 408 286 435 q 192 374 233 381 q 84 312 125 362 q 43 192 43 261 q 109 56 43 113 q 269 0 175 0 q 372 21 322 0 q 444 79 421 44 q 510 21 471 40 q 600 0 550 0 q 759 90 693 0 q 825 305 825 178 q 753 520 825 428 q 610 607 692 597 l 610 609 m 487 -175 l 487 0 l 399 0 l 399 -175 l 487 -175 z "},"C":{"ha":737,"x_min":52,"x_max":700,"o":"m 614 193 l 690 116 q 421 -9 581 -9 q 157 94 262 -9 q 52 352 52 196 q 159 614 52 510 q 430 717 266 717 q 700 597 590 717 l 626 515 q 531 583 576 564 q 427 601 487 601 q 247 533 319 601 q 175 358 175 464 q 246 180 175 253 q 417 107 318 107 q 520 127 477 107 q 614 193 564 147 z "},"\r":{"ha":275,"x_min":0,"x_max":0,"o":""},"చ":{"ha":938,"x_min":14,"x_max":914,"o":"m 651 679 q 663 702 651 693 q 687 713 674 713 l 914 713 l 914 800 l 651 800 q 591 775 616 800 q 566 713 566 749 l 566 609 l 407 609 q 388 617 394 611 q 381 636 381 629 l 381 713 l 294 713 l 294 627 q 319 551 294 594 q 381 521 345 521 l 570 521 q 717 458 654 521 q 779 305 779 395 q 736 150 779 215 q 631 87 693 87 q 551 126 586 87 q 517 216 517 165 l 517 262 l 431 262 l 431 216 q 395 126 431 162 q 309 87 358 87 q 223 120 261 87 q 188 200 188 155 q 213 281 188 249 q 273 314 238 314 l 362 314 l 362 399 l 14 399 l 14 314 l 145 314 q 112 256 122 286 q 100 192 100 225 q 159 56 100 112 q 301 0 216 0 q 398 21 352 0 q 465 79 441 40 q 536 21 491 43 q 631 0 583 0 q 799 90 727 0 q 866 305 866 179 q 779 520 866 431 q 651 597 723 577 l 651 679 z "},"ౘ":{"ha":938,"x_min":14,"x_max":914,"o":"m 626 921 q 583 939 601 921 q 566 982 566 956 q 584 1038 566 1015 q 634 1061 606 1061 q 683 1038 664 1061 q 703 982 703 1014 q 680 939 703 956 q 626 921 660 921 m 634 852 q 739 892 697 852 q 782 991 782 934 q 740 1090 782 1048 q 641 1131 699 1131 q 538 1092 581 1131 q 495 999 495 1054 q 501 949 495 962 q 513 921 504 928 l 24 921 l 24 852 l 634 852 m 651 679 q 663 702 651 693 q 687 713 674 713 l 914 713 l 914 800 l 651 800 q 591 775 616 800 q 566 713 566 749 l 566 609 l 407 609 q 388 617 394 611 q 381 636 381 629 l 381 713 l 294 713 l 294 627 q 319 551 294 594 q 381 521 345 521 l 570 521 q 717 458 654 521 q 779 305 779 395 q 736 150 779 215 q 631 87 693 87 q 551 126 586 87 q 517 216 517 165 l 517 262 l 431 262 l 431 216 q 395 126 431 162 q 309 87 358 87 q 223 120 261 87 q 188 200 188 155 q 213 281 188 249 q 273 314 238 314 l 362 314 l 362 399 l 14 399 l 14 314 l 145 314 q 112 256 122 286 q 100 192 100 225 q 159 56 100 112 q 301 0 216 0 q 398 21 352 0 q 465 79 441 40 q 536 21 491 43 q 631 0 583 0 q 799 90 727 0 q 866 305 866 179 q 779 520 866 431 q 651 597 723 577 l 651 679 z "},"Ç":{"ha":737,"x_min":52,"x_max":700,"o":"m 614 193 l 690 116 q 437 -7 587 -1 l 420 -39 q 490 -117 490 -47 q 459 -184 490 -156 q 381 -212 428 -212 q 296 -190 329 -212 l 322 -133 q 362 -143 341 -143 q 392 -132 381 -143 q 402 -105 402 -122 q 391 -75 402 -87 q 362 -63 379 -63 q 332 -69 349 -63 l 365 -6 q 139 112 226 13 q 52 359 52 212 q 160 614 52 511 q 430 717 268 717 q 700 597 590 717 l 626 515 q 531 583 576 564 q 427 601 487 601 q 247 533 319 601 q 175 358 175 464 q 246 180 175 253 q 417 107 318 107 q 520 127 477 107 q 614 193 564 147 z "},"ఛ":{"ha":938,"x_min":14,"x_max":914,"o":"m 651 679 q 663 702 651 693 q 687 713 674 713 l 914 713 l 914 800 l 651 800 q 591 775 616 800 q 566 713 566 749 l 566 609 l 407 609 q 388 617 394 611 q 381 636 381 629 l 381 713 l 294 713 l 294 627 q 319 551 294 594 q 381 521 345 521 l 570 521 q 717 458 654 521 q 779 305 779 395 q 736 150 779 215 q 631 87 693 87 q 551 126 586 87 q 517 216 517 165 l 517 262 l 431 262 l 431 216 q 395 126 431 162 q 309 87 358 87 q 223 120 261 87 q 188 200 188 155 q 213 281 188 249 q 273 314 238 314 l 362 314 l 362 399 l 14 399 l 14 314 l 145 314 q 112 256 122 286 q 100 192 100 225 q 159 56 100 112 q 301 0 216 0 q 398 21 352 0 q 465 79 441 40 q 536 21 491 43 q 631 0 583 0 q 799 90 727 0 q 866 305 866 179 q 779 520 866 431 q 651 597 723 577 l 651 679 m 517 -175 l 517 0 l 431 0 l 431 -175 l 517 -175 z "},"D":{"ha":783,"x_min":97,"x_max":729,"o":"m 338 700 q 627 609 525 700 q 729 354 729 518 q 629 93 729 186 q 329 0 528 0 l 97 0 l 97 700 l 338 700 m 334 591 l 216 591 l 216 112 l 347 112 q 543 173 475 112 q 610 351 610 233 q 334 591 610 591 z "},"డ":{"ha":909,"x_min":43,"x_max":885,"o":"m 623 679 q 634 702 623 693 q 659 713 646 713 l 885 713 l 885 800 l 623 800 q 563 775 587 800 q 537 713 537 749 l 537 609 l 378 609 q 359 617 365 611 q 352 636 352 629 l 352 713 l 265 713 l 265 627 q 271 597 265 610 q 135 513 195 576 q 43 278 43 417 q 113 80 43 163 q 279 0 180 0 q 381 21 331 0 q 457 79 430 44 q 527 21 478 43 q 641 0 576 0 q 792 56 730 0 q 853 192 853 113 q 806 302 853 258 q 687 348 756 348 q 581 312 626 348 q 538 226 538 275 l 631 226 q 649 251 631 241 q 687 262 664 262 q 742 242 719 262 q 765 192 765 221 q 729 119 765 149 q 641 87 693 87 q 541 123 581 87 q 500 209 500 160 l 500 262 l 414 262 l 414 200 q 374 120 414 155 q 279 87 334 87 q 173 143 218 87 q 130 278 130 199 q 198 450 130 378 q 355 521 262 521 l 759 521 l 759 609 l 623 609 l 623 679 z "},"ఢ":{"ha":909,"x_min":43,"x_max":885,"o":"m 623 679 q 634 702 623 693 q 659 713 646 713 l 885 713 l 885 800 l 623 800 q 563 775 587 800 q 537 713 537 749 l 537 609 l 378 609 q 359 617 365 611 q 352 636 352 629 l 352 713 l 265 713 l 265 627 q 271 597 265 610 q 135 513 195 576 q 43 278 43 417 q 113 80 43 163 q 279 0 180 0 q 381 21 331 0 q 457 79 430 44 q 527 21 478 43 q 641 0 576 0 q 792 56 730 0 q 853 192 853 113 q 806 302 853 258 q 687 348 756 348 q 581 312 626 348 q 538 226 538 275 l 631 226 q 649 251 631 241 q 687 262 664 262 q 742 242 719 262 q 765 192 765 221 q 729 119 765 149 q 641 87 693 87 q 541 123 581 87 q 500 209 500 160 l 500 262 l 414 262 l 414 200 q 374 120 414 155 q 279 87 334 87 q 173 143 218 87 q 130 278 130 199 q 198 450 130 378 q 355 521 262 521 l 759 521 l 759 609 l 623 609 l 623 679 m 503 -175 l 503 0 l 410 0 l 410 -175 l 503 -175 z "},"।":{"ha":351,"x_min":179,"x_max":266,"o":"m 266 -53 l 266 653 l 179 653 l 179 -53 l 266 -53 z "},"॥":{"ha":629,"x_min":179,"x_max":544,"o":"m 544 -53 l 544 653 l 457 653 l 457 -53 l 544 -53 m 266 -53 l 266 653 l 179 653 l 179 -53 l 266 -53 z "},"ద":{"ha":896,"x_min":43,"x_max":872,"o":"m 610 687 q 621 710 610 702 q 646 722 633 722 l 872 722 l 872 809 l 610 809 q 550 785 574 809 q 524 722 524 756 l 524 617 l 365 617 q 348 627 357 619 q 341 644 341 637 l 341 722 l 252 722 l 252 636 q 268 590 252 610 q 150 521 199 566 q 43 262 43 422 q 109 77 43 153 q 269 0 175 0 q 367 23 322 0 q 435 87 412 46 q 510 23 460 46 q 627 0 557 0 q 766 77 707 0 q 825 262 825 156 q 720 521 825 427 q 610 587 679 561 l 610 687 m 355 119 q 269 87 319 87 q 172 137 213 87 q 130 262 130 192 q 213 450 130 379 q 434 521 296 521 q 650 450 566 521 q 730 262 730 378 q 693 137 730 192 q 600 87 651 87 q 514 119 550 87 q 478 192 478 149 l 478 262 l 391 262 l 391 192 q 355 119 391 149 z "},"∆":{"ha":792,"x_min":30,"x_max":762,"o":"m 452 700 l 762 0 l 30 0 l 339 700 l 452 700 m 206 112 l 586 109 l 397 537 l 206 112 z "},"ధ":{"ha":896,"x_min":43,"x_max":872,"o":"m 610 687 q 621 710 610 702 q 646 722 633 722 l 872 722 l 872 809 l 610 809 q 550 785 574 809 q 524 722 524 756 l 524 617 l 365 617 q 348 627 357 619 q 341 644 341 637 l 341 722 l 252 722 l 252 636 q 268 590 252 610 q 150 521 199 566 q 43 262 43 422 q 109 77 43 153 q 269 0 175 0 q 367 23 322 0 q 435 87 412 46 q 510 23 460 46 q 627 0 557 0 q 766 77 707 0 q 825 262 825 156 q 720 521 825 427 q 610 587 679 561 l 610 687 m 478 -175 l 478 0 l 391 0 l 391 -175 l 478 -175 m 355 119 q 269 87 319 87 q 172 137 213 87 q 130 262 130 192 q 213 450 130 379 q 434 521 296 521 q 650 450 566 521 q 730 262 730 378 q 693 137 730 192 q 600 87 651 87 q 514 119 550 87 q 478 192 478 149 l 478 262 l 391 262 l 391 192 q 355 119 391 149 z "},"E":{"ha":656,"x_min":97,"x_max":601,"o":"m 590 700 l 590 590 l 216 590 l 216 404 l 551 404 l 551 299 l 216 299 l 216 112 l 601 112 l 601 0 l 97 0 l 97 700 l 590 700 z "},"ఏ":{"ha":806,"x_min":43,"x_max":782,"o":"m 341 521 l 314 521 q 233 550 266 521 q 200 617 200 578 q 221 673 200 649 q 271 696 242 696 l 374 696 l 374 782 l 262 782 q 156 737 200 782 q 113 627 113 693 q 163 491 113 547 q 286 435 212 435 l 341 435 l 341 521 m 235 79 q 162 109 192 79 q 130 183 130 140 q 162 249 130 222 q 235 278 193 278 q 302 249 273 278 q 331 183 331 221 q 302 109 331 142 q 235 79 275 79 m 235 0 q 309 16 271 0 q 374 62 345 33 q 441 16 394 33 q 548 0 488 0 q 714 95 643 0 q 782 322 782 188 q 699 550 782 457 q 495 643 614 643 l 408 643 l 408 557 l 470 557 q 623 485 560 557 q 687 314 687 415 q 644 155 687 221 q 538 87 599 87 q 455 102 490 87 q 408 140 418 117 q 417 192 417 160 q 364 308 417 259 q 235 357 311 357 q 99 306 155 357 q 43 183 43 258 q 99 54 43 109 q 235 0 158 0 z "},"ే":{"ha":0,"x_min":-358,"x_max":324,"o":"m 324 660 q 288 759 324 719 q 202 800 251 800 l 202 835 q 213 859 202 848 q 236 871 222 871 l 306 871 l 306 956 l 202 956 q 140 931 166 956 q 115 871 115 908 l 115 800 l -358 800 l -358 713 l 185 713 q 222 699 208 713 q 236 660 236 683 q 222 623 236 637 q 185 609 208 609 l -200 609 l -200 521 l 202 521 q 288 563 251 521 q 324 660 324 603 z "},"É":{"ha":656,"x_min":97,"x_max":601,"o":"m 590 700 l 590 590 l 216 590 l 216 404 l 551 404 l 551 299 l 216 299 l 216 112 l 601 112 l 601 0 l 97 0 l 97 700 l 590 700 m 397 759 l 295 759 l 401 903 l 520 855 l 397 759 z "},"Ê":{"ha":656,"x_min":97,"x_max":601,"o":"m 292 893 l 397 893 l 518 759 l 421 759 l 344 815 l 266 759 l 169 759 l 292 893 m 590 700 l 590 590 l 216 590 l 216 404 l 551 404 l 551 299 l 216 299 l 216 112 l 601 112 l 601 0 l 97 0 l 97 700 l 590 700 z "},"Ë":{"ha":656,"x_min":97,"x_max":601,"o":"m 190 818 q 209 860 190 842 q 252 878 228 878 q 296 861 278 878 q 314 818 314 843 q 296 773 314 792 q 252 755 278 755 q 208 773 226 755 q 190 818 190 792 m 377 818 q 394 860 377 842 q 438 878 412 878 q 482 861 464 878 q 500 818 500 843 q 482 773 500 792 q 438 755 464 755 q 394 773 412 755 q 377 818 377 792 m 590 700 l 590 590 l 216 590 l 216 404 l 551 404 l 551 299 l 216 299 l 216 112 l 601 112 l 601 0 l 97 0 l 97 700 l 590 700 z "},"È":{"ha":656,"x_min":97,"x_max":601,"o":"m 422 759 l 319 759 l 198 855 l 316 903 l 422 759 m 590 700 l 590 590 l 216 590 l 216 404 l 551 404 l 551 299 l 216 299 l 216 112 l 601 112 l 601 0 l 97 0 l 97 700 l 590 700 z "},"Ð":{"ha":792,"x_min":26,"x_max":737,"o":"m 26 295 l 26 399 l 106 399 l 106 700 l 345 700 q 635 609 533 700 q 737 354 737 518 q 636 93 737 186 q 338 0 536 0 l 106 0 l 106 295 l 26 295 m 342 591 l 223 591 l 223 399 l 474 399 l 474 295 l 223 295 l 223 112 l 355 112 q 550 173 483 112 q 617 351 617 233 q 342 591 617 591 z "},"€":{"ha":763,"x_min":52,"x_max":717,"o":"m 52 394 l 52 480 l 156 480 q 273 652 189 587 q 465 717 358 717 q 717 603 626 717 l 646 513 q 562 578 601 560 q 465 597 523 597 q 360 566 407 597 q 291 480 314 536 l 530 480 l 530 394 l 269 394 l 269 358 q 272 311 269 325 l 530 311 l 530 225 l 299 225 q 462 120 354 120 q 554 140 515 120 q 637 206 593 160 l 707 119 q 462 4 616 4 q 278 63 358 4 q 162 225 198 122 l 52 225 l 52 311 l 142 311 q 139 359 139 342 q 140 394 139 387 l 52 394 z "},"F":{"ha":606,"x_min":97,"x_max":564,"o":"m 216 590 l 216 398 l 527 398 l 527 289 l 216 289 l 216 0 l 97 0 l 97 700 l 564 700 l 563 590 l 216 590 z "},"G":{"ha":759,"x_min":52,"x_max":700,"o":"m 583 341 l 700 341 l 700 102 q 417 -9 601 -9 q 156 95 261 -9 q 52 352 52 198 q 158 612 52 507 q 417 717 265 717 q 669 630 568 717 l 606 540 q 427 601 533 601 q 247 532 319 601 q 175 352 175 462 q 244 174 175 242 q 417 106 314 106 q 583 149 517 106 l 583 341 z "},"గ":{"ha":845,"x_min":43,"x_max":820,"o":"m 558 679 q 570 702 558 693 q 594 713 581 713 l 820 713 l 820 800 l 558 800 q 498 775 521 800 q 473 713 473 749 l 473 609 l 314 609 q 295 617 301 611 q 288 636 288 629 l 288 713 l 200 713 l 200 627 q 222 574 200 599 q 140 517 176 553 q 43 295 43 424 q 109 86 43 173 q 266 0 173 0 l 266 87 q 166 149 206 87 q 126 295 126 208 q 199 455 126 389 q 377 521 271 521 q 556 455 481 521 q 629 295 629 389 q 586 142 629 206 q 484 79 544 79 l 484 0 q 641 86 577 0 q 706 295 706 172 q 609 517 706 424 q 558 557 588 537 l 558 679 z "},"ఘ":{"ha":1241,"x_min":43,"x_max":1217,"o":"m 417 -175 l 417 0 l 331 0 l 331 -175 l 417 -175 m 729 110 q 793 44 756 70 q 938 0 859 0 q 1135 90 1054 0 q 1217 305 1217 178 q 1144 520 1217 432 q 965 609 1071 609 l 939 609 l 939 521 l 974 521 q 1085 458 1040 521 q 1130 305 1130 398 q 1074 150 1130 212 q 938 87 1018 87 q 815 137 869 87 q 770 196 786 166 q 782 286 782 242 q 707 514 782 422 q 523 609 630 609 l 408 609 l 408 521 l 514 521 q 637 458 587 521 q 687 305 687 395 q 639 150 687 213 q 523 87 591 87 q 452 102 483 87 q 408 140 424 116 q 417 192 417 160 q 364 308 417 259 q 235 357 311 357 q 99 306 155 357 q 43 183 43 258 q 99 54 43 109 q 235 0 158 0 q 309 16 271 0 q 374 62 345 33 q 442 16 402 33 q 530 0 485 0 q 709 84 633 0 q 729 110 723 102 m 236 521 l 236 679 q 248 702 236 693 q 271 713 256 713 l 477 713 l 477 800 l 236 800 q 173 775 199 800 q 149 713 149 750 l 149 609 l 44 609 l 44 521 l 236 521 m 302 109 q 235 79 275 79 q 162 109 192 79 q 130 183 130 140 q 162 249 130 222 q 235 278 193 278 q 302 249 273 278 q 331 183 331 221 q 302 109 331 142 z "},"H":{"ha":779,"x_min":97,"x_max":682,"o":"m 97 0 l 97 700 l 216 700 l 216 397 l 563 397 l 563 700 l 682 700 l 682 0 l 563 0 l 563 286 l 216 286 l 216 0 l 97 0 z "},"హ":{"ha":1181,"x_min":43,"x_max":1157,"o":"m 99 54 q 235 0 158 0 q 309 16 271 0 q 374 62 345 33 q 442 16 401 33 q 538 0 487 0 q 710 84 639 0 q 782 286 782 169 q 759 424 782 359 q 696 521 735 488 l 922 521 q 1001 493 965 521 q 1044 417 1037 462 q 982 435 1015 435 q 878 392 921 435 q 835 286 835 349 q 882 170 835 221 q 1001 122 931 122 q 1111 180 1065 122 q 1157 322 1157 242 q 1094 524 1157 440 q 939 609 1029 609 l 408 609 l 408 521 l 514 521 q 637 458 587 521 q 687 305 687 395 q 639 150 687 213 q 523 87 591 87 q 452 102 483 87 q 408 140 424 116 q 417 192 417 160 q 364 308 417 259 q 235 357 311 357 q 99 306 155 357 q 43 183 43 258 q 99 54 43 109 m 236 521 l 236 679 q 248 702 236 693 q 271 713 256 713 l 477 713 l 477 800 l 236 800 q 173 775 199 800 q 149 713 149 750 l 149 609 l 44 609 l 44 521 l 236 521 m 1042 229 q 992 209 1019 209 q 942 229 965 209 q 922 278 922 249 q 942 328 922 305 q 992 348 965 348 q 1042 328 1019 348 q 1061 278 1061 308 q 1042 229 1061 248 m 302 109 q 235 79 275 79 q 162 109 192 79 q 130 183 130 140 q 162 249 130 222 q 235 278 193 278 q 302 249 273 278 q 331 183 331 221 q 302 109 331 142 z "},"్":{"ha":0,"x_min":-198,"x_max":341,"o":"m -198 818 q -183 772 -198 795 q -146 730 -172 752 q -183 689 -170 714 q -198 636 -198 666 q -165 560 -198 593 q -84 530 -132 530 l 125 530 l 125 609 l -84 609 q -103 616 -96 609 q -110 636 -110 626 q -97 666 -110 653 q -67 679 -84 679 l 219 679 l 219 765 l -67 765 q -97 775 -86 765 q -110 800 -110 785 q -97 823 -110 815 q -67 835 -83 835 l 341 835 l 341 922 l -103 922 q -169 892 -140 922 q -198 818 -198 859 z "},"I":{"ha":312,"x_min":97,"x_max":216,"o":"m 97 700 l 216 700 l 216 0 l 97 0 l 97 700 z "},"ఈ":{"ha":1213,"x_min":14,"x_max":1188,"o":"m 1024 87 q 974 107 997 87 q 954 156 954 127 q 971 213 954 186 q 1015 262 984 238 q 1058 305 1032 272 q 1090 251 1078 282 q 1101 192 1101 221 q 1078 119 1101 150 q 1024 87 1055 87 m 241 435 q 315 505 261 481 q 445 530 368 530 q 593 505 534 530 q 674 435 654 480 l 241 435 m 465 87 q 281 149 357 87 q 206 295 206 209 q 212 348 206 335 l 700 348 q 709 295 709 311 q 637 149 709 209 q 465 87 567 87 m 474 0 q 702 90 607 0 q 796 305 796 180 l 796 348 l 945 348 q 979 338 961 348 q 896 255 922 299 q 866 156 866 206 q 915 44 866 92 q 1032 0 964 0 q 1144 54 1097 0 q 1188 183 1188 107 q 1167 292 1188 243 q 1110 365 1148 341 q 1137 412 1128 385 q 1145 470 1145 438 q 1104 567 1145 525 q 1007 609 1062 609 q 908 573 948 609 q 866 487 866 536 l 954 487 q 966 510 954 501 q 997 521 981 521 q 1040 507 1024 521 q 1058 470 1058 493 q 1052 435 1058 448 q 1040 408 1050 418 q 997 428 1024 422 q 936 435 968 435 l 779 435 q 679 560 752 511 q 517 609 606 609 l 517 670 q 534 700 517 687 q 571 713 550 713 l 779 713 l 779 800 l 510 800 q 455 777 478 800 q 431 722 431 753 l 431 609 l 362 609 q 324 620 342 609 q 309 643 309 629 l 309 713 l 222 713 l 222 617 q 231 596 222 607 q 258 574 238 588 q 186 521 215 556 q 136 435 156 488 l 14 435 l 14 348 l 119 348 l 119 286 q 222 84 119 169 q 474 0 328 0 z "},"ీ":{"ha":0,"x_min":-182,"x_max":218,"o":"m -42 730 q -80 743 -63 730 q -95 773 -95 756 q -80 806 -95 792 q -42 818 -62 818 q -1 806 -17 818 q 17 773 17 792 q -1 743 17 756 q -42 730 -17 730 m 1 521 q 155 577 93 521 q 218 713 218 633 q 156 849 218 792 q 10 903 95 903 q 1 939 1 921 q 16 971 1 958 q 53 982 32 982 q 96 971 76 982 q 113 939 113 958 l 202 939 q 159 1031 202 994 q 53 1068 113 1068 q -46 1031 -4 1068 q -87 939 -87 994 q -77 895 -87 919 q -153 852 -123 888 q -182 773 -182 816 q -140 693 -182 727 q -42 660 -99 660 q 54 696 17 660 q 96 782 96 733 q 123 753 113 772 q 132 713 132 736 q 95 639 132 672 q 1 609 54 609 l -95 609 l -95 521 l 1 521 z "},"Í":{"ha":312,"x_min":97,"x_max":328,"o":"m 97 700 l 216 700 l 216 0 l 97 0 l 97 700 m 206 759 l 103 759 l 209 903 l 328 855 l 206 759 z "},"Î":{"ha":312,"x_min":-7,"x_max":342,"o":"m 97 700 l 216 700 l 216 0 l 97 0 l 97 700 m 116 893 l 219 893 l 342 759 l 245 759 l 168 815 l 90 759 l -7 759 l 116 893 z "},"Ï":{"ha":312,"x_min":3,"x_max":312,"o":"m 3 818 q 20 860 3 842 q 64 878 37 878 q 108 861 90 878 q 126 818 126 843 q 108 773 126 792 q 64 755 90 755 q 21 773 39 755 q 3 818 3 792 m 189 818 q 207 860 189 842 q 251 878 225 878 q 294 861 276 878 q 312 818 312 843 q 293 773 312 792 q 249 755 273 755 q 207 773 225 755 q 189 818 189 792 m 97 700 l 216 700 l 216 0 l 97 0 l 97 700 z "},"Ì":{"ha":312,"x_min":-16,"x_max":216,"o":"m 209 759 l 107 759 l -16 855 l 103 903 l 209 759 m 97 700 l 216 700 l 216 0 l 97 0 l 97 700 z "},"ి":{"ha":0,"x_min":-173,"x_max":226,"o":"m -33 730 q -72 743 -54 730 q -86 773 -86 756 q -72 806 -86 792 q -33 818 -53 818 q 7 806 -9 818 q 26 773 26 792 q 7 743 26 756 q -33 730 -7 730 m 0 521 q 160 577 95 521 q 226 713 226 634 q 160 849 226 793 q 0 903 96 903 q -123 866 -73 903 q -173 773 -173 829 q -136 693 -173 725 q -43 660 -99 660 q 62 696 20 660 q 105 782 105 733 q 132 753 122 772 q 140 713 140 736 q 99 639 140 672 q 0 609 57 609 l -86 609 l -86 521 l 0 521 z "},"Ĩ":{"ha":312,"x_min":-11,"x_max":321,"o":"m 97 700 l 216 700 l 216 0 l 97 0 l 97 700 m 156 780 q 96 803 107 803 q 62 759 64 803 l -11 759 q 12 853 -11 818 q 77 889 36 889 q 152 866 102 889 q 216 842 203 842 q 246 886 246 842 l 321 886 q 229 756 319 756 q 156 780 200 756 z "},"J":{"ha":553,"x_min":32,"x_max":461,"o":"m 120 594 l 120 700 l 461 700 l 461 239 q 401 57 461 120 q 239 -6 341 -6 q 32 80 117 -6 l 99 173 q 232 109 166 109 q 311 140 279 109 q 342 232 342 172 l 342 594 l 120 594 z "},"జ":{"ha":849,"x_min":43,"x_max":825,"o":"m 112 56 q 278 0 180 0 q 374 21 326 0 q 444 79 421 44 q 515 21 471 40 q 617 0 561 0 q 772 52 719 0 q 825 200 825 103 q 818 256 825 231 q 800 295 813 281 l 703 295 q 730 251 722 275 q 739 200 739 226 q 703 120 739 155 q 617 87 666 87 q 531 119 567 87 q 495 192 495 149 l 495 262 l 408 262 l 408 216 q 367 126 408 163 q 269 87 326 87 q 172 119 212 87 q 130 192 130 149 q 163 265 130 229 q 243 314 192 298 q 305 342 275 322 q 348 384 329 359 q 438 331 392 347 q 548 314 485 314 q 684 358 631 314 q 739 470 739 402 q 702 567 739 525 q 609 609 663 609 l 548 609 l 548 521 l 591 521 q 634 507 616 521 q 651 470 651 493 q 616 420 651 441 q 530 399 578 399 q 435 417 475 399 q 374 470 395 435 q 328 567 374 525 q 216 609 279 609 q 106 567 152 609 q 62 470 62 527 l 62 435 l 147 435 l 147 460 q 166 510 147 490 q 216 530 189 530 q 266 513 245 530 q 286 470 286 493 q 259 408 286 435 q 192 374 233 381 q 84 312 125 362 q 43 192 43 261 q 112 56 43 115 z "},"ౙ":{"ha":849,"x_min":43,"x_max":825,"o":"m 654 803 q 611 822 630 803 q 594 865 594 839 q 613 921 594 898 q 663 944 634 944 q 712 921 693 944 q 732 865 732 896 q 709 822 732 839 q 654 803 689 803 m 663 735 q 767 775 726 735 q 810 873 810 816 q 769 972 810 931 q 670 1014 727 1014 q 567 975 610 1014 q 524 882 524 936 q 530 832 524 845 q 541 803 533 810 l 53 803 l 53 735 l 663 735 m 112 56 q 278 0 180 0 q 374 21 326 0 q 444 79 421 44 q 515 21 471 40 q 617 0 561 0 q 772 52 719 0 q 825 200 825 103 q 818 256 825 231 q 800 295 813 281 l 703 295 q 730 251 722 275 q 739 200 739 226 q 703 120 739 155 q 617 87 666 87 q 531 119 567 87 q 495 192 495 149 l 495 262 l 408 262 l 408 216 q 367 126 408 163 q 269 87 326 87 q 172 119 212 87 q 130 192 130 149 q 163 265 130 229 q 243 314 192 298 q 305 342 275 322 q 348 384 329 359 q 438 331 392 347 q 548 314 485 314 q 684 358 631 314 q 739 470 739 402 q 702 567 739 525 q 609 609 663 609 l 548 609 l 548 521 l 591 521 q 634 507 616 521 q 651 470 651 493 q 616 420 651 441 q 530 399 578 399 q 435 417 475 399 q 374 470 395 435 q 328 567 374 525 q 216 609 279 609 q 106 567 152 609 q 62 470 62 527 l 62 435 l 147 435 l 147 460 q 166 510 147 490 q 216 530 189 530 q 266 513 245 530 q 286 470 286 493 q 259 408 286 435 q 192 374 233 381 q 84 312 125 362 q 43 192 43 261 q 112 56 43 115 z "},"Ĵ":{"ha":553,"x_min":32,"x_max":467,"o":"m 120 594 l 120 700 l 461 700 l 461 239 q 401 57 461 120 q 239 -6 341 -6 q 32 80 117 -6 l 99 173 q 232 109 166 109 q 311 140 279 109 q 342 232 342 172 l 342 594 l 120 594 m 241 893 l 345 893 l 467 759 l 369 759 l 292 815 l 216 759 l 119 759 l 241 893 z "},"ఝ":{"ha":1608,"x_min":43,"x_max":1584,"o":"m 314 609 q 295 617 301 611 q 288 636 288 629 l 288 713 l 200 713 l 200 627 q 223 573 200 596 q 143 517 179 550 q 43 295 43 425 q 143 86 43 173 q 384 0 242 0 q 624 86 530 0 q 653 115 624 86 q 720 47 674 77 q 879 0 792 0 q 1071 90 999 0 l 1092 117 q 1160 44 1118 76 q 1304 0 1226 0 q 1502 90 1420 0 q 1584 305 1584 180 q 1511 520 1584 432 q 1332 609 1438 609 l 1307 609 l 1307 521 l 1340 521 q 1452 458 1406 521 q 1496 305 1496 398 q 1440 150 1496 212 q 1304 87 1385 87 q 1181 137 1236 87 q 1134 202 1151 166 q 1150 305 1150 253 q 1081 520 1150 432 q 915 609 1012 609 l 836 609 l 836 521 l 915 521 q 1018 458 975 521 q 1061 305 1061 394 q 1007 150 1061 213 q 873 87 952 87 q 749 140 806 87 q 704 200 717 172 q 722 305 722 248 q 623 520 722 430 q 558 566 590 547 l 558 679 q 570 702 558 693 q 594 713 581 713 l 820 713 l 820 800 l 558 800 q 498 775 521 800 q 473 713 473 749 l 473 609 l 314 609 m 1131 -175 l 1131 0 l 1044 0 l 1044 -175 l 1131 -175 m 563 150 q 384 87 490 87 q 205 150 281 87 q 130 305 130 215 q 205 458 130 394 q 384 521 281 521 q 563 458 490 521 q 636 305 636 397 q 563 150 636 212 z "},"K":{"ha":706,"x_min":97,"x_max":690,"o":"m 97 700 l 216 700 l 216 359 l 537 700 l 686 700 l 405 394 l 690 0 l 550 0 l 318 306 l 216 196 l 216 0 l 97 0 l 97 700 z "},"క":{"ha":833,"x_min":43,"x_max":809,"o":"m 548 687 q 558 710 548 702 q 584 722 570 722 l 809 722 l 809 809 l 548 809 q 487 785 514 809 q 462 722 462 756 l 462 617 l 302 617 q 285 627 294 619 q 278 644 278 637 l 278 722 l 190 722 l 190 636 q 212 583 190 607 q 178 564 190 573 q 95 435 95 511 q 149 336 95 378 q 278 295 203 295 l 494 295 q 580 271 543 295 q 616 209 616 245 q 550 127 616 158 q 372 97 484 97 q 200 129 269 97 q 129 209 129 163 l 43 209 q 133 57 43 115 q 372 0 222 0 q 616 56 527 0 q 703 209 703 112 q 649 336 703 286 q 503 384 596 384 l 286 384 q 212 401 243 384 q 180 444 180 420 q 236 498 180 477 q 371 521 291 521 q 503 495 450 521 q 564 435 558 471 l 651 435 q 571 564 651 518 l 548 577 l 548 687 z "},"॓":{"ha":727,"x_min":43,"x_max":703,"o":"m 460 617 l 251 617 q 233 624 241 617 q 226 644 226 636 q 238 674 226 663 q 269 687 251 687 l 556 687 l 556 773 l 269 773 q 238 785 252 773 q 226 809 226 796 q 238 832 226 823 q 269 843 252 843 l 677 843 l 677 931 l 233 931 q 166 901 195 931 q 137 828 137 869 q 152 780 137 803 q 190 739 163 759 q 152 699 166 725 q 137 644 137 674 q 170 570 137 603 q 176 564 170 570 q 95 435 95 510 q 149 336 95 378 q 278 295 203 295 l 494 295 q 580 271 543 295 q 616 209 616 245 q 550 127 616 158 q 372 97 484 97 q 200 129 269 97 q 129 209 129 163 l 43 209 q 133 50 43 110 q 372 -9 221 -9 q 616 49 531 -9 q 703 209 703 106 q 649 336 703 286 q 503 384 596 384 l 286 384 q 212 401 243 384 q 180 444 180 420 q 236 498 180 477 q 371 521 291 521 q 503 495 450 521 q 564 435 558 471 l 651 435 q 571 564 651 510 q 460 609 524 596 l 460 617 z "},"ఖ":{"ha":833,"x_min":43,"x_max":809,"o":"m 460 -175 l 460 0 l 374 0 l 374 -175 l 460 -175 m 99 56 q 235 0 155 0 q 329 26 284 0 q 399 95 374 49 q 478 26 430 49 q 581 0 527 0 q 746 86 686 0 q 809 314 809 173 q 736 553 809 455 q 557 653 662 653 l 503 653 l 503 566 l 548 566 q 672 488 620 566 q 722 305 722 412 q 679 150 722 212 q 573 87 636 87 q 487 120 528 87 q 435 200 451 150 q 444 314 444 221 q 387 528 444 450 q 235 609 328 609 q 99 564 153 609 q 43 452 43 518 l 43 435 l 130 435 q 162 495 130 470 q 235 521 195 521 q 322 471 289 521 q 357 338 357 421 q 305 372 335 359 q 243 384 275 384 q 102 328 159 384 q 43 192 43 272 q 99 56 43 112 m 308 119 q 235 87 278 87 q 162 119 193 87 q 130 192 130 150 q 162 265 130 235 q 235 295 192 295 q 308 265 278 295 q 338 192 338 235 q 308 119 338 149 z "},"‌":{"ha":336,"x_min":253,"x_max":341,"o":"m 341 -16 l 341 956 l 253 956 l 253 -16 l 341 -16 z "},"L":{"ha":567,"x_min":97,"x_max":536,"o":"m 97 0 l 97 700 l 216 700 l 216 112 l 536 112 l 536 0 l 97 0 z "},"ళ":{"ha":855,"x_min":43,"x_max":830,"o":"m 573 609 l 573 670 q 587 700 573 687 q 624 713 601 713 l 830 713 l 830 800 l 591 800 q 515 770 546 800 q 485 696 485 740 l 485 609 l 412 609 l 412 521 l 651 521 q 702 501 679 521 q 722 452 722 481 q 689 378 722 411 q 609 348 656 348 q 452 374 501 374 q 288 338 368 374 q 209 352 242 338 q 165 392 178 367 q 226 384 190 384 q 306 414 275 384 q 341 487 341 444 q 302 573 341 536 q 209 609 265 609 q 92 566 140 609 q 43 460 43 521 q 95 344 43 392 q 226 286 147 295 q 193 241 205 266 q 183 183 183 215 q 262 54 183 107 q 452 0 342 0 q 643 54 563 0 q 722 183 722 107 q 710 242 722 212 q 679 286 700 266 q 772 344 733 296 q 809 452 809 392 q 763 564 809 518 q 651 609 719 609 l 573 609 m 238 455 q 200 444 222 444 q 163 455 179 444 q 149 478 149 464 q 163 508 149 495 q 200 521 179 521 q 238 508 223 521 q 252 478 252 495 q 238 455 252 464 m 586 113 q 452 87 536 87 q 321 113 369 87 q 271 183 271 142 q 321 252 271 226 q 452 278 369 278 q 586 252 536 278 q 636 183 636 226 q 586 113 636 142 z "},"ౡ":{"ha":1555,"x_min":43,"x_max":1531,"o":"m 1357 209 q 1307 229 1330 209 q 1287 278 1287 249 q 1307 328 1287 305 q 1357 348 1330 348 q 1408 328 1385 348 q 1426 278 1426 308 q 1408 229 1426 248 q 1357 209 1385 209 m 43 427 q 70 331 43 371 l 165 331 q 140 372 149 349 q 130 427 130 394 q 169 507 130 473 q 262 538 206 538 q 348 503 312 538 q 384 417 384 467 l 384 365 l 470 365 l 470 417 q 510 503 470 467 q 609 538 550 538 q 707 508 667 538 q 749 435 749 478 q 714 342 749 392 q 617 243 682 294 q 521 136 556 195 q 487 19 487 79 q 556 -149 487 -80 q 722 -216 623 -216 q 956 -66 859 -216 q 1052 295 1052 83 q 1018 521 1052 404 l 1287 521 q 1373 493 1336 521 q 1418 417 1412 461 q 1347 435 1389 435 q 1243 392 1286 435 q 1200 286 1200 349 q 1246 176 1200 222 q 1357 130 1294 130 q 1481 186 1432 130 q 1531 322 1531 242 q 1459 524 1531 440 q 1287 609 1387 609 l 888 609 q 965 295 965 435 q 893 -6 965 120 q 722 -130 822 -130 q 617 -89 662 -130 q 574 9 574 -47 q 609 109 574 54 q 706 209 639 156 q 800 314 765 255 q 835 427 835 372 q 767 567 835 508 q 609 627 702 627 q 503 606 550 627 q 435 548 455 583 q 364 606 415 584 q 243 627 312 627 q 100 570 158 627 q 43 427 43 513 z "},"ల":{"ha":816,"x_min":43,"x_max":792,"o":"m 155 99 q 435 0 263 0 q 687 92 583 0 q 792 314 792 183 q 720 523 792 434 q 548 609 650 609 l 495 609 l 495 521 l 538 521 q 656 460 607 521 q 703 314 703 399 q 624 147 703 216 q 435 79 544 79 q 216 149 304 79 q 130 322 130 218 q 133 362 130 342 q 140 384 136 379 q 192 334 156 351 q 278 314 229 314 q 384 358 341 314 q 427 470 427 402 q 384 574 427 531 q 278 617 341 617 q 107 544 172 617 q 43 348 43 471 q 155 99 43 198 m 319 417 q 269 399 298 399 q 221 417 241 399 q 200 460 200 437 q 221 510 200 487 q 269 530 241 530 q 319 510 296 530 q 338 460 338 490 q 319 417 338 435 z "},"Ł":{"ha":580,"x_min":30,"x_max":547,"o":"m 109 700 l 228 700 l 228 362 l 447 431 l 447 325 l 228 258 l 228 112 l 547 112 l 547 0 l 109 0 l 109 221 l 30 196 l 30 302 l 109 325 l 109 700 z "},"ఌ":{"ha":1077,"x_min":43,"x_max":1052,"o":"m 43 427 q 70 331 43 371 l 165 331 q 140 372 149 349 q 130 427 130 394 q 169 507 130 473 q 262 538 206 538 q 348 503 312 538 q 384 417 384 467 l 384 365 l 470 365 l 470 417 q 510 503 470 467 q 609 538 550 538 q 707 508 667 538 q 749 435 749 478 q 714 342 749 392 q 617 243 682 294 q 521 136 556 195 q 487 19 487 79 q 556 -149 487 -80 q 722 -216 623 -216 q 956 -66 859 -216 q 1052 295 1052 83 q 1001 609 1052 504 l 914 609 q 965 295 965 493 q 893 -6 965 120 q 722 -130 822 -130 q 617 -89 662 -130 q 574 9 574 -47 q 609 109 574 54 q 706 209 639 156 q 800 314 765 255 q 835 427 835 372 q 767 567 835 508 q 609 627 702 627 q 503 606 550 627 q 435 548 455 583 q 364 606 415 584 q 243 627 312 627 q 100 570 158 627 q 43 427 43 513 z "},"M":{"ha":985,"x_min":97,"x_max":888,"o":"m 216 0 l 97 0 l 97 700 l 282 700 l 493 261 l 704 700 l 888 700 l 888 0 l 770 0 l 770 547 l 525 62 l 460 62 l 216 547 l 216 0 z "},"మ":{"ha":1241,"x_min":43,"x_max":1217,"o":"m 514 521 q 637 458 587 521 q 687 305 687 395 q 639 150 687 213 q 523 87 591 87 q 452 102 483 87 q 408 140 424 116 q 417 192 417 160 q 364 308 417 259 q 235 357 311 357 q 99 306 155 357 q 43 183 43 258 q 99 54 43 109 q 235 0 158 0 q 309 16 271 0 q 374 62 345 33 q 441 16 402 33 q 523 0 481 0 q 707 90 630 0 q 726 115 714 97 q 793 44 750 76 q 938 0 859 0 q 1135 90 1054 0 q 1217 305 1217 178 q 1144 520 1217 432 q 965 609 1071 609 l 939 609 l 939 521 l 974 521 q 1085 458 1040 521 q 1130 305 1130 398 q 1074 150 1130 212 q 938 87 1018 87 q 815 137 869 87 q 767 202 785 166 q 782 305 782 246 q 707 520 782 432 q 523 609 631 609 l 324 609 l 324 670 q 338 700 324 687 q 377 713 355 713 l 581 713 l 581 800 l 342 800 q 266 770 296 800 q 236 696 236 740 l 236 609 l 79 609 l 79 521 l 514 521 m 302 109 q 235 79 275 79 q 162 109 192 79 q 130 183 130 140 q 162 249 130 222 q 235 278 193 278 q 302 249 273 278 q 331 183 331 221 q 302 109 331 142 z "},"N":{"ha":838,"x_min":97,"x_max":740,"o":"m 623 700 l 740 700 l 740 0 l 613 0 l 216 511 l 216 0 l 97 0 l 97 700 l 216 700 l 623 178 l 623 700 z "},"\u0000":{"ha":0,"x_min":0,"x_max":0,"o":""},"న":{"ha":806,"x_min":43,"x_max":782,"o":"m 326 609 l 326 670 q 341 700 326 687 q 378 713 355 713 l 584 713 l 584 800 l 344 800 q 269 770 301 800 q 238 696 238 739 l 238 609 l 80 609 l 80 521 l 523 521 q 646 455 594 521 q 696 295 696 388 q 653 149 696 209 q 548 87 609 87 q 462 123 498 87 q 427 209 427 159 q 374 322 427 279 q 235 365 322 365 q 99 315 155 365 q 43 192 43 266 q 95 56 43 115 q 219 0 143 0 l 219 87 q 156 119 183 87 q 130 192 130 149 q 162 252 130 226 q 235 278 195 278 q 309 249 276 278 q 341 183 341 222 q 399 54 341 109 q 538 0 458 0 q 710 86 639 0 q 782 295 782 175 q 709 517 782 425 q 530 609 634 609 l 326 609 z "},"Ń":{"ha":838,"x_min":97,"x_max":740,"o":"m 623 700 l 740 700 l 740 0 l 613 0 l 216 511 l 216 0 l 97 0 l 97 700 l 216 700 l 623 178 l 623 700 m 473 789 l 369 789 l 477 934 l 594 885 l 473 789 z "},"Ñ":{"ha":838,"x_min":97,"x_max":740,"o":"m 623 700 l 740 700 l 740 0 l 613 0 l 216 511 l 216 0 l 97 0 l 97 700 l 216 700 l 623 178 l 623 700 m 418 780 q 358 803 368 803 q 324 759 326 803 l 249 759 q 273 853 249 818 q 339 889 296 889 q 414 866 364 889 q 477 842 465 842 q 507 886 507 842 l 583 886 q 490 756 578 756 q 418 780 462 756 z "},"़":{"ha":0,"x_min":372,"x_max":1087,"o":"m 574 1446 q 553 1393 574 1412 q 497 1375 533 1375 q 437 1394 458 1375 q 415 1446 415 1413 q 440 1496 415 1476 q 498 1515 464 1515 q 553 1496 531 1515 q 574 1446 574 1476 m 1087 1340 q 1078 1367 1087 1356 q 1060 1377 1070 1377 l 591 1377 q 619 1465 619 1418 q 583 1552 619 1516 q 500 1588 548 1588 q 409 1549 445 1588 q 372 1460 372 1511 q 407 1348 372 1393 q 501 1303 442 1303 l 1055 1303 q 1087 1340 1087 1303 z "},"ఞ":{"ha":1092,"x_min":43,"x_max":1068,"o":"m 145 52 q 392 0 241 -1 l 484 1 q 530 14 517 6 l 530 -87 l 617 -87 l 617 43 q 714 133 676 76 q 765 262 752 188 l 1068 262 l 1068 348 l 965 348 l 965 609 l 879 609 l 879 348 l 773 348 q 700 531 773 455 q 521 609 624 609 q 431 591 467 609 q 374 538 397 576 q 319 591 354 576 q 235 609 285 609 q 99 558 155 609 q 43 435 43 510 l 130 435 q 159 495 130 471 q 226 521 186 521 q 295 498 272 521 q 322 435 322 473 l 408 435 q 438 498 408 475 q 521 521 470 521 q 639 467 591 521 q 687 338 687 414 q 670 226 687 275 q 617 149 650 176 q 537 306 617 248 q 322 365 457 365 q 126 319 200 365 q 52 192 52 271 q 145 52 52 106 m 530 105 q 392 87 493 87 q 209 119 276 87 q 140 200 140 149 q 193 255 140 233 q 322 278 245 278 q 470 236 407 278 q 530 140 530 198 l 530 105 z "},"O":{"ha":842,"x_min":52,"x_max":790,"o":"m 421 610 q 245 536 316 610 q 173 355 173 461 q 245 175 173 249 q 421 102 316 102 q 597 175 525 102 q 669 355 669 249 q 597 536 669 461 q 421 610 525 610 m 421 -7 q 158 97 263 -7 q 52 355 52 200 q 158 614 52 510 q 421 717 263 717 q 684 614 578 717 q 790 355 790 510 q 683 97 790 200 q 421 -7 576 -7 z "},"Œ":{"ha":1068,"x_min":53,"x_max":1014,"o":"m 1002 700 l 1002 590 l 629 590 l 629 404 l 964 404 l 964 299 l 629 299 l 629 112 l 1014 112 l 1014 0 l 410 0 q 156 100 259 0 q 53 351 53 200 q 156 600 53 500 q 410 700 259 700 l 1002 700 m 182 351 q 251 176 182 249 q 421 103 321 103 l 510 103 l 510 597 l 421 597 q 251 525 319 597 q 182 351 182 452 z "},"ొ":{"ha":865,"x_min":-268,"x_max":826,"o":"m 653 338 q 603 362 624 338 q 583 417 583 387 q 603 467 583 444 q 653 487 626 487 q 703 467 680 487 q 722 417 722 447 q 703 362 722 385 q 653 338 682 338 m 497 417 q 546 306 497 351 q 662 262 591 262 q 777 324 729 262 q 826 478 826 387 q 740 674 826 596 q 531 757 653 757 q 428 739 471 757 q 367 687 384 720 q 276 757 335 732 q 147 782 216 782 l -60 782 q -206 742 -147 782 q -268 643 -268 702 q -231 557 -268 594 q -137 521 -193 521 l 34 521 l 34 609 l -137 609 q -169 620 -153 609 q -182 643 -182 629 q -146 680 -182 666 q -60 696 -107 696 l 147 696 q 281 660 232 696 q 331 566 331 623 l 331 538 l 418 538 l 418 581 q 450 644 418 619 q 531 670 481 670 q 667 634 610 670 q 722 548 722 597 q 686 567 704 561 q 643 574 664 574 q 540 528 583 574 q 497 417 497 481 z "},"ఓ":{"ha":859,"x_min":43,"x_max":835,"o":"m 252 0 q 372 21 321 0 q 444 79 424 43 q 515 21 464 43 q 634 0 567 0 q 777 57 720 0 q 835 200 835 115 q 828 255 835 226 q 809 295 820 282 l 713 295 q 739 252 730 278 q 749 200 749 231 q 710 120 749 155 q 617 87 670 87 q 531 123 567 87 q 495 209 495 159 l 495 262 l 408 262 l 408 209 q 367 123 408 160 q 269 87 326 87 q 172 119 212 87 q 130 192 130 149 q 165 271 130 235 q 252 322 199 308 q 348 381 311 338 q 384 478 384 422 q 352 571 384 531 q 278 609 319 609 l 278 679 q 288 702 278 693 q 314 713 299 713 l 384 713 l 384 800 l 278 800 q 216 775 242 800 q 192 713 192 747 l 192 609 q 99 567 137 609 q 62 470 62 525 l 62 435 l 147 435 l 147 452 q 170 501 147 483 q 226 521 195 521 q 276 507 256 521 q 295 470 295 493 q 269 417 295 441 q 200 384 246 395 q 87 315 130 365 q 43 200 43 265 q 105 59 43 119 q 252 0 168 0 z "},"ో":{"ha":865,"x_min":-276,"x_max":826,"o":"m 653 338 q 603 362 624 338 q 583 417 583 387 q 603 467 583 444 q 653 487 626 487 q 703 467 680 487 q 723 417 723 444 q 703 362 723 387 q 653 338 682 338 m 497 417 q 541 306 497 351 q 653 262 587 262 q 780 321 733 262 q 826 478 826 377 q 773 651 826 577 q 634 749 719 727 l 634 782 q 651 820 634 803 q 689 835 666 835 q 726 823 710 835 q 740 800 740 815 l 826 800 q 785 886 826 849 q 689 922 747 922 q 590 886 630 922 q 548 800 548 849 l 548 757 q 434 739 481 757 q 367 687 384 719 q 276 757 335 732 q 147 782 216 782 l -67 782 q -215 742 -153 782 q -276 643 -276 702 q -235 557 -276 594 q -136 521 -195 521 l 44 521 l 44 609 l -136 609 q -175 620 -156 609 q -189 643 -189 629 q -153 680 -189 666 q -67 696 -115 696 l 147 696 q 281 666 232 696 q 331 581 331 633 l 331 538 l 418 538 l 418 581 q 455 644 418 616 q 548 670 495 670 q 663 636 616 670 q 723 548 713 599 q 687 567 700 563 q 644 574 666 574 q 540 528 583 574 q 497 417 497 481 z "},"Ó":{"ha":842,"x_min":52,"x_max":790,"o":"m 421 610 q 245 536 316 610 q 173 355 173 461 q 245 175 173 249 q 421 102 316 102 q 597 175 525 102 q 669 355 669 249 q 597 536 669 461 q 421 610 525 610 m 421 -7 q 158 97 263 -7 q 52 355 52 200 q 158 614 52 510 q 421 717 263 717 q 684 614 578 717 q 790 355 790 510 q 683 97 790 200 q 421 -7 576 -7 m 440 759 l 336 759 l 442 903 l 561 855 l 440 759 z "},"Ô":{"ha":842,"x_min":52,"x_max":790,"o":"m 421 610 q 245 536 316 610 q 173 355 173 461 q 245 175 173 249 q 421 102 316 102 q 597 175 525 102 q 669 355 669 249 q 597 536 669 461 q 421 610 525 610 m 421 -7 q 158 97 263 -7 q 52 355 52 200 q 158 614 52 510 q 421 717 263 717 q 684 614 578 717 q 790 355 790 510 q 683 97 790 200 q 421 -7 576 -7 m 367 893 l 471 893 l 593 759 l 497 759 l 420 815 l 342 759 l 245 759 l 367 893 z "},"Ö":{"ha":842,"x_min":52,"x_max":790,"o":"m 262 818 q 279 860 262 842 q 322 878 296 878 q 367 861 349 878 q 385 818 385 843 q 367 773 385 792 q 322 755 349 755 q 279 773 296 755 q 262 818 262 792 m 447 818 q 465 860 447 842 q 510 878 484 878 q 552 861 534 878 q 570 818 570 843 q 551 773 570 792 q 508 755 533 755 q 465 773 484 755 q 447 818 447 792 m 421 610 q 245 536 316 610 q 173 355 173 461 q 245 175 173 249 q 421 102 316 102 q 597 175 525 102 q 669 355 669 249 q 597 536 669 461 q 421 610 525 610 m 421 -7 q 158 97 263 -7 q 52 355 52 200 q 158 614 52 510 q 421 717 263 717 q 684 614 578 717 q 790 355 790 510 q 683 97 790 200 q 421 -7 576 -7 z "},"Ò":{"ha":842,"x_min":52,"x_max":790,"o":"m 497 759 l 395 759 l 272 855 l 391 903 l 497 759 m 421 610 q 245 536 316 610 q 173 355 173 461 q 245 175 173 249 q 421 102 316 102 q 597 175 525 102 q 669 355 669 249 q 597 536 669 461 q 421 610 525 610 m 421 -7 q 158 97 263 -7 q 52 355 52 200 q 158 614 52 510 q 421 717 263 717 q 684 614 578 717 q 790 355 790 510 q 683 97 790 200 q 421 -7 576 -7 z "},"Ω":{"ha":908,"x_min":54,"x_max":853,"o":"m 454 717 q 717 614 610 717 q 823 362 823 511 q 706 112 823 216 l 853 112 l 853 0 l 520 0 l 520 110 q 651 200 600 132 q 702 355 702 268 q 630 536 702 461 q 454 610 558 610 q 278 536 349 610 q 206 355 206 461 q 257 200 206 268 q 389 110 308 132 l 389 0 l 54 0 l 54 112 l 202 112 q 84 362 84 216 q 192 614 84 511 q 454 717 298 717 z "},"Ø":{"ha":842,"x_min":52,"x_max":790,"o":"m 421 -7 q 319 6 368 -7 l 262 -117 l 162 -117 l 236 39 q 101 169 150 84 q 52 355 52 253 q 158 614 52 510 q 421 717 263 717 q 543 699 485 717 l 597 813 l 696 813 l 626 660 q 746 531 702 611 q 790 355 790 451 q 684 97 790 200 q 421 -7 578 -7 m 173 355 q 203 234 173 291 q 284 142 232 178 l 497 597 q 421 610 461 610 q 245 536 316 610 q 173 355 173 461 m 577 554 l 367 106 q 421 102 397 102 q 597 175 525 102 q 669 355 669 249 q 577 554 669 475 z "},"Õ":{"ha":842,"x_min":52,"x_max":790,"o":"m 421 610 q 245 536 316 610 q 173 355 173 461 q 245 175 173 249 q 421 102 316 102 q 597 175 525 102 q 669 355 669 249 q 597 536 669 461 q 421 610 525 610 m 421 -7 q 158 97 263 -7 q 52 355 52 200 q 158 614 52 510 q 421 717 263 717 q 684 614 578 717 q 790 355 790 510 q 683 97 790 200 q 421 -7 576 -7 m 421 780 q 361 803 371 803 q 326 759 329 803 l 252 759 q 276 853 252 818 q 342 889 301 889 q 417 866 367 889 q 480 842 468 842 q 510 886 510 842 l 586 886 q 493 756 581 756 q 421 780 465 756 z "},"P":{"ha":686,"x_min":97,"x_max":643,"o":"m 338 700 q 569 639 495 700 q 643 451 643 578 q 568 266 643 325 q 339 206 494 206 l 216 206 l 216 0 l 97 0 l 97 700 l 338 700 m 352 312 q 485 348 447 312 q 523 461 523 384 q 478 563 523 533 q 335 593 434 593 l 216 593 l 216 312 l 352 312 z "},"ప":{"ha":806,"x_min":43,"x_max":782,"o":"m 99 54 q 235 0 158 0 q 309 16 271 0 q 374 62 345 33 q 442 16 402 33 q 530 0 485 0 q 709 84 633 0 q 782 286 782 169 q 707 514 782 422 q 523 609 630 609 l 408 609 l 408 521 l 514 521 q 637 458 587 521 q 687 305 687 395 q 639 150 687 213 q 523 87 591 87 q 452 102 483 87 q 408 140 424 116 q 417 192 417 160 q 364 308 417 259 q 235 357 311 357 q 99 306 155 357 q 43 183 43 258 q 99 54 43 109 m 236 521 l 236 679 q 248 702 236 693 q 271 713 256 713 l 477 713 l 477 800 l 236 800 q 173 775 199 800 q 149 713 149 750 l 149 609 l 44 609 l 44 521 l 236 521 m 302 109 q 235 79 275 79 q 162 109 192 79 q 130 183 130 140 q 162 249 130 222 q 235 278 193 278 q 302 249 273 278 q 331 183 331 221 q 302 109 331 142 z "},"ఫ":{"ha":806,"x_min":43,"x_max":782,"o":"m 99 54 q 235 0 158 0 q 309 16 271 0 q 374 62 345 33 q 442 16 402 33 q 530 0 485 0 q 709 84 633 0 q 782 286 782 169 q 707 514 782 422 q 523 609 630 609 l 408 609 l 408 521 l 514 521 q 637 458 587 521 q 687 305 687 395 q 639 150 687 213 q 523 87 591 87 q 452 102 483 87 q 408 140 424 116 q 417 192 417 160 q 364 308 417 259 q 235 357 311 357 q 99 306 155 357 q 43 183 43 258 q 99 54 43 109 m 417 -175 l 417 0 l 331 0 l 331 -175 l 417 -175 m 236 521 l 236 679 q 248 702 236 693 q 271 713 256 713 l 477 713 l 477 800 l 236 800 q 173 775 199 800 q 149 713 149 750 l 149 609 l 44 609 l 44 521 l 236 521 m 302 109 q 235 79 275 79 q 162 109 192 79 q 130 183 130 140 q 162 249 130 222 q 235 278 193 278 q 302 249 273 278 q 331 183 331 221 q 302 109 331 142 z "},"Q":{"ha":842,"x_min":52,"x_max":842,"o":"m 421 -7 q 158 97 263 -7 q 52 355 52 200 q 158 614 52 510 q 421 717 263 717 q 684 614 578 717 q 790 355 790 510 q 727 148 790 239 q 558 17 664 57 q 644 -29 593 -29 q 720 -8 683 -29 q 775 44 756 13 l 842 -49 q 643 -142 753 -142 q 518 -105 577 -142 q 437 -6 460 -67 l 421 -7 m 421 610 q 245 536 316 610 q 173 355 173 461 q 245 175 173 249 q 421 102 316 102 q 597 175 525 102 q 669 355 669 249 q 597 536 669 461 q 421 610 525 610 z "},"R":{"ha":730,"x_min":97,"x_max":689,"o":"m 505 255 l 689 0 l 538 0 l 371 236 l 216 236 l 216 0 l 97 0 l 97 700 l 358 700 q 586 646 517 700 q 656 473 656 593 q 505 255 656 299 m 362 342 q 498 372 461 342 q 536 474 536 402 q 498 568 536 543 q 365 593 461 593 l 216 593 l 216 342 l 362 342 z "},"ృ":{"ha":284,"x_min":-152,"x_max":275,"o":"m 7 140 q 95 100 57 137 q 178 -50 153 46 q 170 -216 200 -140 q 77 -312 140 -295 l 42 -322 q 63 -279 59 -309 q 62 -213 70 -248 q 13 -156 52 -176 q -66 -149 -27 -137 q -130 -203 -106 -159 q -140 -291 -152 -243 q -63 -377 -127 -351 q 77 -379 -1 -402 q 229 -251 185 -347 q 243 -24 275 -153 q 137 163 216 89 q 7 213 74 225 l 7 140 m 0 -279 q -27 -299 -11 -295 q -62 -296 -46 -305 q -79 -272 -76 -291 q -76 -236 -84 -253 q -47 -213 -66 -218 q -14 -216 -30 -208 q 6 -248 1 -228 q 0 -279 10 -265 z "},"ౄ":{"ha":567,"x_min":-152,"x_max":543,"o":"m 21 212 l 21 139 q 116 99 74 136 q 206 -52 179 46 q 198 -218 229 -143 q 97 -314 166 -296 l 57 -324 q 82 -281 77 -311 q 80 -215 89 -249 q 27 -158 70 -178 q -57 -150 -13 -140 q -129 -205 -106 -163 q -139 -292 -152 -245 q -56 -378 -123 -352 q 97 -381 10 -404 q 262 -252 213 -349 q 276 -26 311 -156 q 180 145 249 76 l 361 145 q 411 137 387 145 q 444 112 432 127 l 418 112 q 342 84 374 112 q 311 14 311 57 q 345 -74 311 -37 q 427 -110 379 -110 q 508 -70 474 -110 q 543 30 543 -29 q 491 159 543 106 q 369 212 440 212 l 21 212 m 13 -281 q -17 -301 1 -296 q -56 -298 -36 -306 q -76 -273 -72 -291 q -72 -238 -82 -255 q -40 -215 -62 -219 q -3 -218 -23 -209 q 20 -249 13 -228 q 13 -281 24 -265 m 457 -24 q 427 -36 442 -36 q 391 -24 407 -36 q 378 4 378 -11 q 391 34 378 23 q 427 46 407 46 q 457 34 442 46 q 467 4 467 24 q 457 -24 467 -13 z "},"ఱ":{"ha":919,"x_min":43,"x_max":895,"o":"m 115 86 q 305 0 186 0 q 399 19 361 0 q 460 70 442 37 q 524 19 478 37 q 634 0 570 0 q 818 92 743 0 q 895 314 895 183 q 828 523 895 438 q 660 609 760 609 q 531 558 586 609 q 478 435 478 507 q 495 338 478 381 q 548 278 514 296 l 269 278 l 269 192 l 427 192 q 394 119 427 149 q 314 87 361 87 q 185 149 238 87 q 130 295 130 210 q 135 342 130 324 q 147 374 142 365 q 195 329 159 344 q 278 314 233 314 q 384 358 341 314 q 427 470 427 402 q 384 574 427 531 q 278 617 341 617 q 107 536 172 617 q 43 314 43 452 q 115 86 43 173 m 753 150 q 624 87 699 87 q 544 119 577 87 q 513 192 513 149 l 651 192 l 651 305 q 587 352 613 321 q 564 427 564 384 q 594 500 564 470 q 670 530 627 530 q 766 464 727 530 q 808 305 808 397 q 753 150 808 216 m 319 417 q 269 399 298 399 q 219 417 241 399 q 199 460 199 437 q 219 510 199 487 q 269 530 242 530 q 319 510 296 530 q 338 460 338 490 q 319 417 338 435 z "},"ౠ":{"ha":2133,"x_min":43,"x_max":2109,"o":"m 1934 209 q 1884 229 1907 209 q 1866 278 1866 248 q 1884 328 1866 308 q 1934 348 1907 348 q 1985 328 1962 348 q 2005 278 2005 305 q 1985 229 2005 249 q 1934 209 1962 209 m 269 0 q 372 21 322 0 q 444 79 421 44 q 513 21 471 40 q 609 0 558 0 q 722 44 672 0 q 802 165 773 90 q 878 47 818 93 q 1017 0 938 0 q 1151 44 1092 0 q 1243 166 1210 87 q 1317 47 1260 92 q 1448 0 1375 0 q 1632 84 1555 0 q 1710 286 1710 169 q 1688 434 1710 372 q 1631 521 1670 494 l 1866 521 q 1954 491 1919 521 q 1996 417 1992 458 q 1926 435 1969 435 q 1820 392 1863 435 q 1777 286 1777 349 q 1830 170 1777 222 q 1953 122 1879 122 q 2063 180 2017 122 q 2109 322 2109 242 q 2038 524 2109 440 q 1866 609 1966 609 l 1412 609 l 1412 521 l 1473 521 q 1579 455 1535 521 q 1622 295 1622 389 q 1568 149 1622 210 q 1439 87 1515 87 q 1350 136 1395 87 q 1267 265 1304 183 l 1269 305 q 1196 520 1273 427 q 1017 609 1123 609 l 956 609 l 956 521 l 989 521 q 1125 458 1070 521 q 1181 305 1181 397 q 1131 150 1181 213 q 1008 87 1081 87 q 916 137 966 87 q 825 273 865 189 l 825 295 q 757 517 825 427 q 591 609 689 609 l 521 609 l 521 521 l 591 521 q 696 458 653 521 q 739 305 739 397 q 702 147 739 206 q 600 87 663 87 q 527 119 558 87 q 495 192 495 150 l 495 262 l 408 262 l 408 216 q 367 126 408 163 q 269 87 326 87 q 172 119 212 87 q 130 192 130 149 q 163 265 130 229 q 243 314 195 301 q 338 372 304 331 q 374 470 374 417 q 328 567 374 525 q 216 609 279 609 q 106 567 152 609 q 62 470 62 527 l 62 435 l 147 435 l 147 460 q 166 510 147 490 q 216 530 189 530 q 266 513 245 530 q 286 470 286 493 q 259 408 286 435 q 192 374 233 381 q 84 312 125 362 q 43 192 43 261 q 109 56 43 113 q 269 0 175 0 z "},"ర":{"ha":845,"x_min":43,"x_max":820,"o":"m 558 679 q 570 702 558 693 q 594 713 581 713 l 820 713 l 820 800 l 558 800 q 498 775 521 800 q 473 713 473 749 l 473 609 l 314 609 q 295 617 301 611 q 288 636 288 629 l 288 713 l 200 713 l 200 627 q 223 573 200 596 q 143 517 179 550 q 43 295 43 425 q 143 86 43 173 q 384 0 242 0 q 624 86 530 0 q 722 305 722 172 q 623 520 722 430 q 558 566 590 547 l 558 679 m 563 150 q 384 87 490 87 q 205 150 281 87 q 130 305 130 215 q 205 458 130 394 q 384 521 281 521 q 563 458 490 521 q 636 305 636 397 q 563 150 636 212 z "},"Ŕ":{"ha":730,"x_min":97,"x_max":689,"o":"m 505 255 l 689 0 l 538 0 l 371 236 l 216 236 l 216 0 l 97 0 l 97 700 l 358 700 q 586 646 517 700 q 656 473 656 593 q 505 255 656 299 m 362 342 q 498 372 461 342 q 536 474 536 402 q 498 568 536 543 q 365 593 461 593 l 216 593 l 216 342 l 362 342 m 372 789 l 271 789 l 377 934 l 495 885 l 372 789 z "},"Ř":{"ha":730,"x_min":97,"x_max":689,"o":"m 505 255 l 689 0 l 538 0 l 371 236 l 216 236 l 216 0 l 97 0 l 97 700 l 358 700 q 586 646 517 700 q 656 473 656 593 q 505 255 656 299 m 362 342 q 498 372 461 342 q 536 474 536 402 q 498 568 536 543 q 365 593 461 593 l 216 593 l 216 342 l 362 342 m 397 762 l 292 762 l 170 896 l 268 896 l 345 840 l 422 896 l 520 896 l 397 762 z "},"Ŗ":{"ha":730,"x_min":97,"x_max":689,"o":"m 505 255 l 689 0 l 538 0 l 371 236 l 216 236 l 216 0 l 97 0 l 97 700 l 358 700 q 586 646 517 700 q 656 473 656 593 q 505 255 656 299 m 362 342 q 498 372 461 342 q 536 474 536 402 q 498 568 536 543 q 365 593 461 593 l 216 593 l 216 342 l 362 342 m 262 -251 l 326 -56 l 438 -56 l 358 -251 l 262 -251 z "},"ఋ":{"ha":1725,"x_min":43,"x_max":1701,"o":"m 269 0 q 372 21 322 0 q 444 79 421 44 q 513 21 471 40 q 609 0 558 0 q 717 42 664 0 q 796 150 769 82 q 873 42 815 84 q 1008 0 932 0 q 1140 47 1077 0 q 1233 169 1204 96 q 1309 47 1250 96 q 1448 0 1369 0 q 1627 90 1552 0 q 1701 305 1701 178 q 1627 520 1701 431 q 1448 609 1551 609 l 1387 609 l 1387 521 l 1422 521 q 1558 458 1503 521 q 1612 305 1612 398 q 1562 150 1612 213 q 1439 87 1512 87 q 1347 136 1396 87 q 1259 269 1299 188 l 1260 305 q 1187 520 1264 427 q 1008 609 1114 609 l 946 609 l 946 521 l 981 521 q 1117 458 1061 521 q 1173 305 1173 397 q 1123 150 1173 213 q 999 87 1072 87 q 909 135 959 87 q 823 258 856 185 l 825 295 q 757 517 829 421 q 591 609 689 609 l 521 609 l 521 521 l 591 521 q 696 458 653 521 q 739 305 739 397 q 702 147 739 206 q 600 87 663 87 q 527 119 558 87 q 495 192 495 150 l 495 262 l 408 262 l 408 216 q 367 126 408 163 q 269 87 326 87 q 172 119 212 87 q 130 192 130 149 q 163 265 130 229 q 243 314 195 301 q 338 372 304 331 q 374 470 374 417 q 328 567 374 525 q 216 609 279 609 q 106 567 152 609 q 62 470 62 527 l 62 435 l 147 435 l 147 460 q 166 510 147 490 q 216 530 189 530 q 266 513 245 530 q 286 470 286 493 q 259 408 286 435 q 192 374 233 381 q 84 312 125 362 q 43 192 43 261 q 109 56 43 113 q 269 0 175 0 z "},"S":{"ha":631,"x_min":40,"x_max":583,"o":"m 192 524 q 225 460 192 480 q 365 410 258 435 q 530 335 478 382 q 583 199 583 288 q 513 49 583 106 q 332 -9 444 -9 q 40 106 170 -9 l 115 195 q 335 102 223 102 q 425 127 391 102 q 460 192 460 152 q 429 255 460 232 q 319 296 398 278 q 130 371 183 328 q 69 515 69 418 q 137 664 69 610 q 314 717 206 717 q 561 633 458 717 l 498 544 q 414 591 467 573 q 309 609 361 609 q 224 586 256 609 q 192 524 192 564 z "},"ష":{"ha":798,"x_min":43,"x_max":773,"o":"m 99 52 q 231 0 155 0 q 308 16 269 0 q 374 62 345 33 q 441 16 402 33 q 521 0 480 0 q 600 9 574 0 q 660 -103 613 -57 q 773 -149 710 -149 l 773 -52 q 720 -27 742 -52 q 696 34 696 0 q 700 77 696 57 q 713 105 706 93 q 757 198 743 145 q 773 331 773 258 q 694 528 773 448 q 505 609 614 609 l 408 609 l 408 521 l 503 521 q 634 465 581 521 q 687 334 687 411 q 639 159 687 229 q 523 87 591 87 q 452 102 483 87 q 408 140 424 116 q 412 178 412 146 q 358 305 412 251 q 231 357 306 357 q 99 305 155 357 q 43 178 43 252 q 99 52 43 106 m 236 521 l 236 679 q 248 702 236 693 q 271 713 256 713 l 477 713 l 477 800 l 236 800 q 173 775 199 800 q 149 713 149 750 l 149 609 l 44 609 l 44 521 l 236 521 m 302 107 q 231 79 271 79 q 159 107 189 79 q 130 178 130 136 q 159 249 130 218 q 231 278 192 278 q 302 249 273 278 q 331 178 331 221 q 302 107 331 136 z "},"స":{"ha":806,"x_min":43,"x_max":782,"o":"m 219 87 q 156 119 183 87 q 130 192 130 149 q 163 252 130 228 q 243 278 198 278 q 312 249 284 278 q 341 183 341 221 q 399 54 341 109 q 538 0 458 0 q 710 86 639 0 q 782 295 782 175 q 709 517 782 425 q 530 609 634 609 l 408 609 l 408 521 l 523 521 q 646 455 594 521 q 696 295 696 388 q 653 149 696 209 q 548 87 609 87 q 462 123 498 87 q 427 209 427 159 q 374 322 427 279 q 235 365 322 365 q 99 315 155 365 q 43 192 43 266 q 95 56 43 115 q 219 0 143 0 l 219 87 m 235 521 l 235 679 q 245 702 235 693 q 269 713 256 713 l 474 713 l 474 800 l 235 800 q 172 775 198 800 q 147 713 147 750 l 147 609 l 43 609 l 43 521 l 235 521 z "},"Š":{"ha":636,"x_min":40,"x_max":586,"o":"m 192 527 q 226 461 192 484 q 368 412 265 437 q 533 336 481 384 q 586 199 586 288 q 516 49 586 106 q 334 -9 447 -9 q 40 106 170 -9 l 116 196 q 336 103 222 103 q 428 128 394 103 q 462 193 462 153 q 430 256 462 235 q 289 306 398 281 q 122 380 175 334 q 69 520 69 427 q 138 668 69 614 q 316 722 208 722 q 564 637 461 722 l 501 547 q 416 593 470 576 q 311 611 362 611 q 225 589 258 611 q 192 527 192 567 m 369 762 l 265 762 l 142 896 l 239 896 l 316 840 l 394 896 l 491 896 l 369 762 z "},"శ":{"ha":782,"x_min":43,"x_max":757,"o":"m 470 609 l 470 670 q 484 700 470 687 q 521 713 500 713 l 727 713 l 727 800 l 487 800 q 412 770 444 800 q 381 696 381 739 l 381 609 l 308 609 l 308 521 l 591 521 q 629 507 614 521 q 644 470 644 491 q 621 428 644 445 q 566 408 601 411 q 348 435 507 435 q 126 379 209 435 q 43 235 43 326 q 50 179 43 208 q 70 140 56 156 l 165 140 q 140 178 147 158 q 130 235 130 199 q 186 316 130 285 q 341 348 245 348 l 384 348 q 312 284 338 322 q 286 200 286 243 q 351 56 286 109 q 523 0 415 0 q 689 59 619 0 q 757 200 757 119 q 735 292 757 251 q 670 357 710 332 q 720 402 700 371 q 739 470 739 434 q 696 567 739 527 q 591 609 650 609 l 470 609 m 620 120 q 517 87 578 87 q 415 120 457 87 q 374 200 374 153 q 415 281 374 248 q 514 314 457 314 q 617 281 573 314 q 660 200 660 248 q 620 120 660 152 z "},"T":{"ha":606,"x_min":32,"x_max":574,"o":"m 362 593 l 362 0 l 243 0 l 243 593 l 32 593 l 32 700 l 574 700 l 574 593 l 362 593 z "},"ఠ":{"ha":845,"x_min":43,"x_max":820,"o":"m 558 679 q 570 702 558 693 q 594 713 581 713 l 820 713 l 820 800 l 558 800 q 498 775 521 800 q 473 713 473 749 l 473 609 l 314 609 q 295 617 301 611 q 288 636 288 629 l 288 713 l 200 713 l 200 627 q 223 573 200 596 q 143 517 179 550 q 43 295 43 425 q 143 86 43 173 q 384 0 242 0 q 624 86 530 0 q 722 305 722 172 q 623 520 722 430 q 558 566 590 547 l 558 679 m 563 150 q 384 87 490 87 q 205 150 281 87 q 130 305 130 215 q 205 458 130 394 q 384 521 281 521 q 563 458 490 521 q 636 305 636 397 q 563 150 636 212 m 427 252 l 427 338 l 338 338 l 338 252 l 427 252 z "},"త":{"ha":882,"x_min":43,"x_max":858,"o":"m 477 609 l 477 670 q 491 700 477 687 q 528 713 507 713 l 823 713 l 823 800 l 494 800 q 420 770 452 800 q 388 696 388 739 l 388 609 l 312 609 l 312 521 l 571 521 q 643 495 613 521 q 673 435 673 470 q 570 394 614 435 q 527 295 527 352 q 567 198 527 238 q 664 156 609 156 l 700 156 q 607 106 674 123 q 444 87 543 87 q 266 112 344 87 q 176 173 195 136 q 229 165 193 165 q 335 202 294 165 q 378 295 378 239 q 335 394 378 352 q 229 435 289 435 q 97 387 150 435 q 43 271 43 336 q 152 73 43 147 q 444 0 261 0 q 745 72 630 0 q 858 262 858 142 q 832 362 858 316 q 765 427 809 407 q 707 556 765 503 q 571 609 653 609 l 477 609 m 735 258 q 684 243 716 243 q 631 258 651 243 q 610 295 610 272 q 631 334 610 316 q 682 348 650 348 q 735 334 714 348 q 756 295 756 316 q 735 258 756 272 m 269 258 q 221 243 251 243 q 170 258 190 243 q 150 295 150 273 q 170 334 150 316 q 221 348 190 348 q 269 334 251 348 q 288 295 288 316 q 269 258 288 272 z "},"౦":{"ha":901,"x_min":105,"x_max":805,"o":"m 461 60 q 263 139 338 60 q 189 351 189 219 q 261 564 189 487 q 455 643 331 643 q 643 564 573 643 q 713 351 713 485 q 643 139 713 219 q 461 60 577 60 m 461 -10 q 710 90 614 -10 q 805 351 805 192 q 710 614 805 515 q 464 713 619 713 q 203 614 301 713 q 105 351 105 515 q 203 90 105 192 q 461 -10 304 -10 z "},"౧":{"ha":899,"x_min":112,"x_max":796,"o":"m 355 0 l 361 74 q 251 149 298 74 q 203 326 203 225 q 273 550 203 464 q 452 634 342 634 q 633 554 566 634 q 703 334 703 471 q 657 150 703 229 q 547 74 611 74 l 547 -3 q 725 93 651 -3 q 796 326 796 190 q 702 607 796 501 q 452 712 610 712 q 206 607 298 712 q 112 326 112 501 q 183 93 112 190 q 355 -3 256 -3 l 355 0 z "},"౨":{"ha":899,"x_min":122,"x_max":788,"o":"m 338 520 q 299 531 319 520 q 284 553 284 540 q 299 578 284 570 q 341 591 318 591 q 382 578 365 591 q 399 553 399 570 q 382 531 399 540 q 338 520 364 520 m 399 -3 q 674 110 561 -3 q 788 381 788 223 q 692 614 788 514 q 462 712 597 712 q 271 669 349 712 q 190 560 190 623 q 235 483 190 514 q 341 450 281 450 q 448 477 404 450 q 493 546 493 504 q 473 601 493 574 q 428 631 454 624 q 481 641 447 641 q 631 566 568 641 q 694 381 694 490 q 600 165 694 252 q 368 74 504 74 l 122 74 l 122 -3 l 399 -3 z "},"౩":{"ha":901,"x_min":130,"x_max":780,"o":"m 322 -3 q 647 76 515 -3 q 780 266 780 156 q 719 397 780 344 q 568 451 656 451 l 387 451 l 594 583 q 654 627 643 614 q 677 664 677 649 q 656 692 677 682 q 604 703 633 703 l 130 703 l 130 627 l 524 627 l 318 497 q 259 450 286 477 q 236 414 236 431 q 258 385 236 398 q 309 375 279 375 l 553 375 q 647 342 604 375 q 687 266 687 311 q 574 130 687 186 q 299 73 461 73 l 130 73 l 130 -3 l 322 -3 z "},"౪":{"ha":901,"x_min":44,"x_max":866,"o":"m 444 67 q 308 93 369 67 q 251 149 251 119 q 306 232 251 186 q 455 311 364 276 q 594 233 541 278 q 644 149 644 190 q 587 93 644 116 q 444 67 528 67 m 444 -10 q 663 34 584 -10 q 745 156 745 82 q 692 258 745 205 q 560 348 637 312 q 779 454 700 399 q 866 563 866 514 q 808 670 866 624 q 672 706 750 712 l 672 643 q 739 620 712 643 q 766 567 766 599 q 683 488 766 528 q 464 401 633 462 l 326 444 q 186 511 249 468 q 136 574 136 548 q 170 621 136 601 q 258 643 210 643 l 258 713 q 103 674 159 713 q 44 567 44 633 q 133 450 44 513 q 352 355 219 392 q 208 258 263 314 q 149 149 149 202 q 231 33 149 77 q 444 -10 309 -10 z "},"౫":{"ha":899,"x_min":83,"x_max":825,"o":"m 656 401 q 623 458 639 421 q 610 524 610 490 q 627 599 610 567 q 666 627 643 627 q 713 604 694 627 q 733 546 733 577 q 712 457 733 498 q 656 394 692 415 l 656 401 m 135 -3 q 359 82 266 -3 q 461 284 452 163 q 621 305 564 284 l 699 221 q 726 169 726 192 q 680 102 726 130 q 571 73 634 73 l 498 73 l 498 -3 l 599 -3 q 753 42 690 -3 q 818 155 818 89 q 789 238 818 190 q 706 335 762 284 q 792 422 760 365 q 825 546 825 480 q 775 657 825 611 q 657 703 725 703 q 557 651 599 703 q 517 531 517 603 q 533 458 517 503 q 576 367 547 417 q 461 352 537 352 q 336 603 434 501 q 120 703 242 703 l 83 703 l 83 627 l 120 627 q 289 534 218 627 q 361 308 361 441 q 294 142 361 212 q 129 73 225 73 l 83 73 l 83 -3 l 135 -3 z "},"౬":{"ha":899,"x_min":122,"x_max":788,"o":"m 788 -3 l 788 73 l 430 73 q 276 110 339 73 q 213 195 213 145 q 281 291 213 249 q 445 332 351 332 l 578 332 l 578 410 l 437 410 q 278 441 342 410 q 213 517 213 473 q 271 596 213 564 q 411 627 328 627 l 508 627 l 508 703 l 375 703 q 196 649 272 703 q 122 517 122 596 q 165 430 122 470 q 265 365 203 384 q 162 288 203 338 q 122 188 122 243 q 199 53 122 112 q 381 -3 275 -3 l 788 -3 z "},"౭":{"ha":899,"x_min":122,"x_max":788,"o":"m 417 -10 q 657 39 560 -10 q 788 173 759 89 l 714 226 q 607 110 687 152 q 420 67 527 67 q 269 107 326 67 q 213 208 213 143 q 291 306 213 266 q 481 348 369 348 q 662 399 590 348 q 736 530 736 452 q 653 660 736 607 q 454 713 573 713 q 258 680 344 713 q 147 586 176 649 l 212 540 q 295 610 231 583 q 445 634 359 634 q 583 606 530 634 q 634 530 634 578 q 573 452 634 484 q 420 420 510 420 q 209 358 294 420 q 122 200 122 294 q 203 47 122 106 q 417 -10 284 -10 z "},"౮":{"ha":899,"x_min":90,"x_max":818,"o":"m 404 -10 q 653 96 558 -10 q 747 374 747 202 q 723 521 747 457 q 657 627 702 583 l 818 627 l 818 704 l 498 704 l 498 627 q 610 551 564 627 q 656 367 656 475 q 586 149 656 232 q 407 67 517 67 q 245 150 306 67 q 183 374 183 235 q 229 554 183 478 q 339 627 275 627 l 339 704 q 162 607 235 704 q 90 374 90 510 q 176 96 90 199 q 404 -10 265 -10 z "},"౯":{"ha":901,"x_min":105,"x_max":805,"o":"m 494 -3 l 494 73 l 412 73 q 259 110 322 73 q 196 195 196 145 q 265 291 196 249 q 430 332 332 332 l 561 332 l 561 410 l 421 410 q 261 441 325 410 q 196 517 196 473 q 253 596 196 564 q 394 627 311 627 l 805 627 l 805 703 l 359 703 q 179 649 255 703 q 105 517 105 596 q 147 430 105 470 q 248 365 186 384 q 145 288 186 338 q 105 188 105 243 q 196 53 105 110 q 411 -3 284 -3 l 494 -3 z "},"థ":{"ha":896,"x_min":43,"x_max":872,"o":"m 610 687 q 621 710 610 702 q 646 722 633 722 l 872 722 l 872 809 l 610 809 q 550 785 574 809 q 524 722 524 756 l 524 617 l 365 617 q 348 627 357 619 q 341 644 341 637 l 341 722 l 252 722 l 252 636 q 268 590 252 610 q 150 521 199 566 q 43 262 43 422 q 109 77 43 153 q 269 0 175 0 q 367 23 322 0 q 435 87 412 46 q 510 23 460 46 q 627 0 557 0 q 766 77 707 0 q 825 262 825 156 q 720 521 825 427 q 610 587 679 561 l 610 687 m 478 -175 l 478 0 l 391 0 l 391 -175 l 478 -175 m 355 119 q 269 87 319 87 q 172 137 213 87 q 130 262 130 192 q 213 450 130 379 q 434 521 296 521 q 650 450 566 521 q 730 262 730 378 q 693 137 730 192 q 600 87 651 87 q 514 119 550 87 q 478 192 478 149 l 478 262 l 391 262 l 391 192 q 355 119 391 149 m 478 365 l 478 452 l 391 452 l 391 365 l 478 365 z "},"Þ":{"ha":687,"x_min":97,"x_max":643,"o":"m 329 117 l 216 117 l 216 0 l 97 0 l 97 700 l 216 700 l 216 613 l 328 613 q 643 369 643 613 q 566 178 643 238 q 329 117 488 117 m 342 225 q 480 262 438 225 q 523 372 523 299 q 474 474 523 442 q 325 505 425 505 l 216 505 l 216 225 l 342 225 z "},"U":{"ha":770,"x_min":89,"x_max":682,"o":"m 385 105 q 515 160 467 105 q 563 312 563 216 l 563 700 l 682 700 l 682 308 q 600 76 682 159 q 385 -7 518 -7 q 170 76 252 -7 q 89 308 89 159 l 89 700 l 206 700 l 206 312 q 255 160 206 215 q 385 105 302 105 z "},"ు":{"ha":430,"x_min":-129,"x_max":387,"o":"m 107 0 q 305 90 223 0 q 387 305 387 178 q 314 520 387 432 q 135 609 241 609 l 109 609 l 109 521 l 143 521 q 255 458 209 521 q 299 305 299 398 q 243 150 299 212 q 107 87 188 87 q -16 137 36 87 q -84 266 -69 186 l -129 263 l -129 165 q -37 44 -100 87 q 107 0 26 0 z "},"ఊ":{"ha":1292,"x_min":14,"x_max":1267,"o":"m 1103 87 q 1052 112 1074 87 q 1032 165 1032 135 q 1050 206 1032 183 q 1094 252 1064 226 q 1137 295 1131 284 q 1168 242 1155 273 q 1180 183 1180 212 q 1157 116 1180 143 q 1103 87 1135 87 m 344 0 q 441 21 394 0 q 510 79 487 43 q 578 21 537 40 q 674 0 624 0 q 810 59 755 0 q 866 200 866 116 l 866 262 l 779 262 l 779 192 q 746 119 779 149 q 666 87 714 87 q 586 119 619 87 q 553 192 553 149 l 553 262 l 465 262 l 465 200 q 434 120 465 152 q 352 87 401 87 q 249 136 292 87 q 206 252 206 186 q 209 309 206 278 q 222 348 215 332 l 1075 348 q 1058 331 1074 341 l 1024 305 q 966 235 989 278 q 945 156 945 193 q 992 52 945 95 q 1103 9 1037 9 q 1218 59 1171 9 q 1267 183 1267 112 q 1246 292 1267 243 q 1188 374 1227 339 q 1216 421 1207 394 q 1224 478 1224 448 q 1183 571 1224 534 q 1085 609 1144 609 q 987 573 1027 609 q 945 487 945 536 l 1032 487 q 1047 517 1032 507 q 1085 530 1064 530 q 1115 515 1103 530 q 1128 478 1128 500 q 1110 417 1128 448 q 1007 435 1072 435 l 258 435 q 321 498 278 475 q 422 521 365 521 l 796 521 l 796 609 l 674 609 l 674 800 l 587 800 l 587 609 l 501 609 l 501 800 l 414 800 l 414 607 q 258 556 329 601 q 152 435 189 510 l 14 435 l 14 348 l 133 348 q 119 235 119 309 q 185 69 119 136 q 344 0 252 0 z "},"ూ":{"ha":823,"x_min":-137,"x_max":786,"o":"m 613 209 q 563 229 586 209 q 543 278 543 249 q 563 328 543 305 q 613 348 586 348 q 663 328 640 348 q 683 278 683 305 q 663 229 683 249 q 613 209 640 209 m 107 0 q 305 84 225 0 q 387 286 387 169 q 365 434 387 372 q 308 521 347 495 l 543 521 q 633 491 597 521 q 673 417 670 460 q 604 435 649 435 q 498 392 541 435 q 455 286 455 349 q 507 170 455 221 q 630 122 556 122 q 742 180 696 122 q 786 322 786 236 q 714 524 786 440 q 543 609 643 609 l 90 609 l 90 521 l 150 521 q 256 455 212 521 q 299 295 299 388 q 243 149 299 209 q 107 87 186 87 q -17 137 37 87 q -83 266 -72 190 l -129 263 l -137 173 q -50 49 -119 99 q 107 0 17 0 z "},"Ú":{"ha":770,"x_min":89,"x_max":682,"o":"m 385 105 q 515 160 467 105 q 563 312 563 216 l 563 700 l 682 700 l 682 308 q 600 76 682 159 q 385 -7 518 -7 q 170 76 252 -7 q 89 308 89 159 l 89 700 l 206 700 l 206 312 q 255 160 206 215 q 385 105 302 105 m 417 760 l 315 760 l 421 905 l 540 856 l 417 760 z "},"Û":{"ha":770,"x_min":89,"x_max":682,"o":"m 385 105 q 515 160 467 105 q 563 312 563 216 l 563 700 l 682 700 l 682 308 q 600 76 682 159 q 385 -7 518 -7 q 170 76 252 -7 q 89 308 89 159 l 89 700 l 206 700 l 206 312 q 255 160 206 215 q 385 105 302 105 m 336 893 l 441 893 l 563 759 l 467 759 l 389 815 l 312 759 l 215 759 l 336 893 z "},"॑":{"ha":0,"x_min":404,"x_max":523,"o":"m 523 1332 l 523 1853 l 404 1853 l 404 1332 l 523 1332 z "},"Ü":{"ha":770,"x_min":89,"x_max":682,"o":"m 232 818 q 251 860 232 842 q 295 878 269 878 q 338 861 321 878 q 355 818 355 843 q 337 773 355 792 q 294 755 319 755 q 250 773 268 755 q 232 818 232 792 m 418 818 q 437 860 418 842 q 480 878 455 878 q 523 861 505 878 q 541 818 541 843 q 523 773 541 792 q 480 755 505 755 q 437 773 455 755 q 418 818 418 792 m 385 105 q 515 160 467 105 q 563 312 563 216 l 563 700 l 682 700 l 682 308 q 600 76 682 159 q 385 -7 518 -7 q 170 76 252 -7 q 89 308 89 159 l 89 700 l 206 700 l 206 312 q 255 160 206 215 q 385 105 302 105 z "},"Ù":{"ha":770,"x_min":89,"x_max":682,"o":"m 474 759 l 372 759 l 249 855 l 368 903 l 474 759 m 385 105 q 515 160 467 105 q 563 312 563 216 l 563 700 l 682 700 l 682 308 q 600 76 682 159 q 385 -7 518 -7 q 170 76 252 -7 q 89 308 89 159 l 89 700 l 206 700 l 206 312 q 255 160 206 215 q 385 105 302 105 z "},"V":{"ha":702,"x_min":3,"x_max":699,"o":"m 417 0 l 285 0 l 3 700 l 136 700 l 351 178 l 567 700 l 699 700 l 417 0 z "},"వ":{"ha":806,"x_min":43,"x_max":782,"o":"m 324 609 l 324 670 q 338 700 324 687 q 377 713 355 713 l 581 713 l 581 800 l 342 800 q 266 770 296 800 q 236 696 236 740 l 236 609 l 79 609 l 79 521 l 514 521 q 637 458 587 521 q 687 305 687 395 q 639 150 687 213 q 523 87 591 87 q 452 102 483 87 q 408 140 424 116 q 417 192 417 160 q 364 308 417 259 q 235 357 311 357 q 99 306 155 357 q 43 183 43 258 q 99 54 43 109 q 235 0 158 0 q 309 16 271 0 q 374 62 345 33 q 441 16 402 33 q 523 0 481 0 q 707 90 630 0 q 782 305 782 178 q 707 520 782 432 q 523 609 631 609 l 324 609 m 302 109 q 235 79 275 79 q 162 109 192 79 q 130 183 130 140 q 162 249 130 222 q 235 278 193 278 q 302 249 273 278 q 331 183 331 221 q 302 109 331 142 z "},"ః":{"ha":427,"x_min":50,"x_max":381,"o":"m 215 435 q 162 448 183 435 q 137 478 137 460 q 162 508 137 495 q 215 521 183 521 q 271 508 246 521 q 294 478 294 495 q 271 448 294 458 q 215 435 246 435 m 215 348 q 334 385 286 348 q 381 478 381 421 q 334 571 381 534 q 215 609 288 609 q 99 571 146 609 q 50 478 50 533 q 99 385 50 424 q 215 348 149 348 m 215 87 q 162 100 183 87 q 137 130 137 113 q 162 162 137 149 q 215 173 185 173 q 271 162 245 173 q 294 130 294 149 q 271 100 294 113 q 215 87 246 87 m 215 0 q 334 37 288 0 q 381 130 381 74 q 334 223 381 185 q 215 262 284 262 q 99 223 149 262 q 50 130 50 185 q 99 37 50 76 q 215 0 146 0 z "},"W":{"ha":1051,"x_min":11,"x_max":1038,"o":"m 316 196 l 473 700 l 578 700 l 735 196 l 911 700 l 1038 700 l 793 0 l 676 0 l 530 480 l 521 480 l 374 0 l 256 0 l 11 700 l 139 700 l 316 196 z "},"X":{"ha":674,"x_min":16,"x_max":660,"o":"m 513 0 l 339 263 l 335 263 l 162 0 l 16 0 l 256 359 l 32 700 l 179 700 l 335 464 l 339 464 l 497 700 l 643 700 l 420 359 l 660 0 l 513 0 z "},"Y":{"ha":626,"x_min":-9,"x_max":633,"o":"m 372 0 l 252 0 l 252 276 l -9 700 l 122 700 l 312 382 l 504 700 l 633 700 l 372 276 l 372 0 z "},"య":{"ha":1597,"x_min":43,"x_max":1572,"o":"m 865 521 q 997 458 942 518 q 1052 305 1052 394 q 992 150 1052 212 q 843 87 932 87 q 752 106 790 87 q 687 156 712 123 q 722 322 722 215 q 623 524 722 441 q 384 609 521 609 q 143 520 243 609 q 43 305 43 430 q 145 90 43 179 q 392 0 248 0 q 531 23 471 0 q 636 87 596 47 q 725 23 673 46 q 843 0 776 0 q 1052 90 965 0 q 1078 119 1071 109 q 1147 44 1105 73 q 1293 0 1210 0 q 1489 90 1406 0 q 1572 305 1572 182 q 1498 520 1572 431 q 1319 609 1422 609 l 1294 609 l 1294 521 l 1329 521 q 1439 458 1393 521 q 1483 305 1483 395 q 1429 150 1483 210 q 1293 87 1375 87 q 1168 137 1223 87 q 1123 202 1140 166 q 1138 305 1138 252 q 1058 520 1138 434 q 861 609 978 609 l 842 609 l 842 667 q 856 699 842 686 q 893 710 872 710 l 1100 710 l 1100 799 l 859 799 q 785 767 816 799 q 753 694 753 737 l 753 607 l 680 607 l 680 520 l 865 520 l 865 521 m 564 150 q 392 87 493 87 q 208 150 286 87 q 130 305 130 215 q 208 458 130 394 q 392 521 286 521 q 564 458 493 521 q 636 305 636 394 q 564 150 636 215 z "},"Ý":{"ha":626,"x_min":-9,"x_max":633,"o":"m 372 0 l 252 0 l 252 276 l -9 700 l 122 700 l 312 382 l 504 700 l 633 700 l 372 276 l 372 0 m 389 743 l 288 743 l 394 889 l 513 840 l 389 743 z "},"Z":{"ha":677,"x_min":47,"x_max":626,"o":"m 455 593 l 60 593 l 60 700 l 620 700 l 620 609 l 212 112 l 212 109 l 626 109 l 626 0 l 47 0 l 47 92 l 455 590 l 455 593 z "},"Ž":{"ha":677,"x_min":47,"x_max":626,"o":"m 455 593 l 60 593 l 60 700 l 620 700 l 620 609 l 212 112 l 212 109 l 626 109 l 626 0 l 47 0 l 47 92 l 455 590 l 455 593 m 399 762 l 296 762 l 173 896 l 271 896 l 348 840 l 425 896 l 523 896 l 399 762 z "},"a":{"ha":588,"x_min":42,"x_max":513,"o":"m 513 0 l 411 0 l 411 72 q 233 -9 344 -9 q 95 39 149 -9 q 42 165 42 87 q 99 282 42 242 q 256 322 156 322 l 402 322 l 402 342 q 284 448 402 448 q 129 394 209 448 l 79 464 q 299 541 178 541 q 455 492 398 541 q 513 344 513 442 l 513 0 m 401 243 l 275 243 q 153 168 153 243 q 183 108 153 129 q 268 87 213 87 q 362 118 324 87 q 401 199 401 149 l 401 243 z "},"á":{"ha":588,"x_min":42,"x_max":513,"o":"m 513 0 l 411 0 l 411 72 q 233 -9 344 -9 q 95 39 149 -9 q 42 165 42 87 q 99 282 42 242 q 256 322 156 322 l 402 322 l 402 342 q 284 448 402 448 q 129 394 209 448 l 79 464 q 299 541 178 541 q 455 492 398 541 q 513 344 513 442 l 513 0 m 401 243 l 275 243 q 153 168 153 243 q 183 108 153 129 q 268 87 213 87 q 362 118 324 87 q 401 199 401 149 l 401 243 m 352 601 l 249 601 l 355 747 l 474 697 l 352 601 z "},"â":{"ha":588,"x_min":42,"x_max":513,"o":"m 513 0 l 411 0 l 411 72 q 233 -9 344 -9 q 95 39 149 -9 q 42 165 42 87 q 99 282 42 242 q 256 322 156 322 l 402 322 l 402 342 q 284 448 402 448 q 129 394 209 448 l 79 464 q 299 541 178 541 q 455 492 398 541 q 513 344 513 442 l 513 0 m 401 243 l 275 243 q 153 168 153 243 q 183 108 153 129 q 268 87 213 87 q 362 118 324 87 q 401 199 401 149 l 401 243 m 239 736 l 344 736 l 467 601 l 369 601 l 292 657 l 215 601 l 117 601 l 239 736 z "},"´":{"ha":835,"x_min":339,"x_max":563,"o":"m 441 630 l 339 630 l 445 775 l 563 726 l 441 630 z "},"ä":{"ha":588,"x_min":42,"x_max":513,"o":"m 513 0 l 411 0 l 411 72 q 233 -9 344 -9 q 95 39 149 -9 q 42 165 42 87 q 99 282 42 242 q 256 322 156 322 l 402 322 l 402 342 q 284 448 402 448 q 129 394 209 448 l 79 464 q 299 541 178 541 q 455 492 398 541 q 513 344 513 442 l 513 0 m 401 243 l 275 243 q 153 168 153 243 q 183 108 153 129 q 268 87 213 87 q 362 118 324 87 q 401 199 401 149 l 401 243 m 139 663 q 156 707 139 690 q 200 725 173 725 q 245 707 228 725 q 262 663 262 690 q 245 619 262 637 q 200 601 228 601 q 158 620 175 601 q 139 663 139 639 m 325 663 q 343 707 325 689 q 387 725 361 725 q 430 707 412 725 q 448 663 448 690 q 430 619 448 637 q 387 601 411 601 q 343 620 361 601 q 325 663 325 639 z "},"æ":{"ha":954,"x_min":42,"x_max":912,"o":"m 912 231 l 514 231 q 561 129 515 169 q 670 89 606 89 q 812 152 762 89 l 876 82 q 660 -9 790 -9 q 457 89 533 -9 q 243 -9 377 -9 q 100 40 158 -9 q 42 165 42 89 q 256 318 42 318 l 402 318 l 402 342 q 284 448 402 448 q 129 394 209 448 l 79 464 q 299 541 178 541 q 477 467 424 541 q 660 541 550 541 q 842 475 772 541 q 912 295 912 408 l 912 231 m 401 231 l 275 231 q 162 202 180 231 q 153 168 153 189 q 183 108 153 129 q 268 87 213 87 q 362 118 324 87 q 401 199 401 149 l 401 231 m 800 316 q 760 412 796 378 q 664 445 723 445 q 563 410 606 445 q 515 318 521 375 l 800 316 z "},"‍":{"ha":1067,"x_min":232,"x_max":1071,"o":"m 987 570 l 1071 640 l 726 946 l 1055 1271 l 981 1349 l 650 1027 l 325 1336 l 242 1261 l 566 954 l 232 654 l 302 568 l 594 825 l 594 -16 l 699 -16 l 699 825 l 987 570 z "},"à":{"ha":588,"x_min":42,"x_max":513,"o":"m 513 0 l 411 0 l 411 72 q 233 -9 344 -9 q 95 39 149 -9 q 42 165 42 87 q 99 282 42 242 q 256 322 156 322 l 402 322 l 402 342 q 284 448 402 448 q 129 394 209 448 l 79 464 q 299 541 178 541 q 455 492 398 541 q 513 344 513 442 l 513 0 m 401 243 l 275 243 q 153 168 153 243 q 183 108 153 129 q 268 87 213 87 q 362 118 324 87 q 401 199 401 149 l 401 243 m 385 601 l 282 601 l 160 697 l 279 747 l 385 601 z "},"&":{"ha":696,"x_min":49,"x_max":673,"o":"m 49 196 q 213 398 49 309 q 154 478 169 450 q 139 551 139 507 q 196 673 139 629 q 338 717 253 717 q 475 675 421 717 q 530 561 530 633 q 369 374 530 461 q 500 223 437 292 q 548 331 531 271 l 630 272 q 571 152 606 206 q 617 107 583 140 q 673 52 651 73 l 599 -19 l 507 73 q 286 -9 417 -9 q 117 47 185 -9 q 49 196 49 103 m 299 89 q 434 147 362 89 q 273 325 318 272 q 160 192 160 263 q 199 117 160 146 q 299 89 238 89 m 251 558 q 263 510 251 531 q 311 445 275 488 q 424 550 424 501 q 399 608 424 587 q 338 629 374 629 q 277 607 304 629 q 251 558 251 586 z "},"≈":{"ha":693,"x_min":89,"x_max":604,"o":"m 604 603 q 564 465 604 514 q 460 415 524 415 q 394 427 422 415 q 304 477 365 438 q 249 495 272 495 q 196 420 203 495 l 89 420 q 129 558 89 508 q 235 607 169 607 q 377 556 291 607 q 444 527 422 527 q 480 544 468 527 q 498 603 493 561 l 604 603 m 604 379 q 564 241 604 291 q 460 190 524 190 q 394 202 422 190 q 304 252 365 213 q 249 271 272 271 q 196 195 203 271 l 89 195 q 129 333 89 284 q 235 382 169 382 q 377 331 291 382 q 444 302 422 302 q 480 319 468 302 q 498 379 493 336 l 604 379 z "},"å":{"ha":588,"x_min":42,"x_max":513,"o":"m 513 0 l 411 0 l 411 72 q 233 -9 344 -9 q 95 39 149 -9 q 42 165 42 87 q 99 282 42 242 q 256 322 156 322 l 402 322 l 402 342 q 284 448 402 448 q 129 394 209 448 l 79 464 q 299 541 178 541 q 455 492 398 541 q 513 344 513 442 l 513 0 m 404 689 q 371 616 404 647 q 295 584 338 584 q 219 616 252 584 q 186 689 186 647 q 219 762 186 730 q 295 793 252 793 q 371 763 338 793 q 404 689 404 730 m 401 243 l 275 243 q 153 168 153 243 q 183 108 153 129 q 268 87 213 87 q 362 118 324 87 q 401 199 401 149 l 401 243 m 349 690 q 334 730 349 714 q 296 745 319 745 q 255 730 271 745 q 239 690 239 714 q 255 649 239 664 q 296 633 271 633 q 335 649 321 633 q 349 690 349 664 z "},"↓":{"ha":520,"x_min":0,"x_max":0,"o":""},"←":{"ha":939,"x_min":0,"x_max":0,"o":""},"→":{"ha":941,"x_min":0,"x_max":0,"o":""},"↑":{"ha":517,"x_min":0,"x_max":0,"o":""},"^":{"ha":395,"x_min":21,"x_max":368,"o":"m 273 743 l 196 828 l 119 743 l 21 743 l 145 901 l 246 901 l 368 743 l 273 743 z "},"~":{"ha":567,"x_min":50,"x_max":517,"o":"m 137 306 l 50 331 q 92 436 56 399 q 186 473 127 473 q 306 431 231 473 q 381 405 357 405 q 428 470 420 405 l 517 445 q 475 339 511 377 q 379 302 438 302 q 259 345 336 302 q 185 371 209 371 q 137 306 143 371 z "},"*":{"ha":432,"x_min":62,"x_max":372,"o":"m 338 431 l 242 495 l 251 381 l 182 381 l 190 497 l 96 432 l 62 490 l 163 541 l 62 591 l 96 650 l 189 587 l 182 700 l 251 700 l 243 587 l 338 650 l 372 591 l 269 541 l 372 490 l 338 431 z "},"@":{"ha":906,"x_min":52,"x_max":859,"o":"m 52 266 q 171 555 52 435 q 460 674 291 674 q 743 555 627 674 q 859 262 859 435 q 818 88 859 155 q 709 21 777 21 q 630 55 659 21 q 600 150 601 89 q 420 21 544 21 q 267 92 332 21 q 202 266 202 162 q 265 445 202 374 q 430 517 328 517 q 515 493 474 517 q 576 435 557 470 l 576 503 l 672 503 l 672 152 q 726 82 672 82 q 784 129 759 82 q 809 248 809 176 q 711 520 809 410 q 462 630 613 630 q 203 523 311 630 q 96 266 96 417 q 197 18 96 117 q 447 -82 298 -82 q 631 -21 567 -82 l 653 -59 q 561 -107 619 -89 q 447 -126 503 -126 q 165 -14 278 -126 q 52 266 52 97 m 440 420 q 341 377 379 420 q 304 271 304 334 q 341 160 304 205 q 440 115 378 115 q 539 160 501 115 q 577 271 577 205 q 538 377 577 335 q 440 420 500 420 z "},"ã":{"ha":588,"x_min":42,"x_max":513,"o":"m 513 0 l 411 0 l 411 72 q 233 -9 344 -9 q 95 39 149 -9 q 42 165 42 87 q 99 282 42 242 q 256 322 156 322 l 402 322 l 402 342 q 284 448 402 448 q 129 394 209 448 l 79 464 q 299 541 178 541 q 455 492 398 541 q 513 344 513 442 l 513 0 m 401 243 l 275 243 q 153 168 153 243 q 183 108 153 129 q 268 87 213 87 q 362 118 324 87 q 401 199 401 149 l 401 243 m 294 623 q 233 646 243 646 q 199 601 202 646 l 126 601 q 150 696 126 660 q 215 732 173 732 q 289 709 239 732 q 352 684 341 684 q 382 729 382 684 l 458 729 q 365 599 457 599 q 294 623 342 599 z "},"b":{"ha":673,"x_min":82,"x_max":627,"o":"m 627 269 q 553 70 627 149 q 375 -9 478 -9 q 193 80 273 -9 l 193 0 l 82 0 l 82 743 l 193 743 l 193 440 q 367 541 261 541 q 552 465 477 541 q 627 269 627 389 m 349 92 q 466 141 418 92 q 514 266 514 190 q 466 392 514 342 q 351 442 418 442 q 238 392 284 442 q 192 266 192 341 q 238 141 192 190 q 349 92 284 92 z "},"\\":{"ha":523,"x_min":29,"x_max":493,"o":"m 29 759 l 129 759 l 493 0 l 392 0 l 29 759 z "},"|":{"ha":258,"x_min":87,"x_max":170,"o":"m 87 -153 l 87 783 l 170 783 l 170 -153 l 87 -153 z "},"[":{"ha":357,"x_min":89,"x_max":315,"o":"m 315 759 l 315 674 l 176 674 l 176 -56 l 315 -56 l 315 -140 l 89 -140 l 89 759 l 315 759 z "},"]":{"ha":357,"x_min":42,"x_max":268,"o":"m 42 674 l 42 759 l 268 759 l 268 -140 l 42 -140 l 42 -56 l 179 -56 l 179 674 l 42 674 z "},"˘":{"ha":543,"x_min":100,"x_max":442,"o":"m 272 580 q 152 619 199 580 q 100 727 106 659 l 183 727 q 272 664 203 664 q 359 727 339 664 l 442 727 q 392 619 438 657 q 272 580 345 580 z "},"¦":{"ha":276,"x_min":92,"x_max":186,"o":"m 92 431 l 92 759 l 186 759 l 186 431 l 92 431 m 92 -24 l 92 304 l 186 304 l 186 -24 l 92 -24 z "},"c":{"ha":577,"x_min":46,"x_max":543,"o":"m 46 266 q 129 464 46 387 q 334 541 212 541 q 537 458 454 541 l 471 377 q 332 437 402 437 q 210 390 261 437 q 159 271 159 344 q 210 145 159 196 q 335 95 261 95 q 477 162 410 95 l 543 90 q 318 -9 441 -9 q 125 68 203 -9 q 46 266 46 145 z "},"ˇ":{"ha":550,"x_min":100,"x_max":450,"o":"m 326 762 l 222 762 l 100 896 l 198 896 l 275 840 l 352 896 l 450 896 l 326 762 z "},"ç":{"ha":578,"x_min":47,"x_max":543,"o":"m 301 -212 q 216 -190 249 -212 l 242 -133 q 282 -143 262 -143 q 311 -132 301 -143 q 322 -105 322 -122 q 311 -75 322 -87 q 282 -63 299 -63 q 252 -69 269 -63 l 286 -6 q 115 81 182 6 q 47 271 47 156 q 130 464 47 387 q 335 541 213 541 q 538 458 452 541 l 473 377 q 332 437 404 437 q 210 390 261 437 q 159 271 159 344 q 210 145 159 196 q 335 95 261 95 q 477 162 410 95 l 543 90 q 357 -6 461 9 l 339 -39 q 410 -117 410 -47 q 379 -184 410 -156 q 301 -212 348 -212 z "},"¸":{"ha":282,"x_min":42,"x_max":236,"o":"m 126 -212 q 42 -190 74 -212 l 69 -133 q 107 -143 87 -143 q 137 -132 126 -143 q 149 -105 149 -122 q 137 -75 149 -87 q 109 -63 126 -63 q 79 -69 93 -63 l 115 0 l 186 0 l 165 -39 q 236 -117 236 -47 q 205 -184 236 -156 q 126 -212 173 -212 z "},"¢":{"ha":587,"x_min":49,"x_max":546,"o":"m 289 -122 l 289 -6 q 117 80 186 6 q 49 265 49 155 q 117 449 49 374 q 289 538 185 524 l 289 657 l 354 657 l 354 540 q 540 458 467 531 l 474 377 q 354 435 414 428 l 354 96 q 480 162 421 103 l 546 90 q 354 -6 462 4 l 354 -122 l 289 -122 m 289 431 q 198 374 233 418 q 162 269 162 331 q 197 162 162 208 q 289 100 232 116 l 289 431 z "},"ˆ":{"ha":676,"x_min":166,"x_max":515,"o":"m 289 736 l 392 736 l 515 601 l 418 601 l 341 657 l 263 601 l 166 601 l 289 736 z "},":":{"ha":294,"x_min":72,"x_max":222,"o":"m 72 67 q 94 120 72 99 q 146 142 116 142 q 200 120 178 142 q 222 67 222 99 q 200 14 222 36 q 146 -9 178 -9 q 95 14 116 -9 q 72 67 72 36 m 72 312 q 94 365 72 344 q 146 387 116 387 q 200 365 178 387 q 222 312 222 344 q 200 260 222 282 q 146 238 178 238 q 95 259 116 238 q 72 312 72 282 z "},",":{"ha":282,"x_min":66,"x_max":216,"o":"m 140 140 q 193 119 170 140 q 216 67 216 97 q 189 -6 216 40 l 129 -106 l 70 -106 l 107 -1 q 66 66 66 19 q 88 119 66 97 q 140 140 110 140 z "},"©":{"ha":833,"x_min":54,"x_max":780,"o":"m 780 352 q 674 95 780 202 q 417 -11 567 -11 q 160 95 266 -11 q 54 349 54 200 q 160 606 54 500 q 417 713 266 713 q 673 607 568 713 q 780 352 780 503 m 736 351 q 644 576 736 484 q 420 669 553 669 q 194 576 286 669 q 102 349 102 483 q 193 124 102 216 q 417 32 284 32 q 643 126 553 32 q 736 351 736 222 m 584 225 q 430 153 517 153 q 284 208 341 153 q 226 352 226 263 q 286 496 226 441 q 435 551 345 551 q 581 491 524 551 l 533 432 q 431 477 480 477 q 343 442 379 477 q 306 355 306 408 q 344 264 306 301 q 437 228 381 228 q 537 276 490 228 l 584 225 z "},"¤":{"ha":757,"x_min":60,"x_max":696,"o":"m 150 152 q 97 316 97 226 q 149 480 97 410 l 60 567 l 132 637 l 222 548 q 377 593 291 593 q 536 547 464 593 l 626 637 l 696 567 l 607 478 q 659 316 659 405 q 604 153 659 228 l 696 62 l 627 -9 l 531 84 q 378 43 464 43 q 225 84 292 43 l 130 -9 l 60 62 l 150 152 m 378 149 q 494 196 448 149 q 540 318 540 243 q 494 438 540 391 q 378 485 448 485 q 262 438 308 485 q 216 318 216 391 q 262 196 216 242 q 378 149 306 149 z "},"d":{"ha":673,"x_min":47,"x_max":593,"o":"m 47 269 q 123 465 47 389 q 309 541 199 541 q 480 451 415 541 l 480 743 l 593 743 l 593 0 l 480 0 l 480 80 q 299 -9 420 -9 q 121 69 195 -9 q 47 269 47 147 m 324 92 q 437 140 391 92 q 483 265 483 189 q 436 391 483 339 q 322 442 389 442 q 207 392 255 442 q 159 265 159 341 q 208 140 159 189 q 324 92 256 92 z "},"†":{"ha":524,"x_min":36,"x_max":490,"o":"m 206 -195 l 206 392 l 36 392 l 36 495 l 206 495 l 206 703 l 312 703 l 312 495 l 490 495 l 490 392 l 312 392 l 312 -195 l 206 -195 z "},"‡":{"ha":518,"x_min":39,"x_max":481,"o":"m 311 392 l 311 158 l 418 158 l 418 76 l 311 76 l 311 -195 l 205 -195 l 205 76 l 95 76 l 95 158 l 205 158 l 205 392 l 39 392 l 39 495 l 205 495 l 205 703 l 311 703 l 311 495 l 481 495 l 481 392 l 311 392 z "},"°":{"ha":417,"x_min":54,"x_max":362,"o":"m 209 716 q 317 671 272 716 q 362 563 362 626 q 317 454 362 498 q 209 410 272 410 q 100 454 145 410 q 54 563 54 498 q 99 672 54 627 q 209 716 143 716 m 209 460 q 280 490 251 460 q 309 563 309 521 q 280 634 309 604 q 209 663 251 663 q 136 634 166 663 q 106 563 106 604 q 136 490 106 521 q 209 460 166 460 z "},"¨":{"ha":611,"x_min":166,"x_max":475,"o":"m 166 664 q 185 708 166 690 q 229 726 203 726 q 271 709 253 726 q 289 666 289 692 q 271 621 289 640 q 228 603 253 603 q 184 621 202 603 q 166 664 166 639 m 352 664 q 370 708 352 690 q 414 726 388 726 q 457 709 440 726 q 475 666 475 692 q 457 621 475 640 q 414 603 440 603 q 370 621 388 603 q 352 664 352 639 z "},"÷":{"ha":570,"x_min":49,"x_max":521,"o":"m 210 212 q 232 264 210 242 q 285 286 253 286 q 337 264 315 286 q 359 212 359 242 q 337 158 359 180 q 285 136 315 136 q 232 159 253 136 q 210 212 210 180 m 210 567 q 232 620 210 599 q 285 641 253 641 q 337 620 315 641 q 359 567 359 599 q 337 515 359 537 q 285 493 315 493 q 232 514 253 493 q 210 567 210 538 m 49 435 l 521 435 l 521 341 l 49 341 l 49 435 z "},"$":{"ha":620,"x_min":37,"x_max":574,"o":"m 284 -72 l 284 1 q 37 110 149 14 l 110 198 q 284 110 196 123 l 284 305 q 116 377 166 332 q 66 507 66 422 q 126 648 66 593 q 284 709 186 703 l 284 759 l 348 759 l 348 707 q 557 633 455 702 l 491 540 q 348 599 424 588 l 348 410 l 351 410 q 521 335 468 382 q 574 203 574 288 q 513 61 574 116 q 348 0 451 6 l 348 -72 l 284 -72 m 348 107 q 425 135 397 113 q 452 193 452 158 q 430 249 452 229 q 348 288 408 269 l 348 107 m 284 601 q 213 576 239 599 q 188 520 188 553 q 208 466 188 485 q 284 428 228 447 l 284 601 z "},"˙":{"ha":329,"x_min":112,"x_max":262,"o":"m 112 687 q 134 740 112 719 q 186 762 156 762 q 240 740 218 762 q 262 687 262 719 q 240 634 262 656 q 186 613 218 613 q 135 634 156 613 q 112 687 112 657 z "},"ı":{"ha":275,"x_min":82,"x_max":193,"o":"m 82 533 l 193 533 l 193 0 l 82 0 l 82 533 z "},"e":{"ha":620,"x_min":47,"x_max":577,"o":"m 577 218 l 159 218 q 212 125 163 160 q 325 89 261 89 q 477 152 427 89 l 541 82 q 316 -9 455 -9 q 125 67 202 -9 q 47 268 47 143 q 126 465 47 389 q 316 541 205 541 q 503 474 428 541 q 577 295 577 407 l 577 218 m 465 306 q 425 408 465 371 q 319 445 384 445 q 207 407 255 445 q 159 306 159 368 l 465 306 z "},"é":{"ha":620,"x_min":47,"x_max":577,"o":"m 577 218 l 159 218 q 212 125 163 160 q 325 89 261 89 q 477 152 427 89 l 541 82 q 316 -9 455 -9 q 125 67 202 -9 q 47 268 47 143 q 126 465 47 389 q 316 541 205 541 q 503 474 428 541 q 577 295 577 407 l 577 218 m 465 306 q 425 408 465 371 q 319 445 384 445 q 207 407 255 445 q 159 306 159 368 l 465 306 m 377 603 l 275 603 l 381 749 l 500 700 l 377 603 z "},"ê":{"ha":620,"x_min":47,"x_max":577,"o":"m 577 218 l 159 218 q 212 125 163 160 q 325 89 261 89 q 477 152 427 89 l 541 82 q 316 -9 455 -9 q 125 67 202 -9 q 47 268 47 143 q 126 465 47 389 q 316 541 205 541 q 503 474 428 541 q 577 295 577 407 l 577 218 m 465 306 q 425 408 465 371 q 319 445 384 445 q 207 407 255 445 q 159 306 159 368 l 465 306 m 266 736 l 369 736 l 493 601 l 395 601 l 318 657 l 241 601 l 143 601 l 266 736 z "},"ë":{"ha":620,"x_min":47,"x_max":577,"o":"m 162 663 q 180 707 162 689 q 225 725 199 725 q 268 707 251 725 q 286 663 286 690 q 268 619 286 637 q 223 601 249 601 q 180 620 198 601 q 162 663 162 639 m 348 663 q 367 707 348 689 q 410 725 385 725 q 453 707 435 725 q 471 663 471 690 q 453 619 471 637 q 410 601 435 601 q 367 620 385 601 q 348 663 348 639 m 577 218 l 159 218 q 212 125 163 160 q 325 89 261 89 q 477 152 427 89 l 541 82 q 316 -9 455 -9 q 125 67 202 -9 q 47 268 47 143 q 126 465 47 389 q 316 541 205 541 q 503 474 428 541 q 577 295 577 407 l 577 218 m 465 306 q 425 408 465 371 q 319 445 384 445 q 207 407 255 445 q 159 306 159 368 l 465 306 z "},"è":{"ha":620,"x_min":47,"x_max":577,"o":"m 412 601 l 311 601 l 189 697 l 306 747 l 412 601 m 577 218 l 159 218 q 212 125 163 160 q 325 89 261 89 q 477 152 427 89 l 541 82 q 316 -9 455 -9 q 125 67 202 -9 q 47 268 47 143 q 126 465 47 389 q 316 541 205 541 q 503 474 428 541 q 577 295 577 407 l 577 218 m 465 306 q 425 408 465 371 q 319 445 384 445 q 207 407 255 445 q 159 306 159 368 l 465 306 z "},"…":{"ha":700,"x_min":66,"x_max":634,"o":"m 66 67 q 87 120 66 99 q 140 142 109 142 q 194 120 172 142 q 216 67 216 99 q 194 14 216 36 q 140 -9 172 -9 q 89 14 107 -9 q 66 67 66 36 m 276 67 q 298 120 276 99 q 349 142 319 142 q 403 120 381 142 q 425 67 425 99 q 403 14 425 36 q 349 -9 381 -9 q 298 14 319 -9 q 276 67 276 34 m 485 67 q 507 120 485 99 q 560 142 528 142 q 612 120 590 142 q 634 67 634 99 q 612 14 634 36 q 560 -9 590 -9 q 507 14 528 -9 q 485 67 485 36 z "},"—":{"ha":727,"x_min":82,"x_max":644,"o":"m 82 228 l 82 294 l 644 294 l 644 228 l 82 228 z "},"–":{"ha":540,"x_min":82,"x_max":457,"o":"m 82 226 l 82 294 l 457 294 l 457 226 l 82 226 z "},"=":{"ha":626,"x_min":60,"x_max":566,"o":"m 60 530 l 566 530 l 566 435 l 60 435 l 60 530 m 60 341 l 566 341 l 566 246 l 60 246 l 60 341 z "},"ð":{"ha":597,"x_min":50,"x_max":548,"o":"m 399 438 q 276 587 364 501 l 183 527 l 126 581 l 221 641 q 147 703 210 651 l 242 759 q 316 696 268 739 l 401 750 l 460 696 l 372 639 q 548 268 548 448 q 483 67 548 143 q 306 -9 417 -9 q 122 59 193 -9 q 50 232 50 126 q 120 404 50 336 q 289 473 189 473 q 398 437 361 473 l 399 438 m 299 90 q 400 132 361 90 q 440 232 440 173 q 400 334 440 292 q 299 375 361 375 q 198 334 238 375 q 159 232 159 292 q 198 132 159 173 q 299 90 238 90 z "},"!":{"ha":296,"x_min":74,"x_max":223,"o":"m 79 717 l 219 717 l 219 588 l 189 226 l 109 226 l 79 588 l 79 717 m 74 67 q 97 120 74 97 q 149 142 119 142 q 201 120 179 142 q 223 67 223 97 q 201 14 223 36 q 149 -9 179 -9 q 97 14 119 -9 q 74 67 74 36 z "},"¡":{"ha":295,"x_min":73,"x_max":222,"o":"m 216 -9 l 77 -9 l 77 119 l 107 480 l 188 480 l 216 119 l 216 -9 m 73 640 q 95 692 73 670 q 149 714 117 714 q 200 692 179 714 q 222 640 222 670 q 200 588 222 610 q 149 566 179 566 q 95 588 117 566 q 73 640 73 610 z "},"f":{"ha":387,"x_min":40,"x_max":411,"o":"m 219 533 l 359 533 l 359 442 l 219 442 l 219 0 l 107 0 l 107 442 l 40 442 l 40 533 l 107 533 l 107 574 q 158 707 107 656 q 281 757 208 757 q 411 704 354 757 l 365 626 q 296 660 331 660 q 240 638 261 660 q 219 577 219 616 l 219 533 z "},"ﬁ":{"ha":662,"x_min":40,"x_max":597,"o":"m 219 533 l 359 533 l 359 442 l 219 442 l 219 0 l 107 0 l 107 442 l 40 442 l 40 533 l 107 533 l 107 574 q 158 707 107 656 q 281 757 208 757 q 411 704 354 757 l 365 626 q 296 660 331 660 q 240 638 261 660 q 219 577 219 616 l 219 533 m 580 0 l 468 0 l 468 533 l 580 533 l 580 0 m 454 690 q 475 740 454 719 q 525 760 497 760 q 576 740 554 760 q 597 690 597 719 q 576 639 597 660 q 525 619 554 619 q 475 640 497 619 q 454 690 454 660 z "},"ﬂ":{"ha":662,"x_min":40,"x_max":580,"o":"m 219 533 l 359 533 l 359 442 l 219 442 l 219 0 l 107 0 l 107 442 l 40 442 l 40 533 l 107 533 l 107 574 q 158 707 107 656 q 281 757 208 757 q 411 704 354 757 l 365 626 q 296 660 331 660 q 240 638 261 660 q 219 577 219 616 l 219 533 m 580 0 l 468 0 l 468 743 l 580 743 l 580 0 z "},"ƒ":{"ha":676,"x_min":29,"x_max":644,"o":"m 349 -36 q 288 -163 336 -115 q 165 -212 239 -212 q 29 -159 86 -212 l 79 -76 q 152 -112 117 -112 q 208 -87 185 -112 q 236 -26 231 -62 l 285 325 l 216 325 l 228 420 l 296 420 l 318 576 q 385 708 328 657 q 518 759 442 759 q 644 706 591 759 l 587 627 q 523 662 557 662 q 463 639 487 662 q 434 578 440 616 l 412 420 l 556 420 l 543 325 l 399 325 l 349 -36 z "},"⁄":{"ha":637,"x_min":-1,"x_max":640,"o":"m 640 700 l 127 0 l -1 0 l 511 700 l 640 700 z "},"g":{"ha":656,"x_min":49,"x_max":574,"o":"m 574 533 l 574 69 q 500 -142 574 -69 q 301 -215 425 -215 q 83 -139 183 -215 l 136 -54 q 295 -113 216 -113 q 467 59 467 -113 l 467 127 q 395 52 442 80 q 291 24 348 24 q 117 98 185 24 q 49 282 49 172 q 117 467 49 394 q 291 541 185 541 q 462 454 397 541 l 462 533 l 574 533 m 309 126 q 420 173 377 126 q 462 288 462 219 q 419 404 462 358 q 308 451 375 451 q 200 403 241 451 q 159 288 159 355 q 200 173 159 219 q 309 126 242 126 z "},"ß":{"ha":653,"x_min":82,"x_max":607,"o":"m 306 417 q 412 461 377 427 q 448 543 448 495 q 420 622 448 591 q 338 653 392 653 q 231 607 263 653 q 199 467 199 561 l 199 0 l 82 0 l 82 457 q 89 560 82 536 q 123 660 100 623 q 196 730 156 709 q 322 759 251 759 q 517 686 465 759 q 563 556 563 624 q 458 387 563 452 q 568 329 530 379 q 607 206 607 278 q 540 56 607 112 q 351 0 473 0 l 309 0 l 309 99 l 332 99 q 450 124 411 99 q 488 208 488 149 q 449 294 488 265 q 341 324 410 324 q 306 322 314 324 l 306 417 z "},"`":{"ha":490,"x_min":0,"x_max":0,"o":""},">":{"ha":593,"x_min":76,"x_max":548,"o":"m 548 461 l 548 335 l 76 117 l 76 232 l 430 395 l 430 407 l 76 566 l 76 680 l 548 461 z "},"≥":{"ha":617,"x_min":76,"x_max":550,"o":"m 550 461 l 550 335 l 77 117 l 77 232 l 430 395 l 430 407 l 77 566 l 77 680 l 550 461 m 76 46 l 550 46 l 550 -52 l 76 -52 l 76 46 z "},"«":{"ha":548,"x_min":56,"x_max":483,"o":"m 284 417 l 169 241 l 284 64 l 175 64 l 56 241 l 175 417 l 284 417 m 483 417 l 367 241 l 483 64 l 374 64 l 255 241 l 374 417 l 483 417 z "},"»":{"ha":548,"x_min":66,"x_max":493,"o":"m 379 241 l 265 417 l 372 417 l 493 241 l 372 64 l 265 64 l 379 241 m 182 241 l 66 417 l 175 417 l 294 241 l 175 64 l 66 64 l 182 241 z "},"‹":{"ha":349,"x_min":56,"x_max":284,"o":"m 284 417 l 169 241 l 284 64 l 175 64 l 56 241 l 175 417 l 284 417 z "},"›":{"ha":349,"x_min":66,"x_max":294,"o":"m 182 241 l 66 417 l 175 417 l 294 241 l 175 64 l 66 64 l 182 241 z "},"h":{"ha":647,"x_min":82,"x_max":573,"o":"m 193 0 l 82 0 l 82 743 l 193 743 l 193 437 q 266 513 218 485 q 371 541 315 541 q 518 485 464 541 q 573 326 573 430 l 573 0 l 460 0 l 460 292 q 338 440 460 440 q 235 400 276 440 q 193 289 193 361 l 193 0 z "},"ħ":{"ha":647,"x_min":44,"x_max":573,"o":"m 352 663 l 352 576 l 193 576 l 193 437 q 266 513 218 485 q 371 541 315 541 q 518 485 464 541 q 573 326 573 430 l 573 0 l 460 0 l 460 292 q 338 440 460 440 q 235 400 276 440 q 193 289 193 361 l 193 0 l 82 0 l 82 576 l 44 576 l 44 663 l 82 663 l 82 743 l 193 743 l 193 663 l 352 663 z "},"˝":{"ha":507,"x_min":52,"x_max":471,"o":"m 155 603 l 52 603 l 159 747 l 276 699 l 155 603 m 349 603 l 246 603 l 352 747 l 471 699 l 349 603 z "},"-":{"ha":477,"x_min":72,"x_max":405,"o":"m 72 246 l 72 352 l 405 352 l 405 246 l 72 246 z "},"i":{"ha":275,"x_min":67,"x_max":209,"o":"m 193 0 l 82 0 l 82 533 l 193 533 l 193 0 m 67 690 q 88 740 67 719 q 139 760 109 760 q 188 740 168 760 q 209 690 209 719 q 188 639 209 660 q 139 619 168 619 q 89 640 109 619 q 67 690 67 660 z "},"í":{"ha":275,"x_min":82,"x_max":312,"o":"m 190 601 l 96 601 l 202 742 l 312 693 l 190 601 m 82 533 l 193 533 l 193 0 l 82 0 l 82 533 z "},"î":{"ha":275,"x_min":-32,"x_max":316,"o":"m 82 533 l 193 533 l 193 0 l 82 0 l 82 533 m 90 736 l 195 736 l 316 601 l 219 601 l 142 657 l 66 601 l -32 601 l 90 736 z "},"ï":{"ha":275,"x_min":-9,"x_max":301,"o":"m -9 663 q 10 707 -9 689 q 54 725 29 725 q 98 707 80 725 q 116 663 116 690 q 97 619 116 637 q 53 601 79 601 q 10 620 27 601 q -9 663 -9 639 m 178 663 q 196 707 178 689 q 239 725 215 725 q 283 707 265 725 q 301 663 301 690 q 283 619 301 637 q 239 601 265 601 q 196 620 215 601 q 178 663 178 639 m 82 533 l 193 533 l 193 0 l 82 0 l 82 533 z "},"ì":{"ha":275,"x_min":-24,"x_max":200,"o":"m 200 601 l 99 601 l -24 697 l 95 747 l 200 601 m 82 533 l 193 533 l 193 0 l 82 0 l 82 533 z "},"ĳ":{"ha":604,"x_min":67,"x_max":537,"o":"m 193 0 l 82 0 l 82 533 l 193 533 l 193 0 m 67 690 q 88 740 67 719 q 139 760 109 760 q 188 740 168 760 q 209 690 209 719 q 188 639 209 660 q 139 619 168 619 q 89 640 109 619 q 67 690 67 660 m 411 533 l 523 533 l 523 -29 q 474 -162 523 -112 q 351 -212 425 -212 q 219 -159 278 -212 l 272 -76 q 341 -109 308 -109 q 411 -26 411 -109 l 411 533 m 395 690 q 416 740 395 719 q 467 760 437 760 q 516 740 495 760 q 537 690 537 719 q 516 639 537 660 q 467 619 495 619 q 417 640 435 619 q 395 690 395 660 z "},"∞":{"ha":871,"x_min":72,"x_max":799,"o":"m 799 262 q 751 132 799 183 q 627 82 703 82 q 532 107 570 82 q 435 193 494 132 q 372 130 392 149 q 316 97 351 112 q 236 82 281 82 q 119 133 166 82 q 72 262 72 185 q 117 392 72 341 q 239 442 163 442 q 339 414 295 442 q 435 322 384 385 q 531 414 487 385 q 631 442 576 442 q 753 392 707 442 q 799 262 799 341 m 162 265 q 184 200 162 226 q 242 175 206 175 q 377 259 301 175 q 239 352 291 352 q 183 327 205 352 q 162 265 162 302 m 707 265 q 686 327 707 302 q 631 352 664 352 q 493 259 581 352 q 629 175 568 175 q 685 200 663 175 q 707 265 707 226 z "},"∫":{"ha":389,"x_min":13,"x_max":372,"o":"m 359 767 q 321 777 336 777 q 262 750 279 777 q 241 683 243 720 q 238 580 238 634 q 246 351 238 514 q 252 113 252 206 q 222 -89 252 -21 q 89 -170 188 -170 q 13 -153 43 -170 l 29 -60 q 79 -72 50 -72 q 145 -19 129 -72 q 156 115 156 30 q 147 362 156 150 q 139 593 139 520 q 172 793 139 719 q 312 871 212 871 q 372 858 349 871 l 359 767 z "},"ĩ":{"ha":275,"x_min":-20,"x_max":312,"o":"m 82 533 l 193 533 l 193 0 l 82 0 l 82 533 m 149 623 q 89 646 99 646 q 54 601 57 646 l -20 601 q 4 696 -20 660 q 69 732 27 732 q 145 709 92 732 q 208 684 193 684 q 238 729 238 684 l 312 729 q 221 599 311 599 q 149 623 195 599 z "},"j":{"ha":275,"x_min":-110,"x_max":208,"o":"m 82 533 l 193 533 l 193 -29 q 144 -162 193 -112 q 21 -212 95 -212 q -110 -159 -53 -212 l -59 -76 q 11 -109 -23 -109 q 82 -26 82 -109 l 82 533 m 66 690 q 87 740 66 719 q 136 760 107 760 q 186 740 165 760 q 208 690 208 719 q 186 639 208 660 q 136 619 165 619 q 86 640 107 619 q 66 690 66 659 z "},"ĵ":{"ha":275,"x_min":-110,"x_max":315,"o":"m 82 533 l 193 533 l 193 -29 q 144 -162 193 -112 q 21 -212 95 -212 q -110 -159 -53 -212 l -59 -76 q 11 -109 -23 -109 q 82 -26 82 -109 l 82 533 m 89 736 l 192 736 l 315 601 l 218 601 l 140 657 l 63 601 l -34 601 l 89 736 z "},"k":{"ha":583,"x_min":82,"x_max":570,"o":"m 193 0 l 82 0 l 82 743 l 193 743 l 193 306 l 410 533 l 554 533 l 352 322 l 570 0 l 432 0 l 275 233 l 193 152 l 193 0 z "},"ķ":{"ha":583,"x_min":82,"x_max":570,"o":"m 193 0 l 82 0 l 82 743 l 193 743 l 193 306 l 410 533 l 554 533 l 352 322 l 570 0 l 432 0 l 275 233 l 193 152 l 193 0 m 292 -212 q 209 -190 241 -212 l 235 -133 q 273 -143 253 -143 q 304 -132 292 -143 q 315 -105 315 -122 q 304 -75 315 -87 q 275 -63 292 -63 q 245 -69 259 -63 l 281 0 l 352 0 l 332 -39 q 402 -117 402 -47 q 371 -184 402 -156 q 292 -212 339 -212 z "},"ĸ":{"ha":583,"x_min":82,"x_max":570,"o":"m 193 0 l 82 0 l 82 533 l 193 533 l 193 306 l 410 533 l 554 533 l 352 322 l 570 0 l 432 0 l 275 233 l 193 152 l 193 0 z "},"l":{"ha":275,"x_min":82,"x_max":193,"o":"m 193 0 l 82 0 l 82 743 l 193 743 l 193 0 z "},"ŀ":{"ha":404,"x_min":82,"x_max":414,"o":"m 193 0 l 82 0 l 82 743 l 193 743 l 193 0 m 265 319 q 286 372 265 351 q 339 394 308 394 q 392 372 369 394 q 414 319 414 351 q 392 267 414 289 q 339 245 369 245 q 286 266 308 245 q 265 319 265 291 z "},"{":{"ha":536,"x_min":0,"x_max":0,"o":""},"<":{"ha":593,"x_min":44,"x_max":517,"o":"m 44 335 l 44 461 l 517 680 l 517 566 l 165 407 l 165 395 l 517 232 l 517 117 l 44 335 z "},"≤":{"ha":617,"x_min":67,"x_max":540,"o":"m 67 335 l 67 461 l 540 680 l 540 566 l 186 407 l 186 395 l 540 232 l 540 117 l 67 335 m 67 46 l 540 46 l 540 -52 l 67 -52 l 67 46 z "},"¬":{"ha":830,"x_min":67,"x_max":737,"o":"m 67 447 l 737 447 l 737 89 l 656 89 l 656 358 l 67 358 l 67 447 z "},"◊":{"ha":651,"x_min":92,"x_max":560,"o":"m 92 33 l 92 470 l 560 470 l 560 33 l 92 33 z "},"ł":{"ha":321,"x_min":21,"x_max":292,"o":"m 105 700 l 216 700 l 216 377 l 292 398 l 292 292 l 216 271 l 216 0 l 105 0 l 105 239 l 21 216 l 21 322 l 105 345 l 105 700 z "},"m":{"ha":1017,"x_min":82,"x_max":941,"o":"m 193 0 l 82 0 l 82 533 l 193 533 l 193 437 q 266 513 218 485 q 371 541 315 541 q 543 437 498 541 q 740 541 621 541 q 886 485 832 541 q 941 326 941 430 l 941 0 l 829 0 l 829 292 q 706 440 829 440 q 605 402 646 440 q 563 296 564 364 l 563 0 l 450 0 l 450 292 q 422 404 450 368 q 338 440 395 440 q 235 400 276 440 q 193 289 193 361 l 193 0 z "},"¯":{"ha":425,"x_min":59,"x_max":367,"o":"m 367 689 l 367 601 l 59 601 l 59 689 l 367 689 z "},"−":{"ha":570,"x_min":49,"x_max":521,"o":"m 49 435 l 521 435 l 521 341 l 49 341 l 49 435 z "},"µ":{"ha":643,"x_min":86,"x_max":577,"o":"m 86 -195 l 86 533 l 199 533 l 199 241 q 321 93 199 93 q 424 133 382 93 q 465 245 465 173 l 465 533 l 577 533 l 577 0 l 465 0 l 465 97 q 391 20 438 49 q 291 -9 344 -9 q 199 9 246 -9 l 199 -195 l 86 -195 z "},"×":{"ha":567,"x_min":49,"x_max":518,"o":"m 284 444 l 454 616 l 517 551 l 348 382 l 518 210 l 455 146 l 284 318 l 112 146 l 49 210 l 219 382 l 49 551 l 113 616 l 284 444 z "},"n":{"ha":647,"x_min":82,"x_max":573,"o":"m 193 0 l 82 0 l 82 533 l 193 533 l 193 437 q 268 513 221 485 q 371 541 316 541 q 518 485 464 541 q 573 326 573 430 l 573 0 l 460 0 l 460 292 q 338 440 460 440 q 235 400 276 440 q 193 289 193 361 l 193 0 z "},"ń":{"ha":647,"x_min":82,"x_max":573,"o":"m 193 0 l 82 0 l 82 533 l 193 533 l 193 437 q 268 513 221 485 q 371 541 316 541 q 518 485 464 541 q 573 326 573 430 l 573 0 l 460 0 l 460 292 q 338 440 460 440 q 235 400 276 440 q 193 289 193 361 l 193 0 m 365 630 l 263 630 l 369 775 l 488 726 l 365 630 z "},"≠":{"ha":637,"x_min":64,"x_max":570,"o":"m 64 334 l 255 334 l 301 432 l 64 432 l 64 541 l 351 541 l 427 702 l 527 702 l 451 541 l 570 541 l 570 432 l 401 432 l 355 334 l 570 334 l 570 226 l 304 226 l 229 66 l 129 66 l 203 226 l 64 226 l 64 334 z "},"ñ":{"ha":647,"x_min":82,"x_max":573,"o":"m 193 0 l 82 0 l 82 533 l 193 533 l 193 437 q 268 513 221 485 q 371 541 316 541 q 518 485 464 541 q 573 326 573 430 l 573 0 l 460 0 l 460 292 q 338 440 460 440 q 235 400 276 440 q 193 289 193 361 l 193 0 m 334 623 q 273 646 284 646 q 239 601 242 646 l 165 601 q 189 696 165 660 q 255 732 213 732 q 329 709 279 732 q 392 684 381 684 q 422 729 422 684 l 498 729 q 407 599 497 599 q 334 623 382 599 z "},"#":{"ha":737,"x_min":43,"x_max":694,"o":"m 673 437 l 564 437 l 536 271 l 659 271 l 637 160 l 517 160 l 490 0 l 378 0 l 407 160 l 259 160 l 231 0 l 119 0 l 146 160 l 43 160 l 66 271 l 165 271 l 195 437 l 80 437 l 102 547 l 213 547 l 242 717 l 354 717 l 325 547 l 473 547 l 501 717 l 613 717 l 583 547 l 694 547 l 673 437 m 454 437 l 306 437 l 276 271 l 424 271 l 454 437 z "},"o":{"ha":653,"x_min":46,"x_max":607,"o":"m 326 92 q 447 140 399 92 q 495 266 495 189 q 447 392 495 344 q 326 441 399 441 q 206 392 253 441 q 159 266 159 344 q 206 142 159 189 q 326 92 253 92 m 326 -9 q 126 71 206 -9 q 46 266 46 150 q 126 462 46 382 q 326 541 206 541 q 527 462 447 541 q 607 266 607 382 q 527 72 607 155 q 326 -9 447 -9 z "},"ó":{"ha":653,"x_min":46,"x_max":607,"o":"m 326 92 q 447 140 399 92 q 495 266 495 189 q 447 392 495 344 q 326 441 399 441 q 206 392 253 441 q 159 266 159 344 q 206 142 159 189 q 326 92 253 92 m 326 -9 q 126 71 206 -9 q 46 266 46 150 q 126 462 46 382 q 326 541 206 541 q 527 462 447 541 q 607 266 607 382 q 527 72 607 155 q 326 -9 447 -9 m 378 601 l 276 601 l 382 747 l 500 697 l 378 601 z "},"ô":{"ha":653,"x_min":46,"x_max":607,"o":"m 326 92 q 447 140 399 92 q 495 266 495 189 q 447 392 495 344 q 326 441 399 441 q 206 392 253 441 q 159 266 159 344 q 206 142 159 189 q 326 92 253 92 m 326 -9 q 126 71 206 -9 q 46 266 46 150 q 126 462 46 382 q 326 541 206 541 q 527 462 447 541 q 607 266 607 382 q 527 72 607 155 q 326 -9 447 -9 m 276 736 l 379 736 l 503 601 l 405 601 l 328 657 l 251 601 l 153 601 l 276 736 z "},"ö":{"ha":653,"x_min":46,"x_max":607,"o":"m 169 663 q 187 707 169 690 q 231 725 205 725 q 274 707 256 725 q 292 663 292 690 q 273 619 292 637 q 229 601 255 601 q 186 620 203 601 q 169 663 169 637 m 354 663 q 372 707 354 689 q 417 725 391 725 q 459 707 441 725 q 477 663 477 690 q 459 619 477 637 q 417 601 441 601 q 372 620 391 601 q 354 663 354 639 m 326 92 q 447 140 399 92 q 495 266 495 189 q 447 392 495 344 q 326 441 399 441 q 206 392 253 441 q 159 266 159 344 q 206 142 159 189 q 326 92 253 92 m 326 -9 q 126 71 206 -9 q 46 266 46 150 q 126 462 46 382 q 326 541 206 541 q 527 462 447 541 q 607 266 607 382 q 527 72 607 155 q 326 -9 447 -9 z "},"œ":{"ha":1068,"x_min":46,"x_max":1027,"o":"m 1027 218 l 609 218 q 660 125 611 162 q 773 89 709 89 q 926 152 873 89 l 991 82 q 766 -9 905 -9 q 550 96 626 -9 q 326 -9 467 -9 q 126 71 206 -9 q 46 266 46 150 q 126 462 46 382 q 326 541 206 541 q 550 437 467 541 q 763 541 626 541 q 951 474 876 541 q 1027 295 1027 407 l 1027 218 m 326 92 q 447 140 399 92 q 495 266 495 189 q 447 392 495 344 q 326 441 399 441 q 206 392 253 441 q 159 266 159 344 q 206 142 159 189 q 326 92 253 92 m 914 306 q 873 408 914 371 q 769 445 832 445 q 657 407 704 445 q 609 306 609 368 l 914 306 z "},"˛":{"ha":216,"x_min":19,"x_max":198,"o":"m 109 -49 q 86 -116 86 -90 q 112 -146 86 -146 q 149 -122 137 -146 l 198 -156 q 106 -212 163 -212 q 44 -188 70 -212 q 19 -125 19 -163 q 50 -39 19 -83 l 72 -9 l 135 -9 l 109 -49 z "},"ò":{"ha":653,"x_min":46,"x_max":607,"o":"m 397 601 l 294 601 l 172 697 l 289 747 l 397 601 m 326 92 q 447 140 399 92 q 495 266 495 189 q 447 392 495 344 q 326 441 399 441 q 206 392 253 441 q 159 266 159 344 q 206 142 159 189 q 326 92 253 92 m 326 -9 q 126 71 206 -9 q 46 266 46 150 q 126 462 46 382 q 326 541 206 541 q 527 462 447 541 q 607 266 607 382 q 527 72 607 155 q 326 -9 447 -9 z "},"½":{"ha":931,"x_min":36,"x_max":886,"o":"m 624 759 l 696 759 l 322 -9 l 251 -9 l 624 759 m 730 183 q 791 251 775 228 q 808 299 808 275 q 789 340 808 324 q 740 357 770 357 q 656 306 693 357 l 603 338 q 742 420 654 420 q 835 386 798 420 q 873 298 873 352 q 798 163 873 241 l 700 66 l 886 66 l 886 0 l 607 0 l 607 59 l 730 183 m 36 700 l 183 700 l 183 291 l 119 291 l 119 640 l 36 640 l 36 700 z "},"¼":{"ha":865,"x_min":36,"x_max":826,"o":"m 593 759 l 664 759 l 291 -9 l 219 -9 l 593 759 m 710 166 l 710 242 l 776 242 l 776 166 l 826 166 l 826 103 l 776 103 l 776 0 l 710 0 l 710 103 l 536 103 l 536 165 l 684 410 l 760 410 l 613 166 l 710 166 m 36 700 l 183 700 l 183 291 l 119 291 l 119 640 l 36 640 l 36 700 z "},"¹":{"ha":269,"x_min":42,"x_max":189,"o":"m 42 700 l 189 700 l 189 291 l 125 291 l 125 640 l 42 640 l 42 700 z "},"ª":{"ha":352,"x_min":59,"x_max":278,"o":"m 278 467 l 231 467 l 231 500 q 156 462 198 462 q 85 485 112 462 q 59 543 59 507 q 159 617 59 617 l 226 617 l 226 626 q 172 674 226 674 q 100 650 140 674 l 77 683 q 172 717 120 717 q 278 627 278 717 l 278 467 m 226 580 l 168 580 q 112 544 112 580 q 165 507 112 507 q 208 522 189 507 q 226 560 226 537 l 226 580 z "},"º":{"ha":379,"x_min":56,"x_max":322,"o":"m 189 505 q 247 528 225 505 q 269 588 269 551 q 247 647 269 624 q 189 670 225 670 q 131 647 153 670 q 109 588 109 624 q 132 528 109 551 q 189 505 155 505 m 189 457 q 94 495 132 457 q 56 587 56 533 q 94 679 56 641 q 189 717 132 717 q 284 680 246 717 q 322 587 322 643 q 285 495 322 533 q 189 457 246 457 z "},"ø":{"ha":653,"x_min":46,"x_max":607,"o":"m 262 -1 l 213 -106 l 113 -106 l 178 32 q 81 131 116 69 q 46 266 46 193 q 126 462 46 382 q 326 541 206 541 q 410 530 368 541 l 454 623 l 554 623 l 493 491 q 607 266 607 408 q 527 71 607 150 q 326 -9 447 -9 q 262 -1 302 -9 m 159 261 q 222 126 159 175 l 367 437 q 326 441 349 441 q 205 392 252 441 q 159 261 159 344 m 495 268 q 447 392 495 348 l 306 93 q 326 92 311 92 q 447 141 399 92 q 495 268 495 190 z "},"õ":{"ha":653,"x_min":46,"x_max":607,"o":"m 326 92 q 447 140 399 92 q 495 266 495 189 q 447 392 495 344 q 326 441 399 441 q 206 392 253 441 q 159 266 159 344 q 206 142 159 189 q 326 92 253 92 m 326 -9 q 126 71 206 -9 q 46 266 46 150 q 126 462 46 382 q 326 541 206 541 q 527 462 447 541 q 607 266 607 382 q 527 72 607 155 q 326 -9 447 -9 m 329 623 q 269 646 279 646 q 235 601 238 646 l 160 601 q 184 696 160 660 q 249 732 208 732 q 325 709 272 732 q 388 684 374 684 q 418 729 418 684 l 493 729 q 401 599 491 599 q 329 623 375 599 z "},"p":{"ha":673,"x_min":82,"x_max":627,"o":"m 627 269 q 553 70 627 149 q 375 -9 478 -9 q 193 80 273 -9 l 193 -195 l 82 -195 l 82 533 l 193 533 l 193 440 q 367 541 261 541 q 552 465 477 541 q 627 269 627 389 m 349 92 q 466 141 418 92 q 514 266 514 190 q 466 392 514 342 q 351 442 418 442 q 238 392 284 442 q 192 266 192 341 q 238 141 192 190 q 349 92 284 92 z "},"¶":{"ha":673,"x_min":36,"x_max":573,"o":"m 273 759 l 573 759 l 573 -112 l 480 -112 l 480 663 l 368 663 l 368 -112 l 278 -112 l 278 368 q 232 365 262 365 q 74 432 120 365 q 36 557 36 493 q 97 702 36 646 q 273 759 158 759 z "},"(":{"ha":332,"x_min":50,"x_max":299,"o":"m 162 312 q 201 74 162 199 q 299 -133 241 -52 l 180 -133 q 89 67 129 -60 q 50 312 50 193 q 89 558 50 431 q 180 759 129 686 l 299 759 q 202 553 242 679 q 162 312 162 431 z "},")":{"ha":332,"x_min":33,"x_max":282,"o":"m 172 312 q 132 551 172 425 q 33 759 93 676 l 152 759 q 243 559 205 686 q 282 312 282 432 q 243 67 282 193 q 152 -133 205 -60 l 33 -133 q 132 73 92 -52 q 172 312 172 195 z "},"∂":{"ha":619,"x_min":49,"x_max":558,"o":"m 558 369 q 500 105 558 208 q 289 -9 435 -9 q 117 62 186 -9 q 49 236 49 133 q 114 390 49 334 q 266 447 179 447 q 369 426 322 447 q 440 377 417 405 q 262 614 440 614 q 159 581 198 614 l 143 570 l 82 647 q 282 714 170 714 q 471 634 391 714 q 558 369 558 550 m 159 228 q 194 137 159 172 q 289 102 229 102 q 388 141 348 102 q 437 246 428 180 l 438 272 q 279 347 372 347 q 193 314 228 347 q 159 228 159 282 z "},"%":{"ha":788,"x_min":44,"x_max":745,"o":"m 347 558 q 304 445 347 491 q 196 398 261 398 q 88 445 132 398 q 44 557 44 491 q 88 671 44 624 q 196 717 132 717 q 304 672 262 717 q 347 558 347 624 m 712 700 l 199 0 l 69 0 l 583 700 l 712 700 m 252 557 q 236 607 252 587 q 195 627 219 627 q 154 607 170 627 q 137 557 137 587 q 155 506 137 527 q 196 485 172 485 q 236 507 221 485 q 252 557 252 524 m 745 152 q 701 39 745 86 q 593 -9 657 -9 q 485 38 528 -9 q 442 152 442 84 q 486 265 442 218 q 594 312 530 312 q 702 266 659 312 q 745 152 745 219 m 653 149 q 636 199 653 179 q 594 219 619 219 q 553 199 570 219 q 537 149 537 179 q 554 98 537 119 q 597 77 571 77 q 637 99 620 77 q 653 149 653 119 z "},".":{"ha":281,"x_min":66,"x_max":216,"o":"m 66 67 q 87 120 66 99 q 140 142 109 142 q 194 120 172 142 q 216 67 216 99 q 194 14 216 36 q 140 -9 172 -9 q 89 14 107 -9 q 66 67 66 36 z "},"·":{"ha":292,"x_min":72,"x_max":221,"o":"m 72 319 q 93 372 72 351 q 146 394 115 394 q 198 372 176 394 q 221 319 221 351 q 198 267 221 289 q 146 245 176 245 q 93 266 115 245 q 72 319 72 289 z "},"‰":{"ha":1168,"x_min":49,"x_max":1133,"o":"m 351 556 q 307 442 351 488 q 199 395 263 395 q 92 442 135 395 q 49 554 49 488 q 92 668 49 621 q 200 714 136 714 q 308 669 266 714 q 351 556 351 621 m 716 700 l 202 0 l 73 0 l 587 700 l 716 700 m 256 553 q 240 604 256 583 q 199 624 223 624 q 158 604 173 624 q 142 553 142 583 q 159 503 142 523 q 200 483 176 483 q 241 503 223 483 q 256 553 256 523 m 749 152 q 705 39 749 86 q 597 -9 662 -9 q 490 38 533 -9 q 447 152 447 84 q 490 265 447 218 q 599 312 534 312 q 706 266 660 312 q 749 152 749 219 m 656 149 q 639 199 656 179 q 599 219 623 219 q 558 199 574 219 q 541 149 541 179 q 558 98 541 119 q 600 77 576 77 q 640 99 624 77 q 656 149 656 116 m 1133 152 q 1089 39 1133 86 q 981 -9 1045 -9 q 873 38 916 -9 q 830 152 830 84 q 874 265 830 218 q 982 312 918 312 q 1090 266 1047 312 q 1133 152 1133 219 m 1041 149 q 1024 199 1041 179 q 982 219 1007 219 q 941 199 958 219 q 925 149 925 179 q 942 98 925 119 q 984 77 959 77 q 1024 99 1008 77 q 1041 149 1041 119 z "},"π":{"ha":747,"x_min":30,"x_max":720,"o":"m 203 533 l 720 533 l 720 432 l 604 432 l 604 0 l 493 0 l 493 432 l 339 432 q 314 198 335 329 q 268 0 292 66 l 156 0 q 203 209 183 80 q 226 432 223 338 l 210 432 q 150 413 173 432 q 127 367 127 394 q 136 322 127 341 l 52 288 q 30 374 30 331 q 76 489 30 445 q 203 533 122 533 z "},"+":{"ha":570,"x_min":49,"x_max":521,"o":"m 239 150 l 239 341 l 49 341 l 49 435 l 239 435 l 239 623 l 329 623 l 329 435 l 521 435 l 521 341 l 329 341 l 329 150 l 239 150 z "},"±":{"ha":570,"x_min":49,"x_max":521,"o":"m 239 276 l 239 412 l 49 412 l 49 507 l 239 507 l 239 640 l 329 640 l 329 507 l 521 507 l 521 412 l 329 412 l 329 276 l 239 276 m 49 221 l 521 221 l 521 136 l 49 136 l 49 221 z "},"∏":{"ha":803,"x_min":92,"x_max":710,"o":"m 710 -212 l 587 -212 l 587 676 l 216 676 l 216 -212 l 92 -212 l 92 790 l 710 790 l 710 -212 z "},"q":{"ha":673,"x_min":47,"x_max":593,"o":"m 47 269 q 122 466 47 391 q 306 541 196 541 q 480 440 415 541 l 480 533 l 593 533 l 593 -195 l 480 -195 l 480 80 q 299 -9 399 -9 q 122 70 196 -9 q 47 269 47 149 m 324 92 q 437 141 391 92 q 483 266 483 190 q 436 392 483 341 q 322 442 389 442 q 207 392 255 442 q 159 266 159 342 q 208 141 159 190 q 324 92 256 92 z "},"?":{"ha":510,"x_min":36,"x_max":457,"o":"m 302 218 l 189 218 l 189 279 q 198 337 189 318 q 241 389 208 357 l 314 462 q 336 525 336 487 q 313 587 336 563 q 251 611 289 611 q 186 588 212 611 q 158 525 160 564 l 36 525 q 105 665 46 614 q 255 716 165 716 q 401 667 345 716 q 457 531 457 617 q 422 431 457 473 q 368 372 401 402 q 321 325 334 341 q 302 262 302 299 l 302 218 m 170 69 q 193 121 170 99 q 248 143 216 143 q 302 122 279 143 q 325 70 325 100 q 303 16 325 39 q 249 -6 281 -6 q 194 16 218 -6 q 170 69 170 39 z "},"¿":{"ha":510,"x_min":53,"x_max":473,"o":"m 206 491 l 319 491 l 319 430 q 311 371 319 389 q 269 319 302 352 l 196 246 q 172 183 172 219 q 196 122 172 146 q 259 97 221 97 q 322 121 296 97 q 352 183 348 145 l 473 183 q 404 44 462 95 q 255 -7 345 -7 q 109 42 165 -7 q 53 178 53 92 q 86 278 53 236 q 142 338 106 301 q 189 385 175 367 q 206 447 206 407 l 206 491 m 339 640 q 316 588 339 610 q 262 566 294 566 q 208 587 231 566 q 185 640 185 609 q 208 692 185 670 q 262 713 231 713 q 316 692 294 713 q 339 640 339 670 z "},"\"":{"ha":375,"x_min":77,"x_max":298,"o":"m 77 454 l 77 700 l 156 700 l 156 454 l 77 454 m 219 454 l 219 700 l 298 700 l 298 454 l 219 454 z "},"„":{"ha":369,"x_min":36,"x_max":325,"o":"m 73 6 q 46 53 46 21 q 64 101 46 83 q 109 119 82 119 q 155 102 137 119 q 173 59 173 86 q 156 4 173 30 l 96 -82 l 36 -82 l 73 6 m 226 6 q 199 53 199 20 q 217 101 199 83 q 262 119 235 119 q 307 102 289 119 q 325 59 325 86 q 308 4 325 30 l 249 -82 l 188 -82 l 226 6 z "},"‚":{"ha":218,"x_min":36,"x_max":173,"o":"m 73 6 q 46 53 46 21 q 64 101 46 83 q 109 119 82 119 q 155 102 137 119 q 173 59 173 86 q 156 4 173 30 l 96 -82 l 36 -82 l 73 6 z "},"'":{"ha":232,"x_min":77,"x_max":156,"o":"m 77 454 l 77 700 l 156 700 l 156 454 l 77 454 z "},"r":{"ha":398,"x_min":82,"x_max":367,"o":"m 193 229 l 193 0 l 82 0 l 82 533 l 193 533 l 193 427 q 267 508 221 477 q 365 541 314 540 l 367 428 l 361 428 q 236 375 279 428 q 193 229 193 322 z "},"√":{"ha":719,"x_min":24,"x_max":713,"o":"m 24 312 l 24 411 l 208 411 l 347 -26 l 600 759 l 713 759 l 414 -156 l 278 -156 l 126 312 l 24 312 z "},"ř":{"ha":398,"x_min":42,"x_max":391,"o":"m 193 229 l 193 0 l 82 0 l 82 533 l 193 533 l 193 427 q 267 508 221 477 q 365 541 314 540 l 367 428 l 361 428 q 236 375 279 428 q 193 229 193 322 m 269 601 l 165 601 l 42 736 l 139 736 l 216 680 l 294 736 l 391 736 l 269 601 z "},"ŗ":{"ha":398,"x_min":42,"x_max":367,"o":"m 42 -251 l 106 -56 l 218 -56 l 137 -251 l 42 -251 m 193 229 l 193 0 l 82 0 l 82 533 l 193 533 l 193 427 q 267 508 221 477 q 365 541 314 540 l 367 428 l 361 428 q 236 375 279 428 q 193 229 193 322 z "},"®":{"ha":833,"x_min":54,"x_max":780,"o":"m 780 352 q 674 95 780 202 q 417 -11 567 -11 q 160 95 266 -11 q 54 349 54 200 q 160 606 54 500 q 417 713 266 713 q 673 607 568 713 q 780 352 780 503 m 736 351 q 644 576 736 484 q 420 669 553 669 q 194 576 286 669 q 102 349 102 483 q 193 124 102 216 q 417 32 284 32 q 643 126 553 32 q 736 351 736 222 m 507 299 l 611 158 l 527 158 l 432 289 l 347 289 l 347 158 l 279 158 l 279 550 l 427 550 q 554 519 515 550 q 593 421 593 488 q 507 299 593 325 m 428 349 q 504 366 483 349 q 525 422 525 382 q 504 475 525 460 q 430 490 483 490 l 347 490 l 347 349 l 428 349 z "},"}":{"ha":536,"x_min":0,"x_max":0,"o":""},"˚":{"ha":378,"x_min":80,"x_max":298,"o":"m 298 689 q 265 616 298 647 q 189 584 232 584 q 113 616 146 584 q 80 689 80 647 q 113 762 80 730 q 189 793 146 793 q 265 763 231 793 q 298 689 298 730 m 243 690 q 228 730 243 714 q 189 745 213 745 q 149 730 165 745 q 133 690 133 714 q 149 649 133 664 q 189 633 165 633 q 228 649 213 633 q 243 690 243 664 z "},"s":{"ha":507,"x_min":33,"x_max":461,"o":"m 265 -9 q 33 72 136 -9 l 87 159 q 268 89 179 89 q 327 107 305 89 q 349 152 349 125 q 243 223 349 192 q 237 226 241 225 q 232 228 233 228 q 66 378 66 272 q 122 497 66 452 q 272 541 179 541 q 447 487 364 541 l 405 404 q 263 447 341 447 q 173 389 173 447 q 191 354 173 365 q 251 334 209 344 q 357 299 314 316 q 407 272 385 286 q 461 159 461 235 q 406 38 461 84 q 265 -9 351 -9 z "},"š":{"ha":507,"x_min":33,"x_max":461,"o":"m 265 -9 q 33 72 136 -9 l 87 159 q 268 89 179 89 q 327 107 305 89 q 349 152 349 125 q 243 223 349 192 q 237 226 241 225 q 232 228 233 228 q 66 378 66 272 q 122 497 66 452 q 272 541 179 541 q 447 487 364 541 l 405 404 q 263 447 341 447 q 173 389 173 447 q 191 354 173 365 q 251 334 209 344 q 357 299 314 316 q 407 272 385 286 q 461 159 461 235 q 406 38 461 84 q 265 -9 351 -9 m 305 601 l 200 601 l 79 736 l 175 736 l 252 680 l 329 736 l 427 736 l 305 601 z "},"§":{"ha":611,"x_min":52,"x_max":568,"o":"m 354 209 q 440 231 405 209 q 475 286 475 253 q 392 371 475 344 q 266 392 321 392 q 178 373 210 392 q 146 318 146 354 q 204 240 146 271 q 354 209 262 209 m 202 574 q 232 520 202 538 q 364 477 259 501 q 519 410 470 450 q 568 299 568 369 q 536 207 568 246 q 437 152 503 168 q 504 101 480 135 q 528 29 528 67 q 469 -91 528 -43 q 312 -139 410 -139 q 59 -40 169 -139 l 123 36 q 316 -44 221 -44 q 422 23 422 -44 q 389 76 422 56 q 259 126 352 99 q 102 198 152 158 q 52 314 52 239 q 85 403 52 364 q 176 452 119 442 q 96 566 96 484 q 154 694 96 646 q 304 743 212 743 q 518 674 421 743 l 461 594 q 302 650 388 650 q 229 629 256 650 q 202 574 202 609 z "},";":{"ha":296,"x_min":73,"x_max":223,"o":"m 149 142 q 201 120 179 142 q 223 69 223 99 q 196 -6 223 40 l 136 -106 l 77 -106 l 115 -1 q 73 66 73 20 q 95 120 73 97 q 149 142 117 142 m 73 312 q 95 365 73 344 q 147 387 116 387 q 200 365 179 387 q 222 312 222 344 q 200 260 222 282 q 147 238 179 238 q 96 259 115 238 q 73 312 73 282 z "},"/":{"ha":588,"x_min":29,"x_max":563,"o":"m 462 813 l 563 813 l 129 -117 l 29 -117 l 462 813 z "}," ":{"ha":275,"x_min":0,"x_max":0,"o":""},"£":{"ha":617,"x_min":59,"x_max":564,"o":"m 263 387 l 431 387 l 431 288 l 263 288 l 263 106 l 563 106 l 563 0 l 63 0 l 63 106 l 146 106 l 146 288 l 59 288 l 59 387 l 146 387 l 146 511 q 205 686 146 629 q 367 743 263 743 q 564 631 498 743 l 481 566 q 375 633 440 633 q 294 604 324 633 q 263 517 263 576 l 263 387 z "},"∑":{"ha":704,"x_min":37,"x_max":664,"o":"m 664 -212 l 37 -212 l 37 -123 l 341 295 l 50 700 l 50 790 l 644 790 l 644 676 l 229 676 l 497 296 l 210 -99 l 664 -99 l 664 -212 z "},"t":{"ha":420,"x_min":40,"x_max":411,"o":"m 219 442 l 219 172 q 240 111 219 133 q 296 89 261 89 q 365 125 329 89 l 411 44 q 281 -9 351 -9 q 158 42 208 -9 q 107 175 107 93 l 107 442 l 40 442 l 40 533 l 107 533 l 107 700 l 219 700 l 219 533 l 359 533 l 359 442 l 219 442 z "},"þ":{"ha":673,"x_min":82,"x_max":627,"o":"m 627 266 q 555 68 627 145 q 364 -9 483 -9 q 221 44 282 -9 q 200 64 208 56 l 193 73 l 193 -195 l 82 -195 l 82 743 l 193 743 l 193 460 q 202 470 199 465 q 259 513 218 490 q 365 541 306 541 q 554 464 481 541 q 627 266 627 387 m 507 268 q 460 391 507 339 q 345 442 414 442 q 236 391 279 442 q 192 266 192 339 q 236 142 192 193 q 345 92 279 92 q 460 144 412 92 q 507 268 507 196 z "},"¾":{"ha":903,"x_min":40,"x_max":868,"o":"m 633 759 l 706 759 l 332 -9 l 259 -9 l 633 759 m 752 166 l 752 242 l 818 242 l 818 166 l 868 166 l 868 103 l 818 103 l 818 0 l 752 0 l 752 103 l 577 103 l 577 165 l 726 410 l 802 410 l 653 166 l 752 166 m 63 639 l 63 700 l 306 700 l 306 646 l 206 533 q 294 498 262 533 q 325 408 325 464 q 283 316 325 352 q 172 281 241 281 q 40 324 105 281 l 70 379 q 176 345 120 345 q 236 362 213 345 q 259 410 259 378 q 234 460 259 441 q 173 480 209 480 q 116 473 136 480 l 116 527 l 212 639 l 63 639 z "},"³":{"ha":397,"x_min":54,"x_max":339,"o":"m 77 639 l 77 700 l 319 700 l 319 646 l 219 533 q 308 498 276 533 q 339 408 339 464 q 297 316 339 352 q 186 281 255 281 q 54 324 119 281 l 84 379 q 190 345 135 345 q 251 362 228 345 q 273 410 273 378 q 248 460 273 441 q 188 480 223 480 q 130 473 150 480 l 130 527 l 226 639 l 77 639 z "},"˜":{"ha":520,"x_min":96,"x_max":428,"o":"m 263 765 q 203 788 218 788 q 169 743 170 788 l 96 743 q 120 838 96 802 q 185 873 143 873 q 259 851 213 873 q 322 828 306 828 q 352 871 352 828 l 428 871 q 335 740 427 740 q 263 765 312 740 z "},"™":{"ha":1002,"x_min":59,"x_max":918,"o":"m 252 637 l 252 291 l 183 291 l 183 637 l 59 637 l 59 700 l 377 700 l 377 637 l 252 637 m 523 291 l 454 291 l 454 700 l 563 700 l 686 442 l 810 700 l 918 700 l 918 291 l 848 291 l 848 610 l 704 325 l 666 325 l 523 610 l 523 291 z "},"ౖ":{"ha":0,"x_min":427,"x_max":1188,"o":"m 583 -253 q 533 -236 554 -253 q 511 -196 511 -219 q 530 -142 511 -165 q 578 -120 551 -120 q 624 -142 604 -120 q 643 -196 643 -165 q 627 -238 643 -218 q 583 -253 607 -253 m 1186 -326 l 1188 -253 l 707 -253 q 716 -229 709 -252 q 719 -178 719 -200 q 674 -84 719 -123 q 570 -46 631 -46 q 470 -89 515 -46 q 427 -186 427 -132 q 471 -286 427 -246 q 578 -329 515 -329 l 1186 -329 l 1186 -326 z "},"²":{"ha":420,"x_min":66,"x_max":351,"o":"m 195 483 q 256 551 239 527 q 272 597 272 574 q 253 639 272 621 q 206 656 235 656 q 122 604 155 656 l 66 637 q 206 717 120 717 q 300 684 262 717 q 338 597 338 651 q 261 462 338 541 l 165 365 l 351 365 l 351 299 l 72 299 l 72 357 l 195 483 z "},"u":{"ha":647,"x_min":76,"x_max":567,"o":"m 454 533 l 567 533 l 567 0 l 454 0 l 454 97 q 379 20 427 49 q 276 -9 331 -9 q 130 47 185 -9 q 76 206 76 103 l 76 533 l 188 533 l 188 241 q 309 93 188 93 q 412 133 371 93 q 454 245 454 173 l 454 533 z "},"ú":{"ha":647,"x_min":76,"x_max":567,"o":"m 454 533 l 567 533 l 567 0 l 454 0 l 454 97 q 379 20 427 49 q 276 -9 331 -9 q 130 47 185 -9 q 76 206 76 103 l 76 533 l 188 533 l 188 241 q 309 93 188 93 q 412 133 371 93 q 454 245 454 173 l 454 533 m 351 603 l 249 603 l 355 749 l 473 700 l 351 603 z "},"û":{"ha":647,"x_min":76,"x_max":567,"o":"m 454 533 l 567 533 l 567 0 l 454 0 l 454 97 q 379 20 427 49 q 276 -9 331 -9 q 130 47 185 -9 q 76 206 76 103 l 76 533 l 188 533 l 188 241 q 309 93 188 93 q 412 133 371 93 q 454 245 454 173 l 454 533 m 271 736 l 375 736 l 497 601 l 399 601 l 322 657 l 246 601 l 149 601 l 271 736 z "},"ü":{"ha":647,"x_min":76,"x_max":567,"o":"m 162 663 q 180 707 162 689 q 225 725 199 725 q 268 707 251 725 q 286 663 286 690 q 268 619 286 637 q 223 601 249 601 q 180 620 198 601 q 162 663 162 639 m 348 663 q 367 707 348 689 q 410 725 385 725 q 453 707 435 725 q 471 663 471 690 q 453 619 471 637 q 410 601 435 601 q 367 620 385 601 q 348 663 348 639 m 454 533 l 567 533 l 567 0 l 454 0 l 454 97 q 379 20 427 49 q 276 -9 331 -9 q 130 47 185 -9 q 76 206 76 103 l 76 533 l 188 533 l 188 241 q 309 93 188 93 q 412 133 371 93 q 454 245 454 173 l 454 533 z "},"ù":{"ha":647,"x_min":76,"x_max":567,"o":"m 394 601 l 292 601 l 169 697 l 288 747 l 394 601 m 454 533 l 567 533 l 567 0 l 454 0 l 454 97 q 379 20 427 49 q 276 -9 331 -9 q 130 47 185 -9 q 76 206 76 103 l 76 533 l 188 533 l 188 241 q 309 93 188 93 q 412 133 371 93 q 454 245 454 173 l 454 533 z "},"_":{"ha":723,"x_min":72,"x_max":651,"o":"m 72 -139 l 72 -82 l 651 -82 l 651 -139 l 72 -139 z "},"ॐ":{"ha":1085,"x_min":52,"x_max":1024,"o":"m 500 949 l 567 878 l 636 944 l 567 1014 l 500 949 m 375 885 q 604 739 470 739 q 780 833 693 739 l 692 908 q 553 829 634 829 q 408 908 470 829 l 375 885 m 723 553 q 840 627 759 627 q 937 574 899 627 q 975 437 975 521 q 934 290 975 348 q 830 232 892 232 q 757 351 757 232 l 757 391 l 757 468 q 723 553 757 536 m 52 473 q 179 133 69 269 q 440 -1 291 -1 q 588 52 533 -1 q 644 190 644 105 q 560 410 644 295 q 662 451 623 451 q 709 362 709 451 l 709 314 q 736 176 709 216 q 826 136 763 136 q 970 219 916 136 q 1024 444 1024 302 q 852 723 1024 723 q 692 564 722 723 q 670 567 672 567 q 504 483 593 567 l 485 501 q 501 573 501 536 q 445 724 501 666 q 302 782 389 782 q 170 750 232 782 l 216 643 q 359 683 291 683 q 452 607 452 683 q 299 461 452 507 l 345 354 q 462 452 412 385 q 557 239 557 355 q 514 132 557 176 q 410 87 471 87 q 205 196 295 87 q 89 483 117 305 l 52 473 z "},"అ":{"ha":902,"x_min":43,"x_max":878,"o":"m 269 399 q 221 417 241 399 q 200 460 200 437 q 221 510 200 487 q 269 530 241 530 q 319 510 296 530 q 338 460 338 490 q 319 417 338 435 q 269 399 298 399 m 487 0 q 763 102 649 0 q 878 348 878 205 q 806 531 878 455 q 634 609 736 609 q 505 560 558 609 q 451 444 451 513 q 474 345 451 389 q 538 278 497 302 l 269 278 l 269 192 l 634 192 l 634 314 q 558 358 586 325 q 530 435 530 394 q 560 501 530 473 q 634 530 593 530 q 745 471 699 530 q 792 331 792 414 q 692 152 792 226 q 451 79 593 79 q 228 152 324 79 q 130 322 130 225 q 133 362 130 342 q 140 384 136 379 q 192 334 156 351 q 278 314 229 314 q 384 358 341 314 q 427 470 427 402 q 384 574 427 531 q 278 617 341 617 q 107 544 172 617 q 43 348 43 471 q 165 95 43 190 q 487 0 285 0 z "},"ఇ":{"ha":798,"x_min":43,"x_max":773,"o":"m 392 87 q 209 119 276 87 q 140 200 140 149 q 178 255 140 233 q 271 278 215 278 l 365 278 q 481 236 431 278 q 530 140 530 196 l 530 105 q 392 87 493 87 m 391 0 q 530 14 511 0 l 530 -87 l 617 -87 l 617 43 q 730 158 689 77 q 773 338 773 238 q 700 530 773 450 q 521 609 626 609 q 431 591 467 609 q 374 538 397 576 q 319 591 354 576 q 235 609 285 609 q 99 558 155 609 q 43 435 43 510 l 130 435 q 159 495 130 471 q 226 521 186 521 q 295 498 272 521 q 322 435 322 473 l 408 435 q 438 498 408 475 q 521 521 470 521 q 639 467 591 521 q 687 338 687 414 q 670 226 687 275 q 617 149 650 176 q 537 306 617 248 q 322 365 457 365 q 126 319 200 365 q 52 192 52 271 q 140 52 52 106 q 374 0 229 0 l 391 0 z "},"ఉ":{"ha":891,"x_min":14,"x_max":866,"o":"m 344 0 q 441 21 394 0 q 510 79 487 43 q 578 21 537 40 q 674 0 624 0 q 810 59 755 0 q 866 200 866 116 l 866 262 l 779 262 l 779 192 q 746 119 779 149 q 666 87 714 87 q 586 119 619 87 q 553 192 553 149 l 553 262 l 465 262 l 465 200 q 434 120 465 152 q 352 87 401 87 q 249 136 292 87 q 206 252 206 186 q 209 309 206 278 q 222 348 215 332 l 796 348 l 796 435 l 258 435 q 321 498 278 475 q 422 521 365 521 l 796 521 l 796 609 l 587 609 l 587 800 l 501 800 l 501 609 l 431 609 q 266 563 342 609 q 152 435 193 517 l 14 435 l 14 348 l 133 348 q 119 235 119 309 q 185 69 119 136 q 344 0 252 0 z "},"ఎ":{"ha":806,"x_min":43,"x_max":782,"o":"m 235 79 q 162 109 192 79 q 130 183 130 140 q 162 249 130 222 q 235 278 193 278 q 302 249 273 278 q 331 183 331 221 q 302 109 331 142 q 235 79 275 79 m 235 0 q 309 16 271 0 q 374 62 345 33 q 441 16 394 33 q 548 0 488 0 q 714 95 643 0 q 782 322 782 188 q 699 550 782 457 q 495 643 614 643 l 408 643 l 408 557 l 470 557 q 623 485 560 557 q 687 314 687 415 q 644 155 687 221 q 538 87 599 87 q 455 102 490 87 q 408 140 418 117 q 417 192 417 160 q 364 308 417 259 q 235 357 311 357 q 99 306 155 357 q 43 183 43 258 q 99 54 43 109 q 235 0 158 0 z "},"ఒ":{"ha":859,"x_min":43,"x_max":835,"o":"m 252 0 q 372 21 321 0 q 444 79 424 43 q 515 21 464 43 q 634 0 567 0 q 777 57 720 0 q 835 200 835 115 q 828 255 835 226 q 809 295 820 282 l 713 295 q 739 252 730 278 q 749 200 749 231 q 710 120 749 155 q 617 87 670 87 q 531 123 567 87 q 495 209 495 159 l 495 262 l 408 262 l 408 209 q 367 123 408 160 q 269 87 326 87 q 172 119 212 87 q 130 192 130 149 q 165 271 130 235 q 252 322 199 308 q 348 378 309 336 q 384 460 384 414 q 336 566 384 521 q 226 609 292 609 q 109 567 159 609 q 62 470 62 527 l 62 435 l 147 435 l 147 452 q 170 501 147 483 q 226 521 195 521 q 276 507 256 521 q 295 470 295 493 q 269 417 295 441 q 200 384 246 395 q 87 315 130 365 q 43 200 43 265 q 105 59 43 119 q 252 0 168 0 z "},"ఙ":{"ha":849,"x_min":43,"x_max":825,"o":"m 102 59 q 243 0 160 0 q 365 21 308 0 q 444 79 421 44 q 520 21 471 40 q 634 0 568 0 q 772 54 714 0 q 825 192 825 107 q 818 252 825 223 q 800 295 813 281 l 703 295 q 730 256 722 279 q 739 209 739 232 q 703 123 739 159 q 617 87 667 87 q 531 123 567 87 q 495 209 495 159 l 495 262 l 408 262 l 408 209 q 367 123 408 160 q 269 87 326 87 q 172 119 212 87 q 130 192 130 149 q 159 266 130 233 q 235 314 186 301 q 299 338 285 328 q 338 365 326 348 l 722 365 l 722 452 l 581 452 l 581 609 l 495 609 l 495 452 l 374 452 q 331 566 374 523 q 216 609 288 609 q 106 567 152 609 q 62 470 62 527 l 62 435 l 147 435 l 147 452 q 170 501 147 483 q 226 521 195 521 q 269 507 251 521 q 286 470 286 493 q 263 417 286 440 q 200 384 236 392 q 87 315 130 365 q 43 200 43 265 q 102 59 43 117 z "},"ణ":{"ha":868,"x_min":43,"x_max":843,"o":"m 97 50 q 226 0 152 0 q 349 37 302 0 q 399 130 399 74 l 399 165 l 312 165 l 312 140 q 286 102 312 119 q 226 87 263 87 q 163 113 192 87 q 137 173 137 137 q 169 236 137 209 q 243 262 200 262 l 278 262 l 278 348 l 243 348 q 169 372 199 348 q 137 435 137 398 q 170 495 137 471 q 251 521 205 521 q 331 491 298 521 q 365 417 365 458 l 451 417 q 493 491 455 462 q 581 521 528 521 q 706 462 656 521 q 756 322 756 407 q 749 266 756 295 q 730 226 742 239 q 682 276 717 255 q 609 295 650 295 q 498 252 544 295 q 451 149 451 209 q 501 43 451 86 q 624 0 550 0 q 779 95 714 0 q 843 322 843 190 q 766 524 843 441 q 581 609 689 609 q 477 587 521 609 q 408 530 430 566 q 345 587 388 564 q 251 609 302 609 q 105 558 166 609 q 43 435 43 507 q 64 351 43 387 q 122 295 86 314 q 64 242 86 273 q 43 173 43 209 q 97 50 43 102 m 657 99 q 609 79 637 79 q 558 99 581 79 q 538 149 538 122 q 558 198 538 178 q 609 216 578 216 q 657 198 639 216 q 677 149 677 178 q 657 99 677 122 z "},"ఴ":{"ha":901,"x_min":43,"x_max":876,"o":"m 461 67 q 520 19 478 36 q 614 0 558 0 q 805 86 733 0 q 876 314 876 173 q 812 536 876 452 q 641 617 747 617 q 536 574 578 617 q 493 470 493 531 q 536 358 493 402 q 641 314 578 314 q 725 329 686 314 q 772 374 760 344 q 785 342 777 365 q 789 295 789 324 q 735 149 789 210 q 606 87 682 87 q 525 119 558 87 q 493 192 493 149 l 493 278 l 427 278 l 427 192 q 394 119 427 149 q 314 87 361 87 q 185 149 238 87 q 130 295 130 210 q 135 342 130 324 q 147 374 142 365 q 195 329 159 344 q 278 314 233 314 q 384 358 341 314 q 427 470 427 402 q 384 574 427 531 q 278 617 341 617 q 107 536 172 617 q 43 314 43 452 q 115 86 43 173 q 305 0 186 0 q 399 19 361 0 q 458 67 441 36 q 461 67 460 69 m 319 417 q 269 399 298 399 q 219 417 241 399 q 199 460 199 437 q 219 510 199 487 q 269 530 242 530 q 319 510 296 530 q 338 460 338 490 q 319 417 338 435 m 650 399 q 600 417 621 399 q 581 460 581 435 q 600 510 581 490 q 650 530 623 530 q 700 510 677 530 q 720 460 720 487 q 700 417 720 437 q 650 399 679 399 z "},"ె":{"ha":0,"x_min":-358,"x_max":324,"o":"m 324 660 q 288 759 324 719 q 202 800 251 800 l -358 800 l -358 713 l 185 713 q 222 699 208 713 q 236 660 236 683 q 222 623 236 637 q 185 609 208 609 l -200 609 l -200 521 l 202 521 q 288 563 251 521 q 324 660 324 603 z "},"ౕ":{"ha":186,"x_min":0,"x_max":192,"o":"m 86 782 l 86 852 q 97 875 86 866 q 122 886 109 886 l 192 886 l 192 974 l 86 974 q 26 949 50 974 q 0 886 0 922 l 0 782 l 86 782 z "},"ౢ":{"ha":0,"x_min":-832,"x_max":-83,"o":"m -832 -150 q -826 -186 -832 -169 q -808 -218 -820 -200 l -727 -218 q -753 -186 -747 -205 q -760 -150 -760 -169 q -733 -102 -760 -120 q -666 -80 -704 -80 q -604 -102 -630 -80 q -580 -156 -580 -126 l -580 -196 l -511 -196 l -511 -156 q -483 -103 -511 -125 q -412 -80 -455 -80 q -342 -99 -371 -80 q -315 -145 -315 -117 q -339 -209 -315 -176 q -407 -269 -362 -242 q -477 -336 -450 -296 q -503 -414 -503 -372 q -451 -524 -503 -478 q -328 -570 -401 -570 q -155 -470 -225 -570 q -83 -232 -83 -372 q -122 -33 -83 -112 l -192 -33 q -153 -232 -153 -120 q -205 -431 -153 -348 q -328 -513 -256 -513 q -404 -484 -371 -513 q -434 -421 -434 -458 q -410 -361 -434 -391 q -339 -302 -387 -331 q -269 -233 -298 -275 q -245 -150 -245 -193 q -294 -60 -245 -96 q -412 -21 -344 -21 q -490 -34 -458 -21 q -538 -67 -523 -47 q -591 -34 -554 -47 q -680 -21 -630 -21 q -788 -57 -747 -21 q -832 -150 -832 -93 z "},"ౣ":{"ha":0,"x_min":-1186,"x_max":-83,"o":"m -219 -296 q -252 -284 -238 -296 q -265 -246 -265 -266 q -252 -221 -265 -232 q -216 -210 -238 -210 q -182 -221 -196 -210 q -169 -246 -169 -232 q -182 -284 -169 -266 q -219 -296 -198 -296 m -1186 -150 q -1180 -186 -1186 -169 q -1161 -218 -1174 -200 l -1081 -218 q -1107 -186 -1101 -205 q -1114 -150 -1114 -169 q -1087 -102 -1114 -120 q -1019 -80 -1060 -80 q -958 -102 -984 -80 q -934 -156 -934 -126 l -934 -196 l -865 -196 l -865 -156 q -836 -103 -865 -125 q -766 -80 -809 -80 q -696 -99 -725 -80 q -669 -145 -669 -117 q -693 -209 -669 -176 q -760 -269 -716 -242 q -830 -336 -803 -296 q -856 -414 -856 -372 q -805 -524 -856 -478 q -682 -570 -755 -570 q -508 -470 -578 -570 q -437 -232 -437 -372 q -458 -92 -437 -172 l -268 -92 q -203 -110 -231 -92 q -173 -150 -178 -130 q -222 -142 -186 -142 q -299 -172 -265 -142 q -334 -242 -334 -202 q -298 -315 -334 -288 q -216 -347 -266 -347 q -122 -309 -162 -347 q -83 -221 -83 -272 q -137 -87 -83 -142 q -268 -33 -192 -33 l -564 -33 q -507 -232 -507 -158 q -558 -431 -507 -348 q -682 -513 -610 -513 q -757 -484 -725 -513 q -788 -421 -788 -458 q -763 -361 -788 -391 q -693 -302 -740 -331 q -623 -233 -651 -275 q -599 -150 -599 -193 q -647 -60 -599 -96 q -766 -21 -696 -21 q -843 -34 -810 -21 q -892 -67 -876 -47 q -945 -34 -908 -47 q -1034 -21 -984 -21 q -1141 -57 -1101 -21 q -1186 -150 -1186 -93 z "},"౸":{"ha":621,"x_min":14,"x_max":567,"o":"m 86 480 q 103 564 86 518 q 291 689 169 689 q 359 674 324 689 q 498 484 498 614 q 481 399 498 434 q 294 276 420 276 q 225 288 252 276 q 86 480 86 345 m 272 759 q 129 710 209 759 q 14 501 14 611 l 14 462 q 43 357 14 408 q 279 206 130 206 l 306 206 q 387 219 332 206 l 395 219 q 468 185 468 219 q 329 50 468 136 q 238 -20 238 -7 q 272 -66 238 -60 l 275 -66 q 292 -63 284 -66 q 541 173 541 80 l 541 178 q 475 272 541 236 q 567 467 567 358 l 567 495 q 514 649 567 577 q 311 759 417 759 l 272 759 z "},"౹":{"ha":258,"x_min":82,"x_max":152,"o":"m 109 756 q 82 730 82 756 l 82 20 q 109 -9 82 -9 l 123 -9 q 152 20 152 -9 l 152 730 q 123 756 152 756 l 109 756 z "},"౺":{"ha":483,"x_min":14,"x_max":428,"o":"m 64 756 q 29 719 44 756 q 14 616 14 682 l 14 567 q 63 398 14 477 q 236 304 137 304 l 275 304 q 358 339 322 308 l 358 20 q 387 -9 358 -9 l 401 -9 q 428 20 428 -9 l 428 730 q 401 756 428 756 l 387 756 q 358 730 358 756 l 358 467 q 248 382 325 382 q 208 388 223 382 q 84 597 84 430 q 107 719 84 672 q 77 756 107 756 l 64 756 z "},"౻":{"ha":881,"x_min":14,"x_max":828,"o":"m 417 421 q 430 398 421 412 q 606 304 504 304 l 643 304 q 759 367 700 304 l 759 20 q 785 -9 759 -9 l 802 -9 q 828 20 828 -9 l 828 730 q 802 756 828 756 l 785 756 q 759 730 759 756 l 759 616 q 752 528 755 601 q 611 382 719 382 l 607 382 q 566 389 591 382 q 451 597 451 437 q 474 723 451 669 q 444 756 470 756 l 432 756 q 407 740 410 756 q 377 584 388 704 l 377 567 q 372 520 377 538 q 248 382 347 382 q 208 388 223 382 q 84 597 84 430 q 107 719 84 672 q 77 756 107 756 l 64 756 q 29 719 44 756 q 14 616 14 682 l 14 567 q 63 398 14 477 q 236 304 137 304 l 275 304 q 322 316 286 304 q 417 421 382 345 z "},"౼":{"ha":836,"x_min":14,"x_max":782,"o":"m 30 407 q 14 382 14 399 l 14 368 q 39 339 14 351 l 757 339 q 782 368 782 351 l 782 382 q 766 407 782 399 l 30 407 z "},"౽":{"ha":858,"x_min":14,"x_max":805,"o":"m 205 624 q 120 620 135 624 q 29 580 29 620 q 49 546 29 566 q 213 553 146 553 q 365 543 309 553 q 451 477 451 527 q 352 394 451 430 q 173 352 221 372 q 14 159 14 301 q 27 97 14 135 q 235 -4 74 0 q 777 9 314 -6 q 805 44 805 23 q 747 89 805 89 q 347 66 508 66 q 149 86 226 66 q 89 159 89 117 q 284 305 89 258 q 527 475 527 361 l 527 477 q 462 583 527 531 q 241 624 367 624 l 205 624 z "},"౾":{"ha":915,"x_min":14,"x_max":862,"o":"m 52 637 q 19 606 23 620 q 84 571 34 571 l 123 571 q 341 543 341 571 q 129 487 341 508 q 23 388 23 465 l 23 378 q 221 301 23 301 l 243 301 l 243 304 q 253 301 243 301 l 266 301 q 358 271 358 292 q 165 216 358 235 q 14 97 14 180 l 14 90 q 60 13 14 34 q 424 -13 60 -13 q 842 -9 599 -13 q 862 26 862 14 l 862 29 q 825 63 862 52 q 294 50 604 53 q 127 62 228 49 q 90 87 90 66 l 90 90 q 296 166 90 143 q 432 269 432 199 l 432 276 q 427 302 432 285 q 268 367 389 367 l 262 367 q 253 369 262 367 q 243 367 245 367 l 208 367 q 89 382 89 367 q 192 434 89 412 q 411 528 411 450 l 411 534 q 371 606 411 583 q 52 637 371 633 z "},"౿":{"ha":912,"x_min":10,"x_max":858,"o":"m 192 531 q 160 524 172 531 q 73 470 100 511 q 14 294 19 389 q 50 160 10 223 q 401 -9 153 -9 q 640 39 533 -9 q 858 232 809 115 l 858 241 q 819 278 858 261 q 800 276 809 276 q 424 69 649 69 l 411 69 q 245 90 335 69 q 83 276 83 155 l 83 329 q 189 278 122 278 l 212 278 q 292 318 256 278 q 326 399 326 352 q 322 435 326 412 q 202 531 282 531 l 192 531 m 122 404 q 195 465 122 455 q 265 404 265 452 q 192 341 265 354 q 122 404 122 355 z "},"‘":{"ha":458,"x_min":107,"x_max":352,"o":"m 352 793 q 326 865 352 835 q 259 895 299 895 q 216 888 241 895 q 182 869 193 879 q 218 955 182 914 q 314 1012 258 999 l 292 1054 q 149 965 199 1037 q 107 819 107 902 q 140 723 107 763 q 241 680 176 680 q 325 713 292 680 q 352 793 352 742 z "},"’":{"ha":458,"x_min":107,"x_max":352,"o":"m 107 941 q 133 869 107 899 q 200 839 162 839 q 245 845 223 839 q 279 865 265 853 q 242 777 279 822 q 146 722 203 735 l 168 680 q 312 769 262 697 q 352 915 352 828 q 321 1009 352 972 q 221 1054 285 1054 q 136 1021 166 1054 q 107 941 107 989 z "},"“":{"ha":712,"x_min":107,"x_max":607,"o":"m 607 673 q 574 739 607 697 q 541 803 541 779 q 560 911 541 863 q 607 999 576 964 l 564 1021 q 468 902 500 968 q 434 760 434 830 q 460 654 434 702 q 520 609 485 609 q 581 627 558 609 q 607 673 607 647 m 281 673 q 249 739 281 699 q 216 803 216 779 q 233 911 216 855 q 281 999 252 968 l 238 1021 q 142 902 173 968 q 107 760 107 830 q 133 654 107 702 q 195 609 159 609 q 255 627 232 609 q 281 673 281 647 z "},"”":{"ha":712,"x_min":107,"x_max":607,"o":"m 434 848 q 465 782 434 819 q 498 717 498 742 q 481 610 498 666 q 434 521 462 553 l 477 500 q 573 619 541 553 q 607 760 607 690 q 581 866 607 819 q 520 912 556 912 q 460 892 484 912 q 434 848 434 873 m 107 848 q 140 782 107 822 q 173 717 173 742 q 155 610 173 657 q 107 521 139 557 l 150 500 q 246 619 215 553 q 281 760 281 690 q 255 866 281 819 q 195 912 229 912 q 133 892 158 912 q 107 848 107 873 z "},"•":{"ha":750,"x_min":0,"x_max":0,"o":""},"₹":{"ha":992,"x_min":72,"x_max":941,"o":"m 686 3 q 730 7 710 -6 q 749 44 749 20 q 736 70 749 54 q 699 99 722 84 l 405 292 q 607 371 527 292 q 693 560 693 452 l 895 560 q 928 570 916 560 q 941 591 941 578 q 928 609 941 601 q 895 614 916 614 l 693 614 q 647 714 679 670 q 576 792 613 762 l 908 792 q 932 800 922 792 q 941 822 941 809 q 932 846 941 836 q 908 855 922 855 l 119 855 q 89 846 102 855 q 76 822 76 836 q 89 800 76 809 q 119 792 102 792 l 442 792 q 543 709 498 757 q 599 614 584 664 l 130 614 q 89 609 105 614 q 72 591 72 601 q 89 570 72 578 q 130 560 105 560 l 599 560 q 536 428 599 483 q 381 374 470 374 q 225 417 304 374 l 189 437 q 169 445 176 445 q 130 432 147 445 q 115 401 115 420 q 129 384 115 397 l 143 371 l 686 3 z "},"v":{"ha":573,"x_min":9,"x_max":566,"o":"m 222 0 l 9 533 l 125 533 l 286 130 l 450 533 l 566 533 l 351 0 l 222 0 z "},"w":{"ha":914,"x_min":19,"x_max":896,"o":"m 331 0 l 202 0 l 19 533 l 135 533 l 266 130 l 399 533 l 515 533 l 647 130 l 780 533 l 896 533 l 712 0 l 583 0 l 457 365 l 331 0 z "},"x":{"ha":560,"x_min":19,"x_max":540,"o":"m 166 533 l 281 358 l 399 533 l 533 533 l 345 272 l 540 0 l 402 0 l 275 178 l 150 0 l 19 0 l 209 272 l 29 533 l 166 533 z "},"y":{"ha":576,"x_min":9,"x_max":568,"o":"m 16 -159 l 67 -69 q 140 -102 103 -102 q 200 -75 176 -102 q 225 -16 225 -49 q 9 533 225 -3 l 129 533 l 289 140 l 448 533 l 568 533 l 309 -100 q 243 -182 286 -152 q 149 -212 200 -212 q 16 -159 74 -212 z "},"ý":{"ha":576,"x_min":9,"x_max":568,"o":"m 16 -159 l 67 -69 q 140 -102 103 -102 q 200 -75 176 -102 q 225 -16 225 -49 q 9 533 225 -3 l 129 533 l 289 140 l 448 533 l 568 533 l 309 -100 q 243 -182 286 -152 q 149 -212 200 -212 q 16 -159 74 -212 m 332 630 l 231 630 l 336 775 l 455 726 l 332 630 z "},"ÿ":{"ha":576,"x_min":9,"x_max":568,"o":"m 139 663 q 157 707 139 690 q 200 725 175 725 q 244 707 226 725 q 262 663 262 690 q 243 619 262 637 q 199 601 225 601 q 156 620 173 601 q 139 663 139 637 m 324 663 q 342 707 324 689 q 387 725 361 725 q 430 707 412 725 q 447 663 447 690 q 429 619 447 637 q 387 601 411 601 q 342 620 361 601 q 324 663 324 639 m 16 -159 l 67 -69 q 140 -102 103 -102 q 200 -75 176 -102 q 225 -16 225 -49 q 9 533 225 -3 l 129 533 l 289 140 l 448 533 l 568 533 l 309 -100 q 243 -182 286 -152 q 149 -212 200 -212 q 16 -159 74 -212 z "},"¥":{"ha":717,"x_min":36,"x_max":684,"o":"m 102 212 l 292 212 l 292 266 l 289 272 l 102 272 l 102 361 l 236 361 l 36 700 l 165 700 l 354 379 l 361 379 l 557 700 l 684 700 l 477 361 l 607 361 l 607 272 l 422 272 l 420 266 l 420 212 l 607 212 l 607 125 l 418 125 l 418 0 l 292 0 l 292 125 l 102 125 l 102 212 z "},"z":{"ha":543,"x_min":44,"x_max":497,"o":"m 64 435 l 64 531 l 481 531 l 481 430 l 182 97 l 497 97 l 497 0 l 44 0 l 44 109 l 335 435 l 64 435 z "},"ž":{"ha":543,"x_min":44,"x_max":497,"o":"m 64 435 l 64 531 l 481 531 l 481 430 l 182 97 l 497 97 l 497 0 l 44 0 l 44 109 l 335 435 l 64 435 m 325 601 l 222 601 l 99 736 l 196 736 l 273 680 l 351 736 l 448 736 l 325 601 z "}}}
